{"glyphs":{"0":{"ha":910,"x_min":0,"x_max":0,"o":"m 44 632 b 456 1007 44 864 196 1007 b 865 632 713 1007 865 864 l 865 356 b 456 -21 865 122 713 -21 b 44 356 196 -21 44 122 m 543 650 b 456 728 543 700 511 728 b 367 650 400 728 367 700 l 367 336 b 456 258 367 286 400 258 b 543 336 511 258 543 286 "},"1":{"ha":632,"x_min":0,"x_max":0,"o":"m 506 986 b 567 925 551 986 567 971 l 567 61 b 506 0 567 15 551 0 l 306 0 b 244 61 260 0 244 15 l 244 571 l 190 540 b 97 564 142 514 119 524 l 14 713 b 43 796 -4 753 3 772 l 333 963 b 419 986 360 978 389 986 "},"2":{"ha":861,"x_min":0,"x_max":0,"o":"m 46 756 b 449 1007 113 924 247 1007 b 728 915 567 1007 660 976 b 829 679 796 853 829 775 b 764 451 829 576 807 500 b 569 338 719 401 654 364 b 479 315 547 331 517 324 b 396 292 440 306 413 299 b 369 269 378 285 369 278 l 369 264 l 747 264 b 808 203 793 264 808 249 l 808 61 b 747 0 808 15 793 0 l 97 0 b 36 61 51 0 36 15 l 36 175 b 93 349 36 247 64 310 b 158 407 108 368 129 388 b 228 450 186 426 210 440 b 307 488 246 460 272 472 b 385 524 342 503 368 515 b 443 558 400 532 419 543 b 504 665 488 588 504 621 b 439 728 504 707 482 728 b 347 647 399 728 376 708 b 269 608 325 601 314 593 l 83 678 b 46 756 40 693 31 713 "},"3":{"ha":876,"x_min":0,"x_max":0,"o":"m 822 717 b 711 517 822 632 785 565 b 850 282 804 467 850 389 b 469 -21 850 81 724 -21 b 40 231 246 -21 103 63 b 79 310 25 274 36 294 l 247 369 b 325 331 290 385 308 375 b 433 250 344 276 381 250 b 514 308 488 250 514 269 b 447 365 514 351 492 365 l 386 365 b 325 426 340 365 325 381 l 325 569 b 386 631 325 615 340 631 l 428 631 b 496 683 474 631 496 649 b 426 736 496 722 476 736 b 325 656 372 736 347 715 b 247 617 308 611 290 601 l 79 676 b 40 754 36 692 25 711 b 475 1007 103 922 247 1007 b 822 717 699 1007 822 894 "},"4":{"ha":928,"x_min":0,"x_max":0,"o":"m 850 421 b 911 360 896 421 911 406 l 911 246 b 850 185 911 200 896 185 l 788 185 l 788 61 b 726 0 788 15 772 0 l 542 0 b 481 61 496 0 481 15 l 481 185 l 76 185 b 15 246 31 185 15 200 l 15 357 b 53 472 15 414 19 433 l 460 943 b 557 986 489 976 508 986 l 726 986 b 788 925 772 986 788 971 l 788 421 m 481 599 l 331 421 l 481 421 "},"5":{"ha":864,"x_min":0,"x_max":0,"o":"m 738 988 b 799 926 783 988 799 972 l 799 771 b 738 710 799 725 783 710 l 411 710 l 406 658 l 465 658 b 843 319 725 658 843 525 b 740 74 843 218 808 136 b 453 -21 671 11 575 -21 b 33 208 221 -21 96 47 b 71 286 18 251 28 271 l 258 358 b 333 324 296 374 315 367 b 433 264 350 283 383 264 b 510 340 485 264 510 289 b 419 413 510 390 486 413 l 131 413 b 68 483 79 413 63 433 l 111 901 b 208 988 118 967 140 988 "},"6":{"ha":915,"x_min":0,"x_max":0,"o":"m 365 621 b 478 626 394 625 432 626 b 881 307 757 626 881 528 b 463 -21 881 92 728 -21 b 44 358 189 -21 44 110 l 44 628 b 463 1007 44 876 190 1007 b 864 786 679 1007 804 940 b 826 708 881 743 871 725 l 663 646 b 583 688 618 631 610 646 b 469 728 568 714 529 728 b 365 629 392 728 365 703 m 365 307 b 463 244 365 267 389 244 b 560 304 540 244 560 264 b 463 361 560 344 536 361 b 365 353 425 361 392 358 "},"7":{"ha":808,"x_min":0,"x_max":0,"o":"m 733 986 b 794 925 779 986 794 971 l 794 807 b 776 722 794 775 789 747 l 454 54 b 340 0 432 8 414 0 l 144 0 b 114 61 106 0 96 21 l 419 708 l 81 708 b 19 769 35 708 19 724 l 19 925 b 81 986 19 971 35 986 "},"8":{"ha":914,"x_min":0,"x_max":0,"o":"m 67 703 b 456 1007 67 896 213 1007 b 847 721 710 1007 847 904 b 763 526 847 644 819 579 b 881 296 842 472 881 396 b 456 -21 881 100 746 -21 b 33 269 174 -21 33 76 b 164 496 33 364 76 439 b 67 703 99 540 67 610 m 528 694 b 458 743 528 726 504 743 b 393 694 415 743 393 726 b 465 631 393 667 417 646 l 490 622 b 528 694 515 646 528 669 m 546 294 b 522 333 546 313 538 325 b 396 379 506 342 464 357 b 353 299 367 350 353 324 b 453 239 353 258 386 239 b 546 294 513 239 546 263 "},"9":{"ha":915,"x_min":0,"x_max":0,"o":"m 550 365 b 438 360 521 361 483 360 b 35 679 158 360 35 458 b 453 1007 35 894 188 1007 b 871 628 726 1007 871 876 l 871 358 b 453 -21 871 110 725 -21 b 51 200 236 -21 111 46 b 89 278 35 243 44 261 l 253 340 b 332 299 297 356 306 340 b 446 258 347 272 386 258 b 550 357 524 258 550 283 m 550 679 b 453 742 550 719 526 742 b 356 682 375 742 356 722 b 453 625 356 642 379 625 b 550 633 492 625 524 628 "}," ":{"ha":219,"x_min":0,"x_max":0,"o":""},"!":{"ha":421,"x_min":0,"x_max":0,"o":"m 311 1026 b 367 972 354 1026 368 1013 l 342 393 b 288 338 340 350 328 338 l 133 338 b 79 393 93 338 81 350 l 56 972 b 111 1026 54 1013 68 1026 m 264 285 b 378 172 351 285 378 257 l 378 101 b 264 -11 378 17 351 -11 l 156 -11 b 42 101 68 -11 42 17 l 42 172 b 156 285 42 257 68 285 "},"\"":{"ha":606,"x_min":0,"x_max":0,"o":"m 263 665 b 201 619 257 625 247 619 l 96 619 b 46 665 53 619 46 625 l 46 938 b 96 986 46 978 53 986 l 249 986 b 299 938 292 986 304 978 m 543 665 b 482 619 538 625 528 619 l 376 619 b 326 665 333 619 326 625 l 326 938 b 376 986 326 978 333 986 l 529 986 b 579 938 572 986 585 978 "},"#":{"ha":1107,"x_min":0,"x_max":0,"o":"m 1046 775 b 1086 722 1089 775 1097 763 l 1044 581 b 971 531 1033 543 1014 531 l 903 531 l 864 401 l 936 401 b 978 347 979 401 990 388 l 932 207 b 858 156 921 168 901 156 l 790 156 l 761 56 b 692 0 750 15 732 0 l 533 0 b 493 56 493 0 482 15 l 522 156 l 417 156 l 388 56 b 317 0 375 15 357 0 l 158 0 b 119 56 118 0 107 15 l 149 156 l 78 156 b 38 210 38 156 26 169 l 82 350 b 156 401 93 389 111 401 l 222 401 l 261 531 l 190 531 b 149 585 147 531 136 544 l 193 725 b 265 775 206 764 222 775 l 335 775 l 365 879 b 435 935 376 919 394 935 l 593 935 b 633 879 633 935 644 919 l 603 775 l 708 775 l 739 879 b 810 935 751 919 769 935 l 968 935 b 1007 879 1008 935 1019 919 l 976 775 m 529 531 l 490 401 l 596 401 l 635 531 "},"$":{"ha":889,"x_min":0,"x_max":0,"o":"m 544 1049 b 600 994 588 1049 600 1035 l 600 956 b 838 796 715 935 794 882 b 806 722 856 763 844 738 l 635 647 b 563 675 597 631 583 636 b 454 732 540 719 515 732 b 363 688 393 732 363 717 b 485 628 363 653 400 640 b 696 581 586 613 656 597 b 868 313 810 533 867 444 b 600 35 868 160 779 67 l 600 -4 b 544 -60 600 -47 585 -60 l 364 -60 b 308 -4 324 -60 308 -47 l 308 31 b 44 213 168 51 81 111 b 81 286 32 253 42 271 l 240 343 b 322 318 279 360 300 356 b 446 267 343 283 383 267 b 553 311 522 267 553 276 b 444 367 553 338 517 356 b 399 375 440 368 425 371 b 346 383 372 379 356 382 b 294 394 336 385 319 389 b 192 431 244 406 233 413 b 106 499 150 449 135 468 b 74 547 90 514 81 529 b 47 682 60 581 47 628 b 308 954 47 832 135 922 l 308 994 b 364 1049 308 1035 321 1049 "},"%":{"ha":1329,"x_min":0,"x_max":0,"o":"m 29 782 b 286 1007 29 922 121 1007 b 542 782 451 1007 542 922 l 542 674 b 286 451 542 535 451 451 b 29 674 121 451 29 535 m 1118 986 b 1147 929 1157 986 1169 958 l 507 54 b 461 10 489 31 474 15 b 388 0 449 3 424 0 l 219 0 b 189 61 176 0 165 29 l 831 936 b 874 978 846 958 861 972 b 943 986 886 983 910 986 m 332 767 b 286 807 332 793 317 807 b 239 767 254 807 239 793 l 239 690 b 286 650 239 664 254 650 b 332 690 317 650 332 664 m 788 311 b 1044 536 788 451 879 536 b 1300 311 1210 536 1300 451 l 1300 203 b 1044 -19 1300 63 1210 -19 b 788 203 879 -19 788 63 m 1092 296 b 1046 336 1092 322 1076 336 b 999 296 1014 336 999 322 l 999 219 b 1046 179 999 193 1014 179 b 1092 219 1076 179 1092 193 "},"&":{"ha":983,"x_min":0,"x_max":0,"o":"m 124 722 b 203 925 124 801 150 869 b 425 1007 256 979 329 1007 b 632 931 507 1007 575 982 b 715 738 688 879 715 814 b 588 501 715 636 672 558 l 574 493 l 632 429 l 689 486 b 761 486 713 510 738 510 l 883 368 b 879 304 903 347 901 325 l 811 236 l 979 54 b 954 0 1007 26 994 0 l 733 0 b 653 32 699 0 672 11 l 625 61 b 353 -21 550 7 460 -21 b 14 290 147 -21 14 96 b 176 553 14 403 68 490 b 124 722 142 603 124 660 m 422 676 b 463 744 449 694 463 718 b 424 785 463 771 450 785 b 386 744 399 785 386 771 b 413 671 386 721 394 696 m 344 367 b 296 290 313 350 296 325 b 371 221 296 247 325 221 b 451 250 399 221 425 231 "},"'":{"ha":325,"x_min":0,"x_max":0,"o":"m 263 665 b 201 619 257 625 247 619 l 96 619 b 46 665 53 619 46 625 l 46 938 b 96 986 46 978 53 986 l 249 986 b 299 938 292 986 304 978 "},"(":{"ha":460,"x_min":0,"x_max":0,"o":"m 47 813 b 265 1196 47 1013 121 1129 b 340 1160 304 1211 319 1200 l 429 978 b 399 903 446 939 439 925 b 343 790 356 881 343 850 l 343 197 b 399 85 343 138 356 107 b 429 10 439 63 446 49 l 340 -172 b 265 -208 319 -212 304 -224 b 47 175 121 -142 47 -25 "},")":{"ha":458,"x_min":0,"x_max":0,"o":"m 124 1160 b 199 1196 144 1200 160 1211 b 417 813 343 1129 417 1013 l 417 175 b 199 -208 417 -25 343 -142 b 124 -172 160 -224 144 -212 l 35 10 b 65 85 18 49 25 63 b 121 197 108 107 121 138 l 121 790 b 65 903 121 850 108 881 b 35 978 25 925 18 939 "},"*":{"ha":478,"x_min":0,"x_max":0,"o":"m 279 950 b 319 904 314 950 325 938 l 306 818 l 383 858 b 440 835 415 875 429 868 l 460 782 b 425 731 469 753 458 735 l 339 717 l 400 656 b 397 594 424 632 424 613 l 351 564 b 290 578 325 546 304 550 l 253 651 l 214 576 b 157 558 200 546 181 540 l 108 594 b 106 656 83 613 82 633 l 167 717 l 81 731 b 47 783 49 735 38 753 l 65 835 b 124 858 75 865 94 874 l 201 818 l 186 904 b 225 950 181 935 193 950 "},"+":{"ha":783,"x_min":0,"x_max":0,"o":"m 692 586 b 753 525 738 586 753 571 l 753 385 b 692 324 753 339 738 324 l 522 324 l 522 154 b 461 93 522 108 507 93 l 321 93 b 260 154 275 93 260 108 l 260 324 l 92 324 b 31 385 46 324 31 339 l 31 525 b 92 586 31 571 46 586 l 260 586 l 260 754 b 321 815 260 800 275 815 l 461 815 b 522 754 507 815 522 800 l 522 586 "},",":{"ha":385,"x_min":0,"x_max":0,"o":"m 242 -115 b 161 -169 226 -154 207 -169 l 56 -169 b 14 -128 18 -169 10 -161 l 57 222 b 133 300 64 278 83 300 l 299 300 b 356 222 356 300 374 274 "},"-":{"ha":553,"x_min":0,"x_max":0,"o":"m 443 503 b 504 442 489 503 504 488 l 504 293 b 443 232 504 247 489 232 l 110 232 b 49 293 64 232 49 247 l 49 442 b 110 503 49 488 64 503 "},".":{"ha":383,"x_min":0,"x_max":0,"o":"m 232 300 b 346 186 319 300 346 271 l 346 101 b 232 -11 346 17 317 -11 l 151 -11 b 38 101 67 -11 38 17 l 38 186 b 151 300 38 271 64 300 "},"/":{"ha":722,"x_min":0,"x_max":0,"o":"m 344 -32 b 271 -83 329 -72 314 -83 l 72 -83 b 36 -32 32 -83 21 -67 l 396 935 b 469 986 411 975 426 986 l 668 986 b 704 935 707 986 717 969 "},":":{"ha":411,"x_min":0,"x_max":0,"o":"m 246 786 b 360 672 333 786 360 757 l 360 588 b 246 475 360 503 331 475 l 165 475 b 51 588 81 475 51 503 l 51 672 b 165 786 51 757 78 786 m 246 300 b 360 186 333 300 360 271 l 360 101 b 246 -11 360 17 331 -11 l 165 -11 b 51 101 81 -11 51 17 l 51 186 b 165 300 51 271 78 300 "},";":{"ha":410,"x_min":0,"x_max":0,"o":"m 258 786 b 372 672 343 786 372 757 l 372 588 b 258 475 372 503 343 475 l 178 475 b 64 588 93 475 64 503 l 64 672 b 178 786 64 757 93 786 m 246 -115 b 165 -169 231 -154 211 -169 l 60 -169 b 18 -128 22 -169 14 -161 l 61 222 b 138 300 68 278 88 300 l 303 300 b 360 222 360 300 378 274 "},"<":{"ha":699,"x_min":0,"x_max":0,"o":"m 576 871 b 640 825 622 894 640 879 l 640 651 b 585 551 640 586 631 574 l 392 460 l 392 456 l 583 363 b 640 264 629 340 640 326 l 640 81 b 576 35 640 26 622 11 l 78 307 b 29 382 40 328 29 342 l 29 524 b 78 600 29 564 40 579 "},"=":{"ha":839,"x_min":0,"x_max":0,"o":"m 719 756 b 781 694 765 756 781 740 l 781 546 b 719 485 781 500 765 485 l 119 485 b 58 546 74 485 58 500 l 58 694 b 119 756 58 740 74 756 m 719 422 b 781 361 765 422 781 407 l 781 213 b 719 151 781 167 765 151 l 119 151 b 58 213 74 151 58 167 l 58 361 b 119 422 58 407 74 422 "},">":{"ha":699,"x_min":0,"x_max":0,"o":"m 58 825 b 122 871 58 879 74 894 l 621 600 b 669 524 658 579 669 564 l 669 382 b 621 307 669 342 658 328 l 122 35 b 58 81 74 11 58 26 l 58 264 b 115 363 58 326 69 340 l 307 453 l 307 457 l 114 551 b 58 651 68 574 58 586 "},"?":{"ha":843,"x_min":0,"x_max":0,"o":"m 39 775 b 442 1026 107 943 240 1026 b 822 738 681 1026 822 915 b 729 540 822 647 774 572 b 643 485 707 524 678 506 b 572 442 607 464 583 450 b 533 378 546 422 533 401 b 475 319 533 333 518 319 l 308 319 b 250 378 265 319 250 333 b 360 601 250 485 286 558 b 460 654 382 614 438 642 b 504 738 481 667 504 699 b 442 792 504 774 483 792 b 324 671 390 792 364 761 b 246 632 303 626 289 617 l 76 696 b 39 775 33 711 22 732 m 449 285 b 563 172 536 285 563 257 l 563 101 b 449 -11 563 17 536 -11 l 340 -11 b 226 101 253 -11 226 17 l 226 172 b 340 285 226 257 253 285 "},"@":{"ha":1260,"x_min":0,"x_max":0,"o":"m 32 458 b 186 860 32 626 83 761 b 626 1007 288 958 435 1007 b 1068 860 818 1007 965 958 b 1221 458 1169 761 1221 626 l 1221 356 b 1147 129 1221 260 1196 183 b 958 47 1097 75 1035 47 b 831 99 910 47 868 64 b 588 63 763 75 681 63 b 311 314 403 63 311 146 l 311 499 b 588 750 311 667 403 750 b 875 701 697 750 793 733 b 919 632 914 685 919 675 l 919 261 b 953 229 919 240 931 229 b 1019 353 997 229 1019 271 l 1019 461 b 626 829 1019 693 882 829 b 233 461 371 829 233 693 l 233 353 b 626 -4 233 124 369 -4 b 929 22 719 -4 821 4 b 985 -15 978 32 985 25 l 985 -94 b 935 -154 985 -135 975 -144 b 626 -183 840 -174 738 -183 b 32 356 242 -183 32 18 m 696 554 b 610 560 672 558 643 560 b 525 494 549 560 525 540 l 525 318 b 610 253 525 272 549 253 l 707 258 l 707 539 b 696 554 707 546 703 551 "},"A":{"ha":978,"x_min":0,"x_max":0,"o":"m 988 60 b 944 0 1001 19 988 0 l 750 0 b 644 64 679 0 654 18 l 625 135 l 364 135 l 344 64 b 244 0 332 18 310 0 l 50 0 b 11 60 7 0 -4 19 l 321 936 b 396 986 333 976 351 986 l 601 986 b 676 938 644 986 664 975 m 526 499 b 501 661 511 550 503 624 l 500 690 l 486 690 b 464 500 488 622 479 560 l 433 388 l 557 388 "},"B":{"ha":919,"x_min":0,"x_max":0,"o":"m 539 988 b 858 724 740 988 858 894 b 754 521 858 636 824 568 l 754 514 b 900 276 851 471 900 392 b 801 72 900 189 867 121 b 544 0 736 24 650 0 l 117 0 b 56 61 71 0 56 15 l 56 926 b 117 988 56 972 71 988 m 532 682 b 461 742 532 722 508 742 l 378 742 l 378 624 l 461 624 b 532 682 510 624 532 639 m 564 313 b 489 375 564 354 539 375 l 378 375 l 378 247 l 489 247 b 564 313 540 247 564 264 "},"C":{"ha":914,"x_min":0,"x_max":0,"o":"m 35 604 b 478 1007 35 854 196 1007 b 899 754 696 1007 836 922 b 860 676 914 711 903 692 l 671 610 b 593 649 626 597 610 604 b 478 728 571 706 543 728 b 357 606 383 728 357 694 l 357 381 b 478 258 357 292 383 258 b 594 338 536 258 575 285 b 672 376 611 382 629 392 l 860 310 b 899 231 903 294 914 274 b 478 -21 836 63 696 -21 b 35 382 196 -21 35 132 "},"D":{"ha":944,"x_min":0,"x_max":0,"o":"m 468 986 b 911 583 750 986 911 835 l 911 404 b 468 0 911 153 750 0 l 117 0 b 56 61 71 0 56 15 l 56 925 b 117 986 56 971 71 986 m 589 575 b 451 708 589 665 551 708 l 378 708 l 378 279 l 451 279 b 589 413 553 279 589 319 "},"E":{"ha":822,"x_min":0,"x_max":0,"o":"m 722 986 b 783 925 768 986 783 971 l 783 769 b 722 708 783 724 768 708 l 378 708 l 378 636 l 644 636 b 706 575 690 636 706 621 l 706 419 b 644 358 706 374 690 358 l 378 358 l 378 279 l 732 279 b 793 218 778 279 793 264 l 793 61 b 732 0 793 15 778 0 l 117 0 b 56 61 71 0 56 15 l 56 925 b 117 986 56 971 71 986 "},"F":{"ha":807,"x_min":0,"x_max":0,"o":"m 722 986 b 783 925 768 986 783 971 l 783 769 b 722 708 783 724 768 708 l 378 708 l 378 582 l 644 582 b 706 521 690 582 706 567 l 706 365 b 644 304 706 319 690 304 l 378 304 l 378 61 b 317 0 378 15 363 0 l 117 0 b 56 61 71 0 56 15 l 56 925 b 117 986 56 971 71 986 "},"G":{"ha":951,"x_min":0,"x_max":0,"o":"m 860 575 b 921 514 906 575 921 560 l 921 336 b 804 79 921 232 882 146 b 478 -21 725 13 617 -21 b 35 382 196 -21 35 132 l 35 604 b 478 1007 35 854 196 1007 b 899 754 696 1007 836 922 b 860 676 914 711 903 692 l 671 610 b 593 649 626 597 610 604 b 478 728 571 706 543 728 b 357 606 383 728 357 694 l 357 381 b 478 258 357 292 383 258 b 594 326 556 258 594 281 l 594 332 l 496 332 b 435 393 450 332 435 347 l 435 514 b 496 575 435 560 450 575 "},"H":{"ha":961,"x_min":0,"x_max":0,"o":"m 844 988 b 906 926 890 988 906 972 l 906 61 b 844 0 906 15 890 0 l 644 0 b 583 61 599 0 583 15 l 583 361 l 378 361 l 378 61 b 317 0 378 15 363 0 l 117 0 b 56 61 71 0 56 15 l 56 926 b 117 988 56 972 71 988 l 317 988 b 378 926 363 988 378 972 l 378 639 l 583 639 l 583 926 b 644 988 583 972 599 988 "},"I":{"ha":433,"x_min":0,"x_max":0,"o":"m 56 931 b 111 986 56 971 71 986 l 322 986 b 378 931 363 986 378 971 l 378 56 b 322 0 378 15 363 0 l 111 0 b 56 56 71 0 56 15 "},"J":{"ha":821,"x_min":0,"x_max":0,"o":"m 722 988 b 782 928 767 988 782 972 l 782 350 b 385 -21 782 115 644 -21 b 10 222 194 -21 69 60 b 49 300 -6 265 6 285 l 229 365 b 313 332 274 382 294 375 b 394 257 335 281 356 257 b 460 349 438 257 460 288 l 460 928 b 519 988 460 972 474 988 "},"K":{"ha":928,"x_min":0,"x_max":0,"o":"m 919 76 b 878 0 943 33 926 0 l 690 0 b 560 65 613 0 586 11 l 447 299 b 390 357 428 338 408 357 l 378 357 l 378 61 b 317 0 378 15 363 0 l 117 0 b 56 61 71 0 56 15 l 56 925 b 117 986 56 971 71 986 l 317 986 b 378 925 363 986 378 971 l 378 638 l 393 636 l 403 636 l 558 931 b 596 976 571 954 583 969 b 669 986 608 983 632 986 l 868 986 b 906 919 913 986 928 960 l 686 503 b 732 432 703 482 718 458 "},"L":{"ha":763,"x_min":0,"x_max":0,"o":"m 317 986 b 378 925 363 986 378 971 l 378 279 l 688 279 b 749 218 733 279 749 264 l 749 61 b 688 0 749 15 733 0 l 117 0 b 56 61 71 0 56 15 l 56 925 b 117 986 56 971 71 986 "},"M":{"ha":1156,"x_min":0,"x_max":0,"o":"m 1039 988 b 1100 929 1085 988 1100 974 l 1100 58 b 1039 0 1100 14 1085 0 l 842 0 b 781 58 796 0 781 14 l 781 144 b 794 317 781 203 785 260 b 856 560 804 372 824 453 l 839 560 b 761 357 799 450 772 383 l 701 219 b 633 179 689 193 667 179 l 511 179 b 442 219 472 179 457 190 l 379 357 l 308 560 l 292 560 b 351 304 324 440 343 356 b 363 143 358 253 363 200 l 363 58 b 301 0 363 14 347 0 l 117 0 b 56 58 71 0 56 14 l 56 929 b 117 988 56 974 71 988 l 286 988 b 372 944 336 988 351 979 l 575 513 l 779 943 b 860 988 800 981 814 988 "},"N":{"ha":975,"x_min":0,"x_max":0,"o":"m 858 986 b 919 925 904 986 919 971 l 919 61 b 858 0 919 15 904 0 l 660 0 b 600 29 633 0 613 10 l 443 279 b 381 396 414 326 393 365 b 315 589 368 425 346 490 l 304 589 b 349 365 328 479 343 404 b 356 185 353 326 356 267 l 356 61 b 294 0 356 15 340 0 l 117 0 b 56 61 71 0 56 15 l 56 925 b 117 986 56 971 71 986 l 329 986 b 389 958 357 986 376 976 l 569 664 b 619 572 596 621 611 590 b 647 504 624 563 632 540 b 688 404 663 467 675 433 l 700 404 b 632 646 663 528 639 608 b 619 799 624 682 619 733 l 619 925 b 681 986 619 971 635 986 "},"O":{"ha":956,"x_min":0,"x_max":0,"o":"m 35 604 b 478 1007 35 856 196 1007 b 921 604 760 1007 921 856 l 921 382 b 478 -21 921 131 760 -21 b 35 382 196 -21 35 131 m 599 622 b 478 728 599 693 558 728 b 357 622 397 728 357 693 l 357 364 b 478 258 357 293 397 258 b 599 364 558 258 599 293 "},"P":{"ha":908,"x_min":0,"x_max":0,"o":"m 513 986 b 886 626 740 986 886 854 b 515 272 886 400 743 272 l 378 272 l 378 61 b 317 0 378 15 363 0 l 117 0 b 56 61 71 0 56 15 l 56 925 b 117 986 56 971 71 986 m 474 550 b 474 708 579 542 579 717 l 378 708 l 378 550 "},"Q":{"ha":972,"x_min":0,"x_max":0,"o":"m 932 63 b 925 -24 961 28 960 6 l 796 -125 b 711 -118 764 -151 736 -150 l 618 -7 b 478 -21 569 -17 524 -21 b 35 382 196 -21 35 131 l 35 604 b 478 1007 35 856 196 1007 b 921 604 760 1007 921 856 l 921 382 b 858 150 921 290 900 213 m 357 364 b 478 258 357 293 397 258 b 599 364 558 258 599 293 l 599 622 b 478 728 599 693 558 728 b 357 622 397 728 357 693 "},"R":{"ha":925,"x_min":0,"x_max":0,"o":"m 524 986 b 886 638 746 986 886 860 b 747 350 886 506 840 410 b 793 279 764 329 779 306 l 900 76 b 858 0 924 33 907 0 l 671 0 b 532 79 597 0 558 24 l 456 246 b 385 306 436 286 413 306 l 378 306 l 378 61 b 317 0 378 15 363 0 l 117 0 b 56 61 71 0 56 15 l 56 925 b 117 986 56 971 71 986 m 554 640 b 485 708 554 681 529 708 l 378 708 l 378 567 l 485 567 b 554 640 528 567 554 597 "},"S":{"ha":908,"x_min":0,"x_max":0,"o":"m 36 696 b 150 922 36 790 74 865 b 464 1007 226 979 331 1007 b 867 821 675 1007 801 953 b 832 740 888 778 876 758 l 661 668 b 583 699 621 651 606 658 b 464 751 565 733 525 751 b 364 703 397 751 364 735 b 521 635 364 663 410 650 b 665 607 581 625 604 622 b 800 539 725 590 754 574 b 900 294 863 490 896 415 b 451 -21 899 82 690 -25 b 33 186 244 -21 83 49 b 72 265 18 229 29 250 l 232 322 b 321 294 275 339 297 335 b 456 244 340 261 385 244 b 572 293 533 244 572 256 b 433 357 572 331 529 342 b 208 414 326 375 251 393 b 36 696 93 465 36 560 "},"T":{"ha":864,"x_min":0,"x_max":0,"o":"m 789 986 b 850 925 835 986 850 971 l 850 769 b 789 708 850 724 835 708 l 593 708 l 593 61 b 532 0 593 15 578 0 l 332 0 b 271 61 286 0 271 15 l 271 708 l 75 708 b 14 769 29 708 14 724 l 14 925 b 75 986 14 971 29 986 "},"U":{"ha":964,"x_min":0,"x_max":0,"o":"m 369 357 b 482 257 369 290 407 257 b 594 357 557 257 594 290 l 594 925 b 656 986 594 971 610 986 l 856 986 b 917 925 901 986 917 971 l 917 376 b 482 -21 917 131 761 -21 b 47 376 203 -21 47 131 l 47 925 b 108 986 47 971 63 986 l 308 986 b 369 925 354 986 369 971 "},"V":{"ha":979,"x_min":0,"x_max":0,"o":"m 960 986 b 999 926 1003 986 1014 967 l 703 50 b 628 0 690 10 672 0 l 394 0 b 319 49 351 0 332 11 l 22 926 b 65 986 8 967 22 986 l 274 986 b 379 922 344 986 369 968 l 483 488 b 507 325 496 436 506 363 l 510 296 l 524 296 b 546 486 524 364 531 426 l 651 922 b 751 986 663 968 686 986 "},"W":{"ha":1332,"x_min":0,"x_max":0,"o":"m 1289 986 b 1328 928 1332 986 1339 968 l 1107 51 b 1033 0 1096 11 1076 0 l 822 0 b 747 49 778 0 757 11 l 708 251 b 679 558 690 344 681 447 l 667 558 b 632 250 663 451 650 349 l 594 51 b 519 0 583 11 564 0 l 313 0 b 238 49 269 0 244 17 l 19 928 b 58 986 8 968 15 986 l 267 986 b 349 933 321 986 339 976 l 390 631 b 407 354 401 553 407 461 l 418 354 b 443 631 418 458 426 550 l 504 933 b 585 986 514 976 535 986 l 776 986 b 857 933 826 986 850 976 l 919 631 b 946 354 931 578 939 486 l 957 354 b 975 631 960 465 965 557 l 1015 933 b 1097 986 1022 976 1043 986 "},"X":{"ha":938,"x_min":0,"x_max":0,"o":"m 943 61 b 913 0 965 28 956 0 l 690 0 b 571 54 614 0 597 6 l 474 236 l 375 54 b 256 0 351 10 335 0 l 42 0 b 11 61 -1 0 -11 24 l 292 503 l 25 929 b 54 986 4 961 15 986 l 258 986 b 378 936 336 986 356 979 l 474 763 l 567 936 b 678 986 590 982 607 986 l 900 986 b 928 929 939 986 949 961 l 658 503 "},"Y":{"ha":961,"x_min":0,"x_max":0,"o":"m 932 986 b 963 925 975 986 983 960 l 649 381 l 649 61 b 588 0 649 15 633 0 l 388 0 b 326 61 342 0 326 15 l 326 378 l 13 925 b 43 986 -8 960 0 986 l 244 986 b 324 978 282 986 308 983 b 364 933 338 972 351 957 l 489 688 l 619 933 b 660 978 632 957 646 972 b 738 986 674 983 700 986 "},"Z":{"ha":861,"x_min":0,"x_max":0,"o":"m 764 986 b 825 925 810 986 825 971 l 825 839 b 806 776 825 815 818 794 l 467 279 l 771 279 b 832 218 817 279 832 264 l 832 61 b 771 0 832 15 817 0 l 89 0 b 28 61 43 0 28 15 l 28 149 b 47 210 28 171 35 192 l 388 708 l 96 708 b 35 769 50 708 35 724 l 35 925 b 96 986 35 971 50 986 "},"[":{"ha":528,"x_min":0,"x_max":0,"o":"m 457 1189 b 511 1136 503 1189 511 1182 l 511 1022 b 457 969 511 976 503 969 l 354 969 l 354 17 l 457 17 b 511 -36 503 17 511 10 l 511 -151 b 457 -204 511 -197 503 -204 l 115 -204 b 60 -150 69 -204 60 -196 l 60 1133 b 115 1189 60 1179 69 1189 "},"\\":{"ha":725,"x_min":0,"x_max":0,"o":"m 35 936 b 71 986 22 971 32 986 l 269 986 b 343 936 313 986 328 975 l 706 -32 b 669 -83 721 -67 710 -83 l 471 -83 b 397 -32 428 -83 413 -72 "},"]":{"ha":528,"x_min":0,"x_max":0,"o":"m 413 1189 b 468 1133 458 1189 468 1179 l 468 -150 b 413 -204 468 -196 458 -204 l 71 -204 b 17 -151 25 -204 17 -197 l 17 -36 b 71 17 17 10 25 17 l 174 17 l 174 969 l 71 969 b 17 1022 25 969 17 976 l 17 1136 b 71 1189 17 1182 25 1189 "},"^":{"ha":931,"x_min":0,"x_max":0,"o":"m 531 1125 b 633 1076 585 1125 596 1117 l 892 788 b 861 722 925 744 915 722 l 672 722 b 551 772 604 722 583 729 l 474 875 l 471 875 l 389 772 b 263 722 356 729 331 722 l 86 722 b 56 788 32 722 21 747 l 313 1076 b 417 1125 347 1115 367 1125 "},"_":{"ha":714,"x_min":0,"x_max":0,"o":"m 642 0 b 703 -61 688 0 703 -15 l 703 -210 b 642 -271 703 -256 688 -271 l 72 -271 b 11 -210 26 -271 11 -256 l 11 -61 b 72 0 11 -15 26 0 "},"`":{"ha":357,"x_min":0,"x_max":0,"o":"m 133 1019 b 225 1022 157 1043 188 1044 l 417 904 b 419 851 438 890 439 872 l 368 794 b 303 789 356 781 335 779 l 46 868 b 39 924 15 878 13 897 "},"a":{"ha":740,"x_min":0,"x_max":0,"o":"m 50 599 b 371 743 101 694 208 743 b 706 436 611 743 706 635 l 706 107 b 651 19 706 53 696 38 b 367 -21 590 -7 496 -21 b 97 33 235 -21 146 -3 b 24 211 49 68 24 128 b 103 397 24 301 50 364 b 374 446 156 429 246 446 l 401 446 l 401 486 b 353 526 401 513 385 526 b 310 511 332 526 321 522 b 292 492 300 501 301 504 l 285 482 b 203 469 267 458 257 453 l 81 519 b 50 599 42 536 32 563 m 401 258 l 368 258 b 317 213 333 258 317 243 b 365 169 317 183 333 169 b 397 171 379 169 390 169 b 401 175 400 171 401 172 "},"b":{"ha":765,"x_min":0,"x_max":0,"o":"m 294 1026 b 350 971 335 1026 350 1014 l 350 740 b 411 743 376 742 396 743 b 736 433 629 743 736 633 l 736 306 b 385 -21 736 93 618 -21 b 100 28 267 -21 172 -4 b 44 113 51 51 44 63 l 44 971 b 100 1026 44 1014 60 1026 m 431 447 b 388 485 431 472 417 485 l 350 479 l 350 249 b 353 243 350 246 351 244 b 383 239 358 240 368 239 b 431 281 415 239 431 253 "},"c":{"ha":729,"x_min":0,"x_max":0,"o":"m 29 426 b 386 743 29 626 147 743 b 707 542 557 743 664 663 b 669 465 722 499 713 481 l 501 410 b 422 447 457 394 439 404 b 371 493 407 485 394 493 b 333 443 346 493 333 476 l 333 279 b 371 231 333 247 346 231 b 422 274 397 231 407 236 b 501 310 439 317 457 325 l 675 258 b 713 178 717 246 729 219 b 371 -21 657 46 543 -21 b 29 297 139 -21 29 93 "},"d":{"ha":765,"x_min":0,"x_max":0,"o":"m 29 418 b 356 743 29 629 143 743 b 415 742 371 743 403 742 l 415 972 b 471 1028 415 1013 428 1028 l 665 1028 b 721 972 708 1028 721 1013 l 721 113 b 661 31 721 64 710 51 b 364 -21 576 -4 476 -21 b 29 290 140 -21 29 90 m 415 481 b 382 485 404 483 393 485 b 335 443 350 485 335 471 l 335 276 b 378 239 335 251 349 239 l 411 242 b 415 249 414 243 415 244 "},"e":{"ha":771,"x_min":0,"x_max":0,"o":"m 28 411 b 389 743 28 626 156 743 b 658 654 507 743 597 714 b 750 428 719 594 750 519 l 750 360 b 671 285 750 310 724 285 l 333 285 l 333 267 b 392 196 333 219 353 196 b 481 242 426 196 457 211 b 557 253 499 265 506 269 l 678 203 b 708 124 717 186 726 160 b 388 -21 657 28 550 -21 b 28 313 142 -21 28 111 m 444 482 b 389 543 444 525 432 543 b 333 482 349 543 333 525 l 333 469 l 444 469 "},"f":{"ha":549,"x_min":0,"x_max":0,"o":"m 478 1028 b 535 971 521 1028 535 1014 l 535 850 b 478 793 535 807 521 793 b 414 728 435 793 414 771 l 414 722 l 479 722 b 535 667 522 722 535 707 l 535 543 b 479 488 535 500 522 488 l 414 488 l 414 56 b 357 0 414 13 400 0 l 165 0 b 108 56 122 0 108 13 l 108 488 l 78 488 b 22 543 38 488 22 500 l 22 667 b 78 722 22 707 38 722 l 108 722 l 108 725 b 446 1028 108 926 221 1028 "},"g":{"ha":764,"x_min":0,"x_max":0,"o":"m 39 417 b 390 743 39 629 157 743 b 675 694 508 743 603 726 b 731 610 724 672 731 660 l 731 14 b 381 -319 731 -190 621 -319 b 60 -175 219 -319 125 -275 b 90 -96 39 -142 49 -115 l 243 -22 b 313 -33 272 -8 296 -12 b 339 -65 314 -37 332 -60 b 379 -81 344 -71 363 -81 b 425 -28 410 -81 425 -62 l 425 22 b 364 19 399 21 379 19 b 39 329 146 19 39 129 m 421 481 b 392 483 417 482 407 483 b 344 442 360 483 344 469 l 344 315 b 388 278 344 290 358 278 l 425 283 l 425 475 b 421 481 425 476 424 479 "},"h":{"ha":776,"x_min":0,"x_max":0,"o":"m 296 1028 b 351 972 339 1028 351 1013 l 351 742 b 413 743 364 743 385 743 b 738 432 631 743 738 632 l 738 56 b 682 0 738 15 725 0 l 488 0 b 432 56 444 0 432 15 l 432 418 b 382 469 432 457 419 469 b 351 468 368 469 358 469 l 351 56 b 296 0 351 15 339 0 l 101 0 b 46 56 58 0 46 15 l 46 972 b 101 1028 46 1013 58 1028 "},"i":{"ha":397,"x_min":0,"x_max":0,"o":"m 253 1007 b 360 900 335 1007 360 982 l 360 885 b 253 778 360 803 335 778 l 144 778 b 38 885 63 778 38 803 l 38 900 b 144 1007 38 982 63 1007 m 296 722 b 351 667 339 722 351 707 l 351 56 b 296 0 351 15 339 0 l 101 0 b 46 56 58 0 46 15 l 46 667 b 101 722 46 707 58 722 "},"j":{"ha":399,"x_min":0,"x_max":0,"o":"m 253 1007 b 360 900 335 1007 360 982 l 360 885 b 253 778 360 803 335 778 l 144 778 b 38 885 63 778 38 803 l 38 900 b 144 1007 38 982 63 1007 m 294 722 b 351 667 338 722 351 710 l 351 -17 b -18 -319 351 -235 232 -319 b -75 -262 -61 -319 -75 -306 l -75 -114 b -18 -57 -75 -71 -61 -57 b 46 8 25 -57 46 -35 l 46 667 b 103 722 46 710 60 722 "},"k":{"ha":790,"x_min":0,"x_max":0,"o":"m 765 78 b 714 0 792 26 775 0 l 556 0 b 446 57 485 0 461 11 l 393 221 b 354 250 386 240 374 250 l 350 250 l 350 56 b 296 0 350 15 336 0 l 100 0 b 46 56 60 0 46 13 l 46 972 b 100 1028 46 1015 60 1028 l 296 1028 b 350 972 336 1028 350 1013 l 350 485 l 365 485 l 372 485 l 450 664 b 551 722 471 710 490 722 l 704 722 b 756 647 761 722 779 697 l 626 364 l 640 338 "},"l":{"ha":397,"x_min":0,"x_max":0,"o":"m 351 56 b 296 0 351 15 339 0 l 101 0 b 46 56 58 0 46 15 l 46 972 b 101 1028 46 1013 58 1028 l 296 1028 b 351 972 339 1028 351 1013 "},"m":{"ha":1115,"x_min":0,"x_max":0,"o":"m 569 710 b 763 743 631 732 694 743 b 1076 432 972 743 1076 639 l 1076 56 b 1021 0 1076 15 1064 0 l 826 0 b 771 56 783 0 771 15 l 771 424 b 732 469 771 457 761 469 b 711 468 724 469 717 469 b 713 425 713 458 713 444 l 713 56 b 657 0 713 15 700 0 l 463 0 b 407 56 419 0 407 15 l 407 424 b 368 469 407 457 397 469 l 354 469 b 349 461 350 469 349 467 l 349 56 b 293 0 349 15 336 0 l 99 0 b 43 56 56 0 43 15 l 43 603 b 103 689 43 653 54 671 b 399 743 193 725 292 743 b 569 710 467 743 524 732 "},"n":{"ha":774,"x_min":0,"x_max":0,"o":"m 103 689 b 410 743 193 725 296 743 b 735 432 628 743 735 632 l 735 56 b 679 0 735 15 722 0 l 485 0 b 429 56 442 0 429 15 l 429 418 b 379 469 429 457 417 469 b 353 468 367 469 358 469 b 349 463 350 467 349 465 l 349 56 b 293 0 349 15 336 0 l 99 0 b 43 56 56 0 43 15 l 43 603 b 103 689 43 653 54 671 "},"o":{"ha":774,"x_min":0,"x_max":0,"o":"m 29 428 b 386 743 29 626 157 743 b 744 428 619 743 744 626 l 744 294 b 386 -21 744 96 619 -21 b 29 294 157 -21 29 96 m 440 440 b 386 486 440 471 422 486 b 333 440 351 486 333 471 l 333 282 b 386 238 333 253 351 238 b 440 282 422 238 440 253 "},"p":{"ha":765,"x_min":0,"x_max":0,"o":"m 104 692 b 401 743 190 726 289 743 b 653 663 514 743 597 717 b 736 432 708 608 736 532 l 736 304 b 410 -21 736 93 622 -21 b 350 -19 394 -21 363 -19 l 350 -249 b 294 -304 350 -292 335 -304 l 100 -304 b 44 -249 60 -304 44 -292 l 44 610 b 104 692 44 658 56 671 m 431 446 b 388 483 431 471 417 483 l 356 479 b 350 472 351 478 350 476 l 350 242 b 383 238 361 239 372 238 b 431 279 415 238 431 251 "},"q":{"ha":765,"x_min":0,"x_max":0,"o":"m 381 743 b 665 694 499 743 593 726 b 721 610 714 671 721 660 l 721 -249 b 665 -304 721 -292 708 -304 l 471 -304 b 415 -249 428 -304 415 -292 l 415 -18 b 354 -21 389 -19 369 -21 b 29 289 136 -21 29 89 l 29 417 b 381 743 29 629 147 743 m 335 275 b 378 238 335 250 349 238 l 415 243 l 415 472 b 410 481 415 476 414 479 b 382 483 403 482 393 483 b 335 442 350 483 335 469 "},"r":{"ha":508,"x_min":0,"x_max":0,"o":"m 400 743 l 442 743 b 497 688 482 743 497 731 l 497 539 b 442 483 497 499 482 483 l 388 483 b 357 482 374 483 364 483 b 350 474 353 482 350 479 l 350 56 b 294 0 350 15 335 0 l 100 0 b 44 56 60 0 44 15 l 44 610 b 104 697 44 660 56 679 b 400 743 172 724 271 739 "},"s":{"ha":731,"x_min":0,"x_max":0,"o":"m 50 501 b 372 743 50 653 161 743 b 706 594 556 743 649 694 b 675 515 725 560 715 533 l 547 460 b 472 476 497 435 494 461 b 392 503 451 494 424 503 b 319 476 331 503 319 497 b 414 446 319 458 335 451 b 664 383 535 438 618 417 b 732 228 710 349 732 297 b 394 -21 732 72 611 -21 b 50 144 208 -21 93 35 b 85 219 35 182 47 207 l 219 268 b 297 254 275 281 279 276 b 381 219 315 231 343 219 b 463 250 446 219 463 228 b 344 286 463 276 449 282 b 50 501 143 296 50 357 "},"t":{"ha":558,"x_min":0,"x_max":0,"o":"m 358 889 b 414 833 399 889 414 874 l 414 722 l 481 722 b 535 667 521 722 535 707 l 535 543 b 481 488 535 503 521 488 l 414 488 l 414 310 b 478 244 414 267 435 244 b 535 188 521 244 535 231 l 535 39 b 478 -18 535 -4 521 -18 b 108 285 228 -18 108 67 l 108 488 l 61 488 b 7 543 21 488 7 500 l 7 667 b 61 722 7 710 21 722 l 108 722 l 108 833 b 164 889 108 874 124 889 "},"u":{"ha":774,"x_min":0,"x_max":0,"o":"m 675 722 b 731 667 715 722 731 707 l 731 119 b 671 33 731 69 719 51 b 364 -21 581 -3 479 -21 b 39 290 146 -21 39 90 l 39 667 b 94 722 39 707 54 722 l 289 722 b 344 667 329 722 344 707 l 344 304 b 394 253 344 265 357 253 b 417 254 401 253 410 253 b 425 265 422 256 425 258 l 425 667 b 481 722 425 707 440 722 "},"v":{"ha":788,"x_min":0,"x_max":0,"o":"m 742 722 b 788 658 796 722 804 710 l 582 49 b 507 0 567 11 550 0 l 289 0 b 213 49 246 0 228 11 l 21 658 b 67 722 6 710 15 722 l 247 722 b 332 667 304 722 321 713 l 382 454 b 397 297 392 414 397 340 l 397 265 l 411 265 b 426 454 411 344 417 407 l 472 665 b 551 722 482 714 492 722 "},"w":{"ha":1113,"x_min":0,"x_max":0,"o":"m 1063 722 b 1108 658 1114 722 1124 708 l 954 49 b 879 0 944 17 919 0 l 689 0 b 613 49 643 0 618 17 l 594 147 b 572 339 585 201 576 289 l 569 375 l 557 375 b 526 147 550 283 539 207 l 506 49 b 431 0 499 17 474 0 l 256 0 b 179 49 214 0 189 17 l 21 658 b 67 722 6 708 15 722 l 244 722 b 331 667 310 722 324 713 l 349 535 b 358 442 353 513 356 482 b 361 336 360 401 361 365 l 363 293 l 375 293 b 393 535 379 403 385 483 l 414 665 b 506 722 419 714 438 722 l 629 722 b 719 667 696 722 713 713 l 742 535 b 751 442 746 513 749 482 b 757 336 754 401 756 365 l 758 293 l 772 293 b 786 535 775 403 779 483 l 803 665 b 890 722 808 714 822 722 "},"x":{"ha":803,"x_min":0,"x_max":0,"o":"m 757 722 b 794 657 811 722 824 700 l 610 372 l 807 65 b 767 0 836 19 828 0 l 585 0 b 485 47 519 0 506 4 l 419 183 l 356 47 b 256 0 335 4 318 0 l 75 0 b 33 65 10 0 1 21 l 233 371 l 43 657 b 86 722 14 700 29 722 l 264 722 b 367 675 326 722 346 715 l 422 564 l 476 675 b 572 722 499 718 511 722 "},"y":{"ha":776,"x_min":0,"x_max":0,"o":"m 686 722 b 742 667 726 722 742 707 l 742 14 b 392 -319 742 -190 632 -319 b 71 -175 231 -319 136 -275 b 101 -96 50 -142 60 -115 l 254 -22 b 328 -39 296 -1 311 -17 b 390 -81 347 -67 368 -81 b 436 -28 421 -81 436 -62 l 436 22 b 375 21 424 21 403 21 b 50 332 157 21 50 132 l 50 667 b 106 722 50 707 65 722 l 300 722 b 356 667 340 722 356 707 l 356 346 b 406 294 356 307 368 294 b 436 296 419 294 429 294 l 436 667 b 492 722 436 707 451 722 "},"z":{"ha":699,"x_min":0,"x_max":0,"o":"m 614 253 b 669 199 654 253 669 239 l 669 56 b 614 0 669 15 654 0 l 86 0 b 31 56 46 0 31 15 l 31 189 b 54 247 31 221 33 226 l 275 469 l 93 469 b 39 524 53 469 39 483 l 39 667 b 93 722 39 710 53 722 l 607 722 b 661 667 647 722 661 707 l 661 533 b 626 464 661 500 654 490 l 397 253 "},"{":{"ha":617,"x_min":0,"x_max":0,"o":"m 542 1189 b 596 1135 582 1189 596 1175 l 596 986 b 542 932 596 946 582 932 l 474 932 b 438 897 453 932 438 918 l 438 685 b 328 489 438 599 401 533 b 438 292 401 458 438 393 l 438 88 b 472 53 438 67 454 53 l 542 53 b 596 -1 582 53 596 39 l 596 -150 b 542 -204 596 -190 582 -204 l 367 -204 b 144 1 204 -204 144 -144 l 144 226 b 54 347 144 307 114 347 l 46 347 b 0 401 15 347 0 365 l 0 574 b 46 629 0 613 13 629 l 54 629 b 144 750 114 629 144 669 l 144 982 b 363 1189 144 1128 203 1189 "},"|":{"ha":415,"x_min":0,"x_max":0,"o":"m 301 1189 b 356 1135 342 1189 356 1175 l 356 -150 b 301 -204 356 -190 342 -204 l 115 -204 b 60 -150 75 -204 60 -190 l 60 1135 b 115 1189 60 1175 75 1189 "},"}":{"ha":617,"x_min":0,"x_max":0,"o":"m 254 1189 b 472 982 414 1189 472 1128 l 472 750 b 563 629 472 669 503 629 l 571 629 b 617 574 604 629 617 613 l 617 401 b 571 347 617 365 601 347 l 563 347 b 472 226 503 347 472 307 l 472 1 b 250 -204 472 -144 413 -204 l 75 -204 b 21 -150 35 -204 21 -190 l 21 -1 b 75 53 21 39 35 53 l 144 53 b 179 88 163 53 179 67 l 179 292 b 289 489 179 393 215 458 b 179 685 215 533 179 599 l 179 897 b 143 932 179 918 164 932 l 75 932 b 21 986 35 932 21 946 l 21 1135 b 75 1189 21 1175 35 1189 "},"~":{"ha":807,"x_min":0,"x_max":0,"o":"m 100 525 b 290 599 154 574 217 599 b 425 574 333 599 378 590 b 528 549 471 557 506 549 b 608 578 557 549 585 558 b 688 575 643 606 654 604 l 800 471 b 800 385 832 442 832 413 b 610 311 746 336 683 311 b 476 336 567 311 522 319 b 372 360 429 351 394 360 b 292 332 342 360 315 350 b 213 335 254 304 246 306 l 100 439 b 100 525 68 468 68 497 "},"¡":{"ha":413,"x_min":0,"x_max":0,"o":"m 151 436 b 38 549 64 436 38 464 l 38 619 b 151 732 38 704 64 732 l 260 732 b 374 619 347 732 374 704 l 374 549 b 260 436 374 464 347 436 m 107 -306 b 51 -251 64 -306 50 -292 l 75 328 b 129 383 76 371 89 383 l 283 383 b 338 328 324 383 336 371 l 363 -251 b 307 -306 364 -292 350 -306 "},"¢":{"ha":764,"x_min":0,"x_max":0,"o":"m 689 258 b 726 178 731 246 743 219 b 528 -3 686 85 621 25 l 528 -60 b 472 -115 528 -103 513 -115 l 319 -115 b 264 -60 279 -115 264 -103 l 264 -8 b 43 297 117 26 43 129 l 43 426 b 264 728 43 589 117 690 l 264 790 b 319 846 264 833 279 846 l 472 846 b 528 790 513 846 528 833 l 528 725 b 721 542 624 696 688 635 b 683 465 736 499 726 481 l 515 410 b 436 447 471 394 453 404 b 385 493 421 485 408 493 b 347 443 360 493 347 476 l 347 279 b 385 231 347 247 360 231 b 436 274 411 231 421 236 b 515 310 453 317 471 325 "},"£":{"ha":960,"x_min":0,"x_max":0,"o":"m 139 679 b 242 915 139 775 174 853 b 519 1007 310 976 401 1007 b 922 756 721 1007 856 924 b 885 678 938 713 928 693 l 699 608 b 621 647 654 593 643 601 b 529 728 592 708 569 728 b 464 665 486 728 464 707 l 464 551 l 667 551 b 728 490 713 551 728 536 l 728 392 b 667 331 728 346 713 331 l 453 331 l 453 326 b 399 243 449 292 431 264 l 403 235 b 606 264 458 254 526 264 l 857 264 b 918 203 903 264 918 249 l 918 61 b 857 0 918 15 903 0 l 100 0 b 39 61 54 0 39 15 l 39 203 b 67 260 39 238 49 256 l 76 263 b 131 321 108 272 126 292 l 131 331 l 100 331 b 39 392 54 331 39 346 l 39 490 b 100 551 39 536 54 551 l 139 551 "},"¤":{"ha":922,"x_min":0,"x_max":0,"o":"m 868 264 b 868 186 897 235 897 215 l 743 61 b 665 61 714 32 694 32 l 583 143 b 339 143 504 114 422 114 l 257 61 b 179 61 228 32 208 32 l 54 186 b 54 264 25 215 25 235 l 138 347 b 138 589 108 426 108 510 l 54 672 b 54 750 25 701 25 721 l 179 875 b 257 875 208 904 228 904 l 339 793 b 583 793 422 822 504 822 l 665 875 b 743 875 694 904 714 904 l 868 750 b 868 672 897 721 897 701 l 788 592 b 788 344 817 508 817 428 m 526 532 b 369 468 474 590 369 546 b 463 376 374 417 413 376 b 553 468 513 376 553 417 b 526 532 553 493 544 514 "},"¥":{"ha":1017,"x_min":0,"x_max":0,"o":"m 961 986 b 992 925 1004 986 1015 958 l 746 560 l 811 560 b 865 506 851 560 865 546 l 865 425 b 811 371 865 385 851 371 l 668 371 l 668 331 l 811 331 b 865 276 851 331 865 317 l 865 196 b 811 142 865 156 851 142 l 678 142 l 678 61 b 617 0 678 15 663 0 l 417 0 b 356 61 371 0 356 15 l 356 142 l 221 142 b 167 196 181 142 167 156 l 167 276 b 221 331 167 317 181 331 l 365 331 l 365 371 l 221 371 b 167 425 181 371 167 385 l 167 506 b 221 560 167 546 181 560 l 286 560 l 42 925 b 72 986 18 958 29 986 l 274 986 b 353 978 311 986 338 983 b 393 933 367 972 381 957 l 518 688 l 649 933 b 689 978 661 957 675 972 b 767 986 703 983 729 986 "},"¦":{"ha":421,"x_min":0,"x_max":0,"o":"m 304 1189 b 358 1133 344 1189 358 1176 l 358 613 b 304 558 358 569 347 558 l 118 558 b 63 613 75 558 63 572 l 63 1133 b 118 1189 63 1174 75 1189 m 304 428 b 358 374 344 428 358 414 l 358 -149 b 304 -203 358 -189 344 -203 l 118 -203 b 63 -149 78 -203 63 -189 l 63 374 b 118 428 63 414 78 428 "},"§":{"ha":876,"x_min":0,"x_max":0,"o":"m 85 725 b 472 1007 85 913 214 1007 b 838 814 665 1007 775 949 b 803 728 858 771 849 749 l 674 672 b 589 704 633 654 613 660 b 471 765 563 756 528 765 b 404 718 426 765 404 750 b 496 660 404 694 435 675 b 549 647 500 658 518 654 b 610 632 578 640 599 635 b 667 614 619 629 639 624 b 726 586 693 604 714 594 b 818 504 751 569 800 538 b 854 367 836 471 854 422 b 769 183 854 290 826 229 b 861 -22 831 140 861 72 b 460 -306 861 -196 717 -306 b 61 -93 249 -306 115 -235 b 103 -11 46 -56 60 -28 l 239 43 b 322 4 285 61 301 53 b 449 -64 344 -50 372 -64 b 535 -11 506 -64 535 -46 b 461 39 535 11 510 28 b 388 53 449 42 425 46 b 299 71 350 60 321 65 b 215 99 275 75 247 85 b 64 322 122 136 71 197 b 179 525 64 410 103 478 b 85 725 117 565 85 632 m 451 432 b 428 438 446 433 433 438 b 390 347 400 407 388 376 b 479 265 394 304 424 276 b 501 263 489 264 496 263 b 532 349 525 290 536 319 b 451 432 528 389 501 417 "},"¨":{"ha":610,"x_min":0,"x_max":0,"o":"m 151 1032 b 265 922 239 1032 265 1006 l 265 901 b 151 792 265 819 236 792 l 140 792 b 29 901 56 792 29 819 l 29 922 b 140 1032 29 1006 56 1032 m 461 1032 b 574 922 546 1032 574 1006 l 574 901 b 461 792 574 819 546 792 l 451 792 b 338 901 367 792 338 819 l 338 922 b 451 1032 338 1006 364 1032 "},"©":{"ha":1063,"x_min":0,"x_max":0,"o":"m 31 486 b 176 842 31 626 79 744 b 532 986 274 938 392 986 b 886 842 672 986 790 938 b 1031 486 982 744 1031 626 b 886 132 1031 346 982 228 b 532 -14 790 35 672 -14 b 176 132 392 -14 274 35 b 31 486 79 229 31 347 m 856 486 b 763 718 856 579 825 656 b 532 811 700 781 624 811 b 300 718 439 811 363 781 b 206 486 238 656 206 579 b 300 254 206 394 238 317 b 532 160 363 192 439 160 b 763 254 622 160 700 192 b 856 486 825 317 856 394 m 307 551 b 531 761 307 681 388 761 b 751 618 649 761 722 714 b 726 551 764 574 760 563 l 644 524 b 588 554 611 513 603 517 b 531 592 578 579 560 592 b 479 553 496 592 479 579 l 479 417 b 531 376 479 390 496 376 b 588 415 558 376 578 389 b 644 446 603 453 611 457 l 726 418 b 751 351 760 407 764 396 b 531 208 722 256 649 208 b 307 417 388 208 307 289 "},"ª":{"ha":490,"x_min":0,"x_max":0,"o":"m 60 861 b 253 938 99 913 163 938 b 460 758 390 938 460 878 l 460 579 b 401 507 460 539 447 522 b 250 486 360 493 310 486 b 39 618 90 486 39 531 b 253 754 39 707 96 754 l 261 754 l 261 779 b 221 785 261 806 238 803 b 138 769 189 753 176 751 l 78 799 b 60 861 46 814 40 835 m 261 649 l 250 649 b 232 629 238 649 232 642 b 250 608 232 615 238 608 l 260 608 b 261 610 261 608 261 608 "},"«":{"ha":926,"x_min":0,"x_max":0,"o":"m 511 215 b 511 147 535 193 535 171 l 418 53 b 350 53 396 29 374 29 l 72 329 b 72 399 49 351 49 375 l 357 685 b 426 685 381 708 403 708 l 515 594 b 515 526 542 568 542 550 l 357 368 m 900 215 b 900 147 924 193 924 171 l 807 53 b 739 53 785 29 763 29 l 461 329 b 461 399 438 351 438 375 l 746 685 b 815 685 769 708 792 708 l 904 594 b 904 526 931 568 931 550 l 746 368 "},"¬":{"ha":836,"x_min":0,"x_max":0,"o":"m 726 593 b 781 538 767 593 781 578 l 781 219 b 726 164 781 179 767 164 l 532 164 b 478 219 492 164 478 179 l 478 329 l 94 329 b 40 385 54 329 40 344 l 40 538 b 94 593 40 578 54 593 "},"®":{"ha":626,"x_min":0,"x_max":0,"o":"m 29 717 b 114 917 29 793 57 860 b 314 1000 169 972 236 1000 b 513 917 390 1000 457 972 b 596 717 568 860 596 793 b 514 517 596 639 568 572 b 314 433 458 461 392 433 b 114 517 236 433 169 461 b 29 717 57 572 29 639 m 179 851 b 124 717 142 814 124 769 b 179 582 124 664 142 619 b 315 525 217 544 261 525 b 449 582 367 525 411 544 b 504 717 486 619 504 664 b 449 851 504 769 486 814 b 315 907 411 889 367 907 b 179 851 261 907 217 889 m 336 857 b 446 751 403 857 446 817 b 404 665 446 711 432 683 l 433 625 b 407 576 456 592 450 576 l 371 576 b 328 600 344 576 340 579 l 297 649 l 292 649 l 292 600 b 268 576 292 582 286 576 l 219 576 b 193 600 199 576 193 582 l 193 829 b 219 857 193 851 199 857 m 292 736 l 328 736 b 343 751 338 736 343 742 b 328 765 343 761 338 765 l 292 765 "},"¯":{"ha":489,"x_min":0,"x_max":0,"o":"m 422 990 b 475 939 465 990 475 979 l 475 868 b 422 817 475 828 465 817 l 71 817 b 19 868 31 817 19 828 l 19 939 b 71 990 19 979 33 990 "},"°":{"ha":601,"x_min":0,"x_max":0,"o":"m 585 771 b 503 569 585 692 557 625 b 301 486 447 514 381 486 b 99 568 221 486 153 514 b 17 771 44 622 17 690 b 99 975 17 853 44 921 b 301 1054 153 1028 219 1054 b 504 975 382 1054 450 1028 b 585 771 558 921 585 853 m 249 824 b 249 718 219 793 219 746 b 354 718 278 689 325 689 b 354 824 383 746 383 793 b 249 824 325 854 278 854 "},"±":{"ha":824,"x_min":0,"x_max":0,"o":"m 711 746 b 772 685 757 746 772 731 l 772 544 b 711 483 772 499 757 483 l 542 483 l 542 411 b 481 350 542 365 526 350 l 340 350 b 279 411 294 350 279 365 l 279 483 l 111 483 b 50 544 65 483 50 499 l 50 685 b 111 746 50 731 65 746 l 279 746 l 279 817 b 340 878 279 863 294 878 l 481 878 b 542 817 526 878 542 863 l 542 746 m 713 318 b 774 257 758 318 774 303 l 774 107 b 713 46 774 61 758 46 l 113 46 b 51 107 67 46 51 61 l 51 257 b 113 318 51 303 67 318 "},"²":{"ha":529,"x_min":0,"x_max":0,"o":"m 42 983 b 281 1115 79 1071 149 1115 b 507 942 421 1115 507 1053 b 386 756 507 839 467 776 l 335 740 b 314 729 321 738 314 733 l 314 728 l 446 728 b 497 679 486 728 497 717 l 497 603 b 450 556 497 568 488 556 l 85 556 b 35 603 46 556 35 568 l 35 654 b 174 838 35 758 67 804 l 247 861 b 289 911 275 871 289 888 b 265 936 289 928 281 936 b 222 906 247 936 233 926 b 153 874 200 868 196 863 l 68 904 b 42 983 29 917 24 939 "},"³":{"ha":538,"x_min":0,"x_max":0,"o":"m 44 993 b 289 1126 76 1082 157 1126 b 511 961 432 1126 511 1067 b 458 849 511 913 493 875 b 528 724 504 825 528 783 b 289 556 528 618 446 556 b 35 689 149 556 64 593 b 56 749 25 719 32 739 l 128 775 b 201 749 174 790 183 783 b 275 714 214 725 238 714 b 317 735 303 714 317 721 b 275 763 317 756 308 763 l 236 763 b 204 797 210 763 204 769 l 204 886 b 240 922 204 913 211 922 l 268 922 b 308 949 294 922 308 931 b 268 974 308 965 294 974 b 196 928 236 974 211 958 b 131 906 181 900 171 893 l 64 936 b 44 993 40 946 35 964 "},"´":{"ha":357,"x_min":0,"x_max":0,"o":"m 222 1022 b 314 1019 260 1044 290 1043 l 408 924 b 401 868 435 897 432 878 l 144 789 b 79 794 113 779 92 781 l 28 851 b 31 904 8 872 10 890 "},"µ":{"ha":799,"x_min":0,"x_max":0,"o":"m 692 722 b 747 667 732 722 747 707 l 747 119 b 707 43 747 93 733 67 b 496 -21 661 4 568 -21 b 361 0 449 -21 404 -14 l 361 -250 b 306 -306 361 -290 346 -306 l 111 -306 b 56 -250 71 -306 56 -290 l 56 667 b 111 722 56 707 71 722 l 306 722 b 361 667 346 722 361 707 l 361 304 b 411 253 361 265 374 253 b 431 254 418 253 424 253 b 442 265 438 256 442 260 l 442 667 b 497 722 442 707 457 722 "},"¶":{"ha":1035,"x_min":0,"x_max":0,"o":"m 910 986 b 965 931 953 986 965 971 l 965 -68 b 910 -124 965 -111 953 -124 l 758 -124 b 703 -68 718 -124 703 -111 l 703 708 l 640 708 l 640 -68 b 585 -124 640 -111 628 -124 l 433 -124 b 378 -68 393 -124 378 -111 l 378 274 b 124 374 274 275 189 308 b 26 629 58 439 26 525 b 125 888 26 736 60 822 b 382 986 190 953 276 986 "},"·":{"ha":403,"x_min":0,"x_max":0,"o":"m 242 603 b 356 489 326 603 356 574 l 356 404 b 242 292 356 319 326 292 l 161 292 b 47 404 76 292 47 319 l 47 489 b 161 603 47 574 76 603 "},"¸":{"ha":349,"x_min":0,"x_max":0,"o":"m 238 -60 l 251 -60 b 365 -200 333 -61 375 -121 b 147 -340 354 -293 282 -340 b 39 -325 107 -340 71 -335 b -4 -282 10 -315 -4 -301 l -4 -218 b 51 -193 -4 -182 14 -174 b 131 -215 78 -208 104 -215 b 171 -187 157 -215 171 -206 b 107 -160 171 -167 157 -160 l 79 -160 b 61 -115 53 -160 47 -144 l 113 0 l 260 0 "},"¹":{"ha":422,"x_min":0,"x_max":0,"o":"m 333 1115 b 403 1054 394 1115 403 1106 l 403 622 b 342 567 403 582 388 567 l 249 567 b 189 622 203 567 189 582 l 189 868 l 160 851 b 78 871 117 829 100 836 l 38 938 b 57 1010 19 968 25 992 l 211 1099 b 278 1115 231 1110 253 1115 "},"º":{"ha":481,"x_min":0,"x_max":0,"o":"m 31 750 b 240 939 31 868 106 939 b 451 750 378 939 451 868 l 451 672 b 240 486 451 556 378 486 b 31 672 106 486 31 556 m 265 751 b 240 772 265 765 257 772 b 215 751 224 772 215 765 l 215 674 b 240 653 215 660 224 653 b 265 674 257 653 265 660 "},"»":{"ha":926,"x_min":0,"x_max":0,"o":"m 69 526 b 69 594 46 550 46 568 l 158 685 b 228 685 182 708 204 708 l 513 399 b 513 329 536 375 536 351 l 235 53 b 167 53 211 29 189 29 l 74 147 b 74 215 50 171 50 193 l 228 368 m 458 526 b 458 594 435 550 435 568 l 547 685 b 617 685 571 708 593 708 l 901 399 b 901 329 925 375 925 351 l 624 53 b 556 53 600 29 578 29 l 463 147 b 463 215 439 171 439 193 l 617 368 "},"¼":{"ha":1239,"x_min":0,"x_max":0,"o":"m 1069 986 b 1099 929 1114 986 1122 963 l 456 54 b 410 10 438 31 422 15 b 336 0 397 3 372 0 l 224 0 b 193 61 181 0 167 26 l 838 936 b 881 978 853 958 868 972 b 950 986 893 983 917 986 m 358 982 b 428 921 419 982 428 972 l 428 489 b 367 433 428 449 413 433 l 274 433 b 214 489 228 433 214 449 l 214 735 l 185 718 b 103 738 142 696 125 703 l 63 804 b 82 876 44 835 50 858 l 236 965 b 303 982 256 976 278 982 m 1110 549 b 1172 489 1156 549 1172 533 l 1172 250 l 1188 250 b 1233 210 1225 250 1233 239 l 1233 133 b 1188 90 1233 101 1225 90 l 1172 90 l 1172 49 b 1128 0 1172 17 1157 0 l 1018 0 b 975 49 989 0 975 17 l 975 90 l 756 90 b 704 139 717 90 704 106 l 704 183 b 725 250 704 213 711 235 l 946 510 b 1038 549 974 543 988 549 m 911 250 l 975 250 l 975 325 "},"½":{"ha":1242,"x_min":0,"x_max":0,"o":"m 1049 986 b 1078 929 1093 986 1101 963 l 435 54 b 389 10 417 31 401 15 b 315 0 376 3 351 0 l 203 0 b 172 61 160 0 146 26 l 817 936 b 860 978 832 958 847 972 b 929 986 872 983 896 986 m 358 982 b 428 921 419 982 428 972 l 428 489 b 367 433 428 449 413 433 l 274 433 b 214 489 228 433 214 449 l 214 735 l 185 718 b 103 738 142 696 125 703 l 63 804 b 82 876 44 835 50 858 l 236 965 b 303 982 256 976 278 982 m 765 428 b 1004 560 803 515 872 560 b 1231 386 1144 560 1231 497 b 1110 200 1231 283 1190 221 l 1058 185 b 1038 174 1044 182 1038 178 l 1038 172 l 1169 172 b 1221 124 1210 172 1221 161 l 1221 47 b 1174 0 1221 13 1211 0 l 808 0 b 758 47 769 0 758 13 l 758 99 b 897 282 758 203 790 249 l 971 306 b 1013 356 999 315 1013 332 b 989 381 1013 372 1004 381 b 946 350 971 381 957 371 b 876 318 924 313 919 307 l 792 349 b 765 428 753 361 747 383 "},"¾":{"ha":1256,"x_min":0,"x_max":0,"o":"m 57 874 b 301 1007 89 963 169 1007 b 524 842 444 1007 524 947 b 471 729 524 793 506 756 b 540 596 517 697 540 653 b 301 436 540 489 461 436 b 47 569 161 436 76 474 b 68 629 38 600 44 619 l 140 656 b 214 629 186 671 196 664 b 288 594 226 606 250 594 b 329 615 315 594 329 601 b 288 643 329 636 321 643 l 249 643 b 217 678 222 643 217 650 l 217 767 b 253 803 217 793 224 803 l 281 803 b 321 829 307 803 321 811 b 281 854 321 846 307 854 b 208 808 247 854 224 839 b 143 786 193 781 183 774 l 76 817 b 57 874 53 826 47 844 m 1104 986 b 1133 929 1149 986 1157 963 l 490 54 b 444 10 472 31 457 15 b 371 0 432 3 407 0 l 258 0 b 228 61 215 0 201 26 l 872 936 b 915 978 888 958 903 972 b 985 986 928 983 951 986 m 1117 549 b 1179 489 1163 549 1179 533 l 1179 250 l 1194 250 b 1240 210 1232 250 1240 239 l 1240 133 b 1194 90 1240 101 1232 90 l 1179 90 l 1179 49 b 1135 0 1179 17 1164 0 l 1025 0 b 982 49 996 0 982 17 l 982 90 l 763 90 b 711 139 724 90 711 106 l 711 183 b 732 250 711 213 718 235 l 953 510 b 1044 549 981 543 994 549 m 982 250 l 982 325 l 918 250 "},"¿":{"ha":838,"x_min":0,"x_max":0,"o":"m 400 433 b 286 546 313 433 286 461 l 286 617 b 400 729 286 701 313 729 l 508 729 b 622 617 596 729 622 701 l 622 546 b 508 433 622 461 596 433 m 810 -57 b 407 -308 742 -225 608 -308 b 26 -19 168 -308 26 -197 b 119 179 26 71 75 146 b 207 233 142 194 171 213 b 276 276 242 254 265 268 b 315 340 303 296 315 317 b 374 399 315 385 331 399 l 540 399 b 599 340 583 399 599 385 b 489 117 599 233 563 160 b 390 64 467 104 411 76 b 344 -19 368 51 344 19 b 407 -74 344 -56 365 -74 b 525 47 458 -74 485 -43 b 603 86 546 92 560 101 l 772 22 b 810 -57 815 7 826 -14 "},"À":{"ha":978,"x_min":0,"x_max":0,"o":"m 408 1278 b 500 1283 431 1304 461 1306 l 696 1168 b 700 1115 719 1156 721 1138 l 651 1057 b 586 1049 640 1042 618 1039 l 326 1118 b 318 1174 293 1129 294 1144 m 988 60 b 944 0 1001 19 988 0 l 750 0 b 644 64 679 0 654 18 l 625 135 l 364 135 l 344 64 b 244 0 332 18 310 0 l 50 0 b 11 60 7 0 -4 19 l 321 936 b 396 986 333 976 351 986 l 601 986 b 676 938 644 986 664 975 m 526 499 b 501 661 511 550 503 624 l 500 690 l 486 690 b 464 500 488 622 479 560 l 433 388 l 557 388 "},"Á":{"ha":978,"x_min":0,"x_max":0,"o":"m 500 1278 b 592 1272 538 1299 568 1296 l 682 1172 b 674 1117 708 1146 706 1126 l 414 1047 b 349 1056 382 1038 360 1040 l 300 1114 b 304 1167 278 1140 281 1151 m 988 60 b 944 0 1001 19 988 0 l 750 0 b 644 64 679 0 654 18 l 625 135 l 364 135 l 344 64 b 244 0 332 18 310 0 l 50 0 b 11 60 7 0 -4 19 l 321 936 b 396 986 333 976 351 986 l 601 986 b 676 938 644 986 664 975 m 526 499 b 501 661 511 550 503 624 l 500 690 l 486 690 b 464 500 488 622 479 560 l 433 388 l 557 388 "},"Â":{"ha":978,"x_min":0,"x_max":0,"o":"m 536 1285 b 642 1244 592 1285 604 1279 l 793 1096 b 774 1043 819 1072 818 1043 l 628 1043 b 526 1074 561 1043 544 1047 l 499 1113 l 468 1075 b 368 1043 446 1047 429 1043 l 231 1043 b 211 1096 186 1043 185 1072 l 361 1244 b 408 1278 379 1263 396 1274 b 475 1285 421 1282 443 1285 m 988 60 b 944 0 1001 19 988 0 l 750 0 b 644 64 679 0 654 18 l 625 135 l 364 135 l 344 64 b 244 0 332 18 310 0 l 50 0 b 11 60 7 0 -4 19 l 321 936 b 396 986 333 976 351 986 l 601 986 b 676 938 644 986 664 975 m 526 499 b 501 661 511 550 503 624 l 500 690 l 486 690 b 464 500 488 622 479 560 l 433 388 l 557 388 "},"Ã":{"ha":978,"x_min":0,"x_max":0,"o":"m 721 1271 b 754 1238 743 1271 754 1260 b 608 1060 754 1108 704 1060 b 485 1083 565 1060 524 1068 b 414 1107 446 1099 422 1107 b 396 1085 401 1107 396 1100 b 371 1060 396 1068 388 1060 l 264 1060 b 231 1093 242 1060 231 1071 b 374 1271 231 1211 278 1271 b 500 1247 418 1271 460 1263 b 572 1224 540 1232 564 1224 b 590 1246 585 1224 590 1231 b 615 1271 590 1263 599 1271 m 988 60 b 944 0 1001 19 988 0 l 750 0 b 644 64 679 0 654 18 l 625 135 l 364 135 l 344 64 b 244 0 332 18 310 0 l 50 0 b 11 60 7 0 -4 19 l 321 936 b 396 986 333 976 351 986 l 601 986 b 676 938 644 986 664 975 m 526 499 b 501 661 511 550 503 624 l 500 690 l 486 690 b 464 500 488 622 479 560 l 433 388 l 557 388 "},"Ä":{"ha":978,"x_min":0,"x_max":0,"o":"m 349 1286 b 463 1176 436 1286 463 1260 l 463 1156 b 349 1046 463 1074 433 1046 l 338 1046 b 226 1156 253 1046 226 1074 l 226 1176 b 338 1286 226 1260 253 1286 m 658 1286 b 771 1176 743 1286 771 1260 l 771 1156 b 658 1046 771 1074 743 1046 l 649 1046 b 535 1156 564 1046 535 1074 l 535 1176 b 649 1286 535 1260 561 1286 m 988 60 b 944 0 1001 19 988 0 l 750 0 b 644 64 679 0 654 18 l 625 135 l 364 135 l 344 64 b 244 0 332 18 310 0 l 50 0 b 11 60 7 0 -4 19 l 321 936 b 396 986 333 976 351 986 l 601 986 b 676 938 644 986 664 975 m 526 499 b 501 661 511 550 503 624 l 500 690 l 486 690 b 464 500 488 622 479 560 l 433 388 l 557 388 "},"Å":{"ha":976,"x_min":0,"x_max":0,"o":"m 283 1060 b 500 1246 283 1181 371 1246 b 713 1060 628 1246 713 1175 b 667 944 713 1011 697 972 l 988 60 b 944 0 1001 19 988 0 l 750 0 b 644 64 679 0 654 18 l 625 135 l 364 135 l 344 64 b 244 0 332 18 310 0 l 50 0 b 11 60 7 0 -4 19 l 332 942 b 283 1060 300 971 283 1011 m 550 1054 b 500 1104 550 1086 529 1104 b 444 1054 463 1104 444 1088 b 500 1004 444 1025 467 1004 b 550 1054 533 1004 550 1021 m 528 499 b 501 658 513 550 503 624 l 500 686 l 486 686 b 463 500 486 621 478 560 l 433 388 l 557 388 "},"Æ":{"ha":1290,"x_min":0,"x_max":0,"o":"m 1211 279 b 1272 218 1257 279 1272 264 l 1272 61 b 1211 0 1272 15 1257 0 l 726 0 b 665 61 681 0 665 15 l 665 114 l 381 114 l 340 54 b 226 0 313 11 297 0 l 47 0 b 8 60 3 0 -14 25 l 592 936 b 667 986 618 976 628 986 l 1201 986 b 1263 925 1247 986 1263 971 l 1263 769 b 1201 708 1263 724 1247 708 l 960 708 l 960 636 l 1124 636 b 1185 575 1169 636 1185 621 l 1185 419 b 1124 358 1185 374 1169 358 l 960 358 l 960 279 m 665 543 l 539 353 l 665 353 "},"Ç":{"ha":914,"x_min":0,"x_max":0,"o":"m 860 310 b 899 231 903 294 914 274 b 546 -18 844 82 726 -1 l 531 -60 l 544 -60 b 658 -200 626 -61 668 -121 b 440 -340 647 -293 575 -340 b 332 -325 400 -340 364 -335 b 289 -282 303 -315 289 -301 l 289 -218 b 344 -193 289 -182 307 -174 b 424 -215 371 -208 397 -215 b 464 -187 450 -215 464 -206 b 400 -160 464 -167 450 -160 l 372 -160 b 354 -115 346 -160 340 -144 l 399 -17 b 35 382 167 10 35 158 l 35 604 b 478 1007 35 854 196 1007 b 899 754 696 1007 836 922 b 860 676 914 711 903 692 l 671 610 b 593 649 626 597 610 604 b 478 728 571 706 543 728 b 357 606 383 728 357 694 l 357 381 b 478 258 357 292 383 258 b 594 338 536 258 575 285 b 672 376 611 382 629 392 "},"È":{"ha":822,"x_min":0,"x_max":0,"o":"m 329 1278 b 421 1283 351 1304 382 1306 l 617 1168 b 621 1115 640 1156 642 1138 l 572 1057 b 507 1049 561 1042 539 1039 l 247 1118 b 239 1174 214 1129 215 1144 m 722 986 b 783 925 768 986 783 971 l 783 769 b 722 708 783 724 768 708 l 378 708 l 378 636 l 644 636 b 706 575 690 636 706 621 l 706 419 b 644 358 706 374 690 358 l 378 358 l 378 279 l 732 279 b 793 218 778 279 793 264 l 793 61 b 732 0 793 15 778 0 l 117 0 b 56 61 71 0 56 15 l 56 925 b 117 986 56 971 71 986 "},"É":{"ha":822,"x_min":0,"x_max":0,"o":"m 421 1278 b 513 1272 458 1299 489 1296 l 603 1172 b 594 1117 629 1146 626 1126 l 335 1047 b 269 1056 303 1038 281 1040 l 221 1114 b 225 1167 199 1140 201 1151 m 722 986 b 783 925 768 986 783 971 l 783 769 b 722 708 783 724 768 708 l 378 708 l 378 636 l 644 636 b 706 575 690 636 706 621 l 706 419 b 644 358 706 374 690 358 l 378 358 l 378 279 l 732 279 b 793 218 778 279 793 264 l 793 61 b 732 0 793 15 778 0 l 117 0 b 56 61 71 0 56 15 l 56 925 b 117 986 56 971 71 986 "},"Ê":{"ha":822,"x_min":0,"x_max":0,"o":"m 457 1285 b 563 1244 513 1285 525 1279 l 714 1096 b 694 1043 740 1072 739 1043 l 549 1043 b 447 1074 482 1043 465 1047 l 419 1113 l 389 1075 b 289 1043 367 1047 350 1043 l 151 1043 b 132 1096 107 1043 106 1072 l 282 1244 b 329 1278 300 1263 317 1274 b 396 1285 342 1282 364 1285 m 722 986 b 783 925 768 986 783 971 l 783 769 b 722 708 783 724 768 708 l 378 708 l 378 636 l 644 636 b 706 575 690 636 706 621 l 706 419 b 644 358 706 374 690 358 l 378 358 l 378 279 l 732 279 b 793 218 778 279 793 264 l 793 61 b 732 0 793 15 778 0 l 117 0 b 56 61 71 0 56 15 l 56 925 b 117 986 56 971 71 986 "},"Ë":{"ha":822,"x_min":0,"x_max":0,"o":"m 269 1286 b 383 1176 357 1286 383 1260 l 383 1156 b 269 1046 383 1074 354 1046 l 258 1046 b 147 1156 174 1046 147 1074 l 147 1176 b 258 1286 147 1260 174 1286 m 579 1286 b 692 1176 664 1286 692 1260 l 692 1156 b 579 1046 692 1074 664 1046 l 569 1046 b 456 1156 485 1046 456 1074 l 456 1176 b 569 1286 456 1260 482 1286 m 722 986 b 783 925 768 986 783 971 l 783 769 b 722 708 783 724 768 708 l 378 708 l 378 636 l 644 636 b 706 575 690 636 706 621 l 706 419 b 644 358 706 374 690 358 l 378 358 l 378 279 l 732 279 b 793 218 778 279 793 264 l 793 61 b 732 0 793 15 778 0 l 117 0 b 56 61 71 0 56 15 l 56 925 b 117 986 56 971 71 986 "},"Ì":{"ha":433,"x_min":0,"x_max":0,"o":"m 129 1278 b 221 1283 151 1304 182 1306 l 417 1168 b 421 1115 440 1156 442 1138 l 372 1057 b 307 1049 361 1042 339 1039 l 47 1118 b 39 1174 14 1129 15 1144 m 58 931 b 114 986 58 971 74 986 l 325 986 b 381 931 365 986 381 971 l 381 56 b 325 0 381 15 365 0 l 114 0 b 58 56 74 0 58 15 "},"Í":{"ha":433,"x_min":0,"x_max":0,"o":"m 219 1278 b 311 1272 257 1299 288 1296 l 401 1172 b 393 1117 428 1146 425 1126 l 133 1047 b 68 1056 101 1038 79 1040 l 19 1114 b 24 1167 -3 1140 0 1151 m 57 931 b 113 986 57 971 72 986 l 324 986 b 379 931 364 986 379 971 l 379 56 b 324 0 379 15 364 0 l 113 0 b 57 56 72 0 57 15 "},"Î":{"ha":433,"x_min":0,"x_max":0,"o":"m 257 1285 b 363 1244 313 1285 325 1279 l 514 1096 b 494 1043 540 1072 539 1043 l 349 1043 b 247 1074 282 1043 265 1047 l 219 1113 l 189 1075 b 89 1043 167 1047 150 1043 l -49 1043 b -68 1096 -93 1043 -94 1072 l 82 1244 b 129 1278 100 1263 117 1274 b 196 1285 142 1282 164 1285 m 58 931 b 114 986 58 971 74 986 l 325 986 b 381 931 365 986 381 971 l 381 56 b 325 0 381 15 365 0 l 114 0 b 58 56 74 0 58 15 "},"Ï":{"ha":433,"x_min":0,"x_max":0,"o":"m 67 1286 b 181 1176 154 1286 181 1260 l 181 1156 b 67 1046 181 1074 151 1046 l 56 1046 b -56 1156 -29 1046 -56 1074 l -56 1176 b 56 1286 -56 1260 -29 1286 m 376 1286 b 489 1176 461 1286 489 1260 l 489 1156 b 376 1046 489 1074 461 1046 l 367 1046 b 253 1156 282 1046 253 1074 l 253 1176 b 367 1286 253 1260 279 1286 m 56 931 b 111 986 56 971 71 986 l 322 986 b 378 931 363 986 378 971 l 378 56 b 322 0 378 15 363 0 l 111 0 b 56 56 71 0 56 15 "},"Ð":{"ha":997,"x_min":0,"x_max":0,"o":"m 521 986 b 964 583 803 986 964 835 l 964 404 b 521 0 964 153 803 0 l 169 0 b 108 61 124 0 108 15 l 108 388 l 51 388 b 15 425 24 388 15 396 l 15 558 b 51 596 15 586 25 596 l 108 596 l 108 925 b 169 986 108 971 124 986 m 642 575 b 504 708 642 665 604 708 l 431 708 l 431 596 l 511 596 b 547 558 539 596 547 588 l 547 425 b 511 388 547 396 539 388 l 431 388 l 431 279 l 504 279 b 642 413 606 279 642 319 "},"Ñ":{"ha":975,"x_min":0,"x_max":0,"o":"m 715 1271 b 749 1238 738 1271 749 1260 b 603 1060 749 1108 699 1060 b 479 1083 558 1060 517 1068 b 408 1107 440 1099 417 1107 b 390 1085 396 1107 390 1100 b 365 1060 390 1068 382 1060 l 258 1060 b 225 1093 236 1060 225 1071 b 368 1271 225 1211 272 1271 b 496 1247 413 1271 456 1263 b 567 1224 536 1232 560 1224 b 585 1246 579 1224 585 1231 b 610 1271 585 1263 593 1271 m 858 986 b 919 925 904 986 919 971 l 919 61 b 858 0 919 15 904 0 l 660 0 b 600 29 633 0 613 10 l 443 279 b 381 396 414 326 393 365 b 315 589 368 425 346 490 l 304 589 b 349 365 328 479 343 404 b 356 185 353 326 356 267 l 356 61 b 294 0 356 15 340 0 l 117 0 b 56 61 71 0 56 15 l 56 925 b 117 986 56 971 71 986 l 329 986 b 389 958 357 986 376 976 l 569 664 b 619 572 596 621 611 590 b 647 504 624 563 632 540 b 688 404 663 467 675 433 l 700 404 b 632 646 663 528 639 608 b 619 799 624 682 619 733 l 619 925 b 681 986 619 971 635 986 "},"Ò":{"ha":956,"x_min":0,"x_max":0,"o":"m 388 1292 b 479 1297 410 1318 440 1319 l 675 1182 b 679 1129 699 1169 700 1151 l 631 1071 b 565 1063 619 1056 597 1053 l 306 1132 b 297 1188 272 1143 274 1158 m 35 604 b 478 1007 35 856 196 1007 b 921 604 760 1007 921 856 l 921 382 b 478 -21 921 131 760 -21 b 35 382 196 -21 35 131 m 599 622 b 478 728 599 693 558 728 b 357 622 397 728 357 693 l 357 364 b 478 258 357 293 397 258 b 599 364 558 258 599 293 "},"Ó":{"ha":956,"x_min":0,"x_max":0,"o":"m 479 1292 b 571 1286 517 1313 547 1310 l 661 1186 b 653 1131 688 1160 685 1140 l 393 1061 b 328 1069 361 1051 339 1054 l 279 1128 b 283 1181 257 1154 260 1165 m 35 604 b 478 1007 35 856 196 1007 b 921 604 760 1007 921 856 l 921 382 b 478 -21 921 131 760 -21 b 35 382 196 -21 35 131 m 599 622 b 478 728 599 693 558 728 b 357 622 397 728 357 693 l 357 364 b 478 258 357 293 397 258 b 599 364 558 258 599 293 "},"Ô":{"ha":956,"x_min":0,"x_max":0,"o":"m 515 1299 b 621 1258 571 1299 583 1293 l 772 1110 b 753 1057 799 1086 797 1057 l 607 1057 b 506 1088 540 1057 524 1061 l 478 1126 l 447 1089 b 347 1057 425 1061 408 1057 l 210 1057 b 190 1110 165 1057 164 1086 l 340 1258 b 388 1292 358 1276 375 1288 b 454 1299 400 1296 422 1299 m 35 604 b 478 1007 35 856 196 1007 b 921 604 760 1007 921 856 l 921 382 b 478 -21 921 131 760 -21 b 35 382 196 -21 35 131 m 599 622 b 478 728 599 693 558 728 b 357 622 397 728 357 693 l 357 364 b 478 258 357 293 397 258 b 599 364 558 258 599 293 "},"Õ":{"ha":956,"x_min":0,"x_max":0,"o":"m 700 1285 b 733 1251 722 1285 733 1274 b 588 1074 733 1122 683 1074 b 464 1097 544 1074 503 1082 b 393 1121 425 1113 401 1121 b 375 1099 381 1121 375 1114 b 350 1074 375 1082 367 1074 l 243 1074 b 210 1107 221 1074 210 1085 b 353 1285 210 1225 257 1285 b 479 1261 397 1285 439 1276 b 551 1238 519 1246 543 1238 b 569 1260 564 1238 569 1244 b 594 1285 569 1276 578 1285 m 35 604 b 478 1007 35 856 196 1007 b 921 604 760 1007 921 856 l 921 382 b 478 -21 921 131 760 -21 b 35 382 196 -21 35 131 m 599 622 b 478 728 599 693 558 728 b 357 622 397 728 357 693 l 357 364 b 478 258 357 293 397 258 b 599 364 558 258 599 293 "},"Ö":{"ha":956,"x_min":0,"x_max":0,"o":"m 328 1300 b 442 1190 415 1300 442 1274 l 442 1169 b 328 1060 442 1088 413 1060 l 317 1060 b 206 1169 232 1060 206 1088 l 206 1190 b 317 1300 206 1274 232 1300 m 638 1300 b 750 1190 722 1300 750 1274 l 750 1169 b 638 1060 750 1088 722 1060 l 628 1060 b 514 1169 543 1060 514 1088 l 514 1190 b 628 1300 514 1274 540 1300 m 35 604 b 478 1007 35 856 196 1007 b 921 604 760 1007 921 856 l 921 382 b 478 -21 921 131 760 -21 b 35 382 196 -21 35 131 m 599 622 b 478 728 599 693 558 728 b 357 622 397 728 357 693 l 357 364 b 478 258 357 293 397 258 b 599 364 558 258 599 293 "},"×":{"ha":763,"x_min":0,"x_max":0,"o":"m 710 310 b 710 226 742 278 742 258 l 604 122 b 522 122 572 93 554 93 l 381 264 l 240 124 b 158 124 208 92 188 92 l 53 229 b 53 311 24 258 24 279 l 193 451 l 53 592 b 53 674 21 624 21 644 l 158 779 b 240 779 188 811 208 811 l 381 639 l 522 781 b 604 781 554 810 572 810 l 710 675 b 710 593 742 646 742 625 l 568 451 "},"Ø":{"ha":956,"x_min":0,"x_max":0,"o":"m 932 1044 b 947 1015 953 1044 958 1035 l 844 863 b 925 604 899 794 925 708 l 925 382 b 482 -21 925 131 764 -21 b 276 13 403 -21 335 -10 l 244 -35 b 185 -62 228 -61 224 -62 l 40 -62 b 26 -31 19 -62 14 -46 l 124 118 b 39 382 67 188 39 275 l 39 604 b 482 1007 39 856 200 1007 b 694 971 563 1007 633 994 l 726 1018 b 783 1044 743 1042 750 1044 m 540 718 b 482 728 525 725 506 728 b 361 622 401 728 361 693 l 361 483 l 361 451 m 428 265 b 482 258 446 261 464 258 b 603 364 563 258 603 293 l 603 494 l 603 525 "},"Ù":{"ha":964,"x_min":0,"x_max":0,"o":"m 392 1278 b 483 1283 414 1304 444 1306 l 679 1168 b 683 1115 703 1156 704 1138 l 635 1057 b 569 1049 624 1042 601 1039 l 310 1118 b 301 1174 276 1129 278 1144 m 369 357 b 482 257 369 290 407 257 b 594 357 557 257 594 290 l 594 925 b 656 986 594 971 610 986 l 856 986 b 917 925 901 986 917 971 l 917 376 b 482 -21 917 131 761 -21 b 47 376 203 -21 47 131 l 47 925 b 108 986 47 971 63 986 l 308 986 b 369 925 354 986 369 971 "},"Ú":{"ha":964,"x_min":0,"x_max":0,"o":"m 483 1278 b 575 1272 521 1299 551 1296 l 665 1172 b 657 1117 692 1146 689 1126 l 397 1047 b 332 1056 365 1038 343 1040 l 283 1114 b 288 1167 261 1140 264 1151 m 369 357 b 482 257 369 290 407 257 b 594 357 557 257 594 290 l 594 925 b 656 986 594 971 610 986 l 856 986 b 917 925 901 986 917 971 l 917 376 b 482 -21 917 131 761 -21 b 47 376 203 -21 47 131 l 47 925 b 108 986 47 971 63 986 l 308 986 b 369 925 354 986 369 971 "},"Û":{"ha":964,"x_min":0,"x_max":0,"o":"m 519 1285 b 625 1244 575 1285 588 1279 l 776 1096 b 757 1043 803 1072 801 1043 l 611 1043 b 510 1074 544 1043 528 1047 l 482 1113 l 451 1075 b 351 1043 429 1047 413 1043 l 214 1043 b 194 1096 169 1043 168 1072 l 344 1244 b 392 1278 363 1263 379 1274 b 458 1285 404 1282 426 1285 m 369 357 b 482 257 369 290 407 257 b 594 357 557 257 594 290 l 594 925 b 656 986 594 971 610 986 l 856 986 b 917 925 901 986 917 971 l 917 376 b 482 -21 917 131 761 -21 b 47 376 203 -21 47 131 l 47 925 b 108 986 47 971 63 986 l 308 986 b 369 925 354 986 369 971 "},"Ü":{"ha":964,"x_min":0,"x_max":0,"o":"m 332 1286 b 446 1176 419 1286 446 1260 l 446 1156 b 332 1046 446 1074 417 1046 l 321 1046 b 210 1156 236 1046 210 1074 l 210 1176 b 321 1286 210 1260 236 1286 m 642 1286 b 754 1176 726 1286 754 1260 l 754 1156 b 642 1046 754 1074 726 1046 l 632 1046 b 518 1156 547 1046 518 1074 l 518 1176 b 632 1286 518 1260 544 1286 m 369 357 b 482 257 369 290 407 257 b 594 357 557 257 594 290 l 594 925 b 656 986 594 971 610 986 l 856 986 b 917 925 901 986 917 971 l 917 376 b 482 -21 917 131 761 -21 b 47 376 203 -21 47 131 l 47 925 b 108 986 47 971 63 986 l 308 986 b 369 925 354 986 369 971 "},"Ý":{"ha":961,"x_min":0,"x_max":0,"o":"m 493 1278 b 585 1272 531 1299 561 1296 l 675 1172 b 667 1117 701 1146 699 1126 l 407 1047 b 342 1056 375 1038 353 1040 l 293 1114 b 297 1167 271 1140 274 1151 m 932 986 b 963 925 975 986 983 960 l 649 381 l 649 61 b 588 0 649 15 633 0 l 388 0 b 326 61 342 0 326 15 l 326 378 l 13 925 b 43 986 -8 960 0 986 l 244 986 b 324 978 282 986 308 983 b 364 933 338 972 351 957 l 489 688 l 619 933 b 660 978 632 957 646 972 b 738 986 674 983 700 986 "},"Þ":{"ha":886,"x_min":0,"x_max":0,"o":"m 489 875 b 768 774 606 875 699 842 b 871 499 836 706 871 614 b 768 225 871 383 836 292 b 489 125 699 158 606 125 l 375 125 l 375 61 b 314 0 375 15 360 0 l 115 0 b 54 61 69 0 54 15 l 54 925 b 115 986 54 971 69 986 l 314 986 b 375 925 360 986 375 971 l 375 875 m 443 404 b 539 500 503 404 539 443 b 443 596 539 556 503 596 l 375 596 l 375 404 "},"ß":{"ha":850,"x_min":0,"x_max":0,"o":"m 46 731 b 408 1042 46 931 168 1042 b 788 756 661 1042 788 946 b 683 549 788 656 757 599 l 683 542 b 828 289 778 501 828 439 b 496 0 828 96 717 0 l 439 0 b 379 61 393 0 379 15 l 379 218 b 439 279 379 264 393 279 l 449 279 b 501 335 488 281 501 296 b 449 392 501 375 492 390 l 439 392 b 379 453 393 392 379 407 l 379 603 b 425 664 379 649 390 664 l 432 664 b 469 715 457 664 469 681 b 408 764 469 747 449 764 b 350 708 365 764 350 747 l 350 61 b 289 0 350 15 335 0 l 107 0 b 46 61 61 0 46 15 "},"à":{"ha":740,"x_min":0,"x_max":0,"o":"m 286 1019 b 378 1022 310 1043 340 1044 l 569 904 b 572 851 590 890 592 872 l 521 794 b 456 789 508 781 488 779 l 199 868 b 192 924 168 878 165 897 m 50 599 b 371 743 101 694 208 743 b 706 436 611 743 706 635 l 706 107 b 651 19 706 53 696 38 b 367 -21 590 -7 496 -21 b 97 33 235 -21 146 -3 b 24 211 49 68 24 128 b 103 397 24 301 50 364 b 374 446 156 429 246 446 l 401 446 l 401 486 b 353 526 401 513 385 526 b 310 511 332 526 321 522 b 292 492 300 501 301 504 l 285 482 b 203 469 267 458 257 453 l 81 519 b 50 599 42 536 32 563 m 401 258 l 368 258 b 317 213 333 258 317 243 b 365 169 317 183 333 169 b 397 171 379 169 390 169 b 401 175 400 171 401 172 "},"á":{"ha":740,"x_min":0,"x_max":0,"o":"m 368 1022 b 460 1019 406 1044 436 1043 l 554 924 b 547 868 581 897 578 878 l 290 789 b 225 794 258 779 238 781 l 174 851 b 176 904 154 872 156 890 m 50 599 b 371 743 101 694 208 743 b 706 436 611 743 706 635 l 706 107 b 651 19 706 53 696 38 b 367 -21 590 -7 496 -21 b 97 33 235 -21 146 -3 b 24 211 49 68 24 128 b 103 397 24 301 50 364 b 374 446 156 429 246 446 l 401 446 l 401 486 b 353 526 401 513 385 526 b 310 511 332 526 321 522 b 292 492 300 501 301 504 l 285 482 b 203 469 267 458 257 453 l 81 519 b 50 599 42 536 32 563 m 401 258 l 368 258 b 317 213 333 258 317 243 b 365 169 317 183 333 169 b 397 171 379 169 390 169 b 401 175 400 171 401 172 "},"â":{"ha":740,"x_min":0,"x_max":0,"o":"m 408 1031 b 514 990 464 1031 476 1025 l 665 842 b 646 789 692 818 690 789 l 500 789 b 399 819 433 789 417 793 l 371 858 l 340 821 b 240 789 318 793 301 789 l 114 789 b 94 842 69 789 68 818 l 244 990 b 292 1024 263 1008 279 1019 b 358 1031 304 1028 326 1031 m 50 599 b 371 743 101 694 208 743 b 706 436 611 743 706 635 l 706 107 b 651 19 706 53 696 38 b 367 -21 590 -7 496 -21 b 97 33 235 -21 146 -3 b 24 211 49 68 24 128 b 103 397 24 301 50 364 b 374 446 156 429 246 446 l 401 446 l 401 486 b 353 526 401 513 385 526 b 310 511 332 526 321 522 b 292 492 300 501 301 504 l 285 482 b 203 469 267 458 257 453 l 81 519 b 50 599 42 536 32 563 m 401 258 l 368 258 b 317 213 333 258 317 243 b 365 169 317 183 333 169 b 397 171 379 169 390 169 b 401 175 400 171 401 172 "},"ã":{"ha":740,"x_min":0,"x_max":0,"o":"m 593 1015 b 626 982 615 1015 626 1004 b 481 804 626 853 576 804 b 357 828 438 804 396 813 b 286 851 318 843 294 851 b 268 829 274 851 268 844 b 243 804 268 813 260 804 l 136 804 b 103 838 114 804 103 815 b 246 1015 103 956 150 1015 b 372 992 290 1015 332 1007 b 444 968 413 976 436 968 b 463 990 457 968 463 975 b 488 1015 463 1007 471 1015 m 50 599 b 371 743 101 694 208 743 b 706 436 611 743 706 635 l 706 107 b 651 19 706 53 696 38 b 367 -21 590 -7 496 -21 b 97 33 235 -21 146 -3 b 24 211 49 68 24 128 b 103 397 24 301 50 364 b 374 446 156 429 246 446 l 401 446 l 401 486 b 353 526 401 513 385 526 b 310 511 332 526 321 522 b 292 492 300 501 301 504 l 285 482 b 203 469 267 458 257 453 l 81 519 b 50 599 42 536 32 563 m 401 258 l 368 258 b 317 213 333 258 317 243 b 365 169 317 183 333 169 b 397 171 379 169 390 169 b 401 175 400 171 401 172 "},"ä":{"ha":740,"x_min":0,"x_max":0,"o":"m 221 1032 b 335 922 308 1032 335 1006 l 335 901 b 221 792 335 819 306 792 l 210 792 b 99 901 125 792 99 819 l 99 922 b 210 1032 99 1006 125 1032 m 531 1032 b 643 922 615 1032 643 1006 l 643 901 b 531 792 643 819 615 792 l 521 792 b 407 901 436 792 407 819 l 407 922 b 521 1032 407 1006 433 1032 m 50 599 b 371 743 101 694 208 743 b 706 436 611 743 706 635 l 706 107 b 651 19 706 53 696 38 b 367 -21 590 -7 496 -21 b 97 33 235 -21 146 -3 b 24 211 49 68 24 128 b 103 397 24 301 50 364 b 374 446 156 429 246 446 l 401 446 l 401 486 b 353 526 401 513 385 526 b 310 511 332 526 321 522 b 292 492 300 501 301 504 l 285 482 b 203 469 267 458 257 453 l 81 519 b 50 599 42 536 32 563 m 401 258 l 368 258 b 317 213 333 258 317 243 b 365 169 317 183 333 169 b 397 171 379 169 390 169 b 401 175 400 171 401 172 "},"å":{"ha":740,"x_min":0,"x_max":0,"o":"m 174 946 b 371 1115 174 1056 253 1115 b 564 946 488 1115 564 1051 b 371 778 564 840 486 778 b 174 946 253 778 174 839 m 411 946 b 371 988 411 974 397 988 b 325 946 340 988 325 974 b 371 906 325 919 340 906 b 411 946 397 906 411 919 m 50 599 b 371 743 101 694 208 743 b 706 436 611 743 706 635 l 706 107 b 651 19 706 53 696 38 b 367 -21 590 -7 496 -21 b 97 33 235 -21 146 -3 b 24 211 49 68 24 128 b 103 397 24 301 50 364 b 374 446 156 429 246 446 l 401 446 l 401 486 b 353 526 401 513 385 526 b 310 511 332 526 321 522 b 292 492 300 501 301 504 l 285 482 b 203 469 267 458 257 453 l 81 519 b 50 599 42 536 32 563 m 401 258 l 368 258 b 317 213 333 258 317 243 b 365 169 317 183 333 169 b 397 171 379 169 390 169 b 401 175 400 171 401 172 "},"æ":{"ha":1063,"x_min":0,"x_max":0,"o":"m 53 599 b 353 743 107 700 193 743 b 524 696 418 743 475 728 b 694 743 574 728 631 743 b 1042 428 929 743 1042 615 l 1042 360 b 963 285 1042 310 1015 285 l 649 285 l 649 256 b 697 196 649 215 665 196 b 747 213 719 196 735 200 b 774 246 760 224 761 225 b 850 258 789 271 815 275 l 968 201 b 999 122 1008 183 1017 165 b 693 -21 944 22 854 -21 b 546 14 639 -21 590 -10 b 349 -21 492 -10 425 -21 b 26 211 76 -14 28 43 b 97 399 26 304 50 367 b 356 446 143 431 229 446 l 379 446 l 379 486 b 338 526 379 514 371 526 b 303 510 321 526 310 519 b 283 478 297 503 283 485 b 213 468 271 457 263 451 l 83 519 b 53 599 44 536 35 563 m 736 482 b 694 543 736 526 728 543 b 650 482 661 543 650 525 l 650 469 l 736 469 m 381 258 l 357 258 b 319 213 332 258 319 243 b 354 169 319 181 326 169 l 381 172 l 381 207 "},"ç":{"ha":729,"x_min":0,"x_max":0,"o":"m 675 258 b 713 178 717 246 729 219 b 465 -14 667 71 585 7 l 449 -60 l 463 -60 b 576 -200 544 -61 586 -121 b 358 -340 565 -293 493 -340 b 250 -325 318 -340 282 -335 b 207 -282 221 -315 207 -301 l 207 -218 b 263 -193 207 -182 225 -174 b 342 -215 289 -208 315 -215 b 382 -187 368 -215 382 -206 b 318 -160 382 -167 368 -160 l 290 -160 b 272 -115 264 -160 258 -144 l 315 -18 b 29 297 125 0 29 104 l 29 426 b 386 743 29 626 147 743 b 707 542 557 743 664 663 b 669 465 722 499 713 481 l 501 410 b 422 447 457 394 439 404 b 371 493 407 485 394 493 b 333 443 346 493 333 476 l 333 279 b 371 231 333 247 346 231 b 422 274 397 231 407 236 b 501 310 439 317 457 325 "},"è":{"ha":771,"x_min":0,"x_max":0,"o":"m 304 1019 b 396 1022 328 1043 358 1044 l 588 904 b 590 851 608 890 610 872 l 539 794 b 474 789 526 781 506 779 l 217 868 b 210 924 186 878 183 897 m 28 411 b 389 743 28 626 156 743 b 658 654 507 743 597 714 b 750 428 719 594 750 519 l 750 360 b 671 285 750 310 724 285 l 333 285 l 333 267 b 392 196 333 219 353 196 b 481 242 426 196 457 211 b 557 253 499 265 506 269 l 678 203 b 708 124 717 186 726 160 b 388 -21 657 28 550 -21 b 28 313 142 -21 28 111 m 444 482 b 389 543 444 525 432 543 b 333 482 349 543 333 525 l 333 469 l 444 469 "},"é":{"ha":771,"x_min":0,"x_max":0,"o":"m 386 1022 b 478 1019 424 1044 454 1043 l 572 924 b 565 868 599 897 596 878 l 308 789 b 243 794 276 779 256 781 l 192 851 b 194 904 172 872 174 890 m 28 411 b 389 743 28 626 156 743 b 658 654 507 743 597 714 b 750 428 719 594 750 519 l 750 360 b 671 285 750 310 724 285 l 333 285 l 333 267 b 392 196 333 219 353 196 b 481 242 426 196 457 211 b 557 253 499 265 506 269 l 678 203 b 708 124 717 186 726 160 b 388 -21 657 28 550 -21 b 28 313 142 -21 28 111 m 444 482 b 389 543 444 525 432 543 b 333 482 349 543 333 525 l 333 469 l 444 469 "},"ê":{"ha":771,"x_min":0,"x_max":0,"o":"m 425 1024 b 529 985 481 1024 492 1018 l 676 839 b 657 788 703 815 701 788 l 515 788 b 415 817 450 788 433 793 l 389 856 l 358 818 b 261 788 338 792 321 788 l 138 788 b 118 839 94 788 92 815 l 265 985 b 310 1017 283 1001 297 1013 b 376 1024 322 1021 344 1024 m 28 411 b 389 743 28 626 156 743 b 658 654 507 743 597 714 b 750 428 719 594 750 519 l 750 360 b 671 285 750 310 724 285 l 333 285 l 333 267 b 392 196 333 219 353 196 b 481 242 426 196 457 211 b 557 253 499 265 506 269 l 678 203 b 708 124 717 186 726 160 b 388 -21 657 28 550 -21 b 28 313 142 -21 28 111 m 444 482 b 389 543 444 525 432 543 b 333 482 349 543 333 525 l 333 469 l 444 469 "},"ë":{"ha":771,"x_min":0,"x_max":0,"o":"m 239 1032 b 353 922 326 1032 353 1006 l 353 901 b 239 792 353 819 324 792 l 228 792 b 117 901 143 792 117 819 l 117 922 b 228 1032 117 1006 143 1032 m 549 1032 b 661 922 633 1032 661 1006 l 661 901 b 549 792 661 819 633 792 l 539 792 b 425 901 454 792 425 819 l 425 922 b 539 1032 425 1006 451 1032 m 28 411 b 389 743 28 626 156 743 b 658 654 507 743 597 714 b 750 428 719 594 750 519 l 750 360 b 671 285 750 310 724 285 l 333 285 l 333 267 b 392 196 333 219 353 196 b 481 242 426 196 457 211 b 557 253 499 265 506 269 l 678 203 b 708 124 717 186 726 160 b 388 -21 657 28 550 -21 b 28 313 142 -21 28 111 m 444 482 b 389 543 444 525 432 543 b 333 482 349 543 333 525 l 333 469 l 444 469 "},"ì":{"ha":397,"x_min":0,"x_max":0,"o":"m 164 1028 b 256 1022 190 1049 221 1047 l 436 888 b 435 835 458 871 458 858 l 378 783 b 313 783 364 769 342 769 l 64 885 b 61 940 35 897 35 915 m 336 722 b 392 667 379 722 392 707 l 392 56 b 336 0 392 15 379 0 l 142 0 b 86 56 99 0 86 15 l 86 667 b 142 722 86 707 99 722 "},"í":{"ha":397,"x_min":0,"x_max":0,"o":"m 175 1022 b 267 1028 210 1047 240 1049 l 369 940 b 367 885 396 915 396 897 l 118 783 b 53 783 89 769 67 769 l -4 835 b -6 888 -28 858 -28 871 m 296 722 b 351 667 339 722 351 707 l 351 56 b 296 0 351 15 339 0 l 101 0 b 46 56 58 0 46 15 l 46 667 b 101 722 46 707 58 722 "},"î":{"ha":397,"x_min":0,"x_max":0,"o":"m 489 839 b 469 788 515 815 514 788 l 328 788 b 228 817 263 788 246 793 l 200 856 l 171 818 b 74 788 150 792 133 788 l -50 788 b -69 839 -93 788 -96 815 l 78 985 b 122 1017 96 1001 110 1013 b 189 1024 135 1021 157 1024 l 238 1024 b 342 985 293 1024 304 1018 m 300 722 b 356 667 343 722 356 707 l 356 56 b 300 0 356 15 343 0 l 106 0 b 50 56 63 0 50 15 l 50 667 b 106 722 50 707 63 722 "},"ï":{"ha":397,"x_min":0,"x_max":0,"o":"m 49 1032 b 163 922 136 1032 163 1006 l 163 901 b 49 792 163 819 133 792 l 38 792 b -74 901 -47 792 -74 819 l -74 922 b 38 1032 -74 1006 -47 1032 m 358 1032 b 471 922 443 1032 471 1006 l 471 901 b 358 792 471 819 443 792 l 349 792 b 235 901 264 792 235 819 l 235 922 b 349 1032 235 1006 261 1032 m 296 722 b 351 667 339 722 351 707 l 351 56 b 296 0 351 15 339 0 l 101 0 b 46 56 58 0 46 15 l 46 667 b 101 722 46 707 58 722 "},"ð":{"ha":781,"x_min":0,"x_max":0,"o":"m 568 1061 b 606 1063 581 1075 593 1075 l 657 1022 b 658 983 672 1011 672 999 l 619 942 b 743 525 701 867 743 728 l 743 294 b 386 -21 743 96 615 -21 b 28 279 151 -21 28 83 l 28 399 b 351 674 28 576 151 674 b 492 653 406 674 453 667 b 443 751 483 696 467 728 l 394 700 b 356 699 376 688 374 688 l 311 725 b 310 764 296 735 296 747 l 336 794 b 178 797 313 796 260 797 b 117 858 132 797 117 813 l 117 972 b 178 1033 117 1018 132 1033 b 517 1001 335 1033 447 1022 m 439 399 b 386 444 439 429 421 444 b 332 399 350 444 332 429 l 332 282 b 386 238 332 253 350 238 b 439 282 421 238 439 253 "},"ñ":{"ha":774,"x_min":0,"x_max":0,"o":"m 606 1015 b 639 982 628 1015 639 1004 b 493 804 639 853 589 804 b 369 828 450 804 408 813 b 299 851 331 843 307 851 b 281 829 286 851 281 844 b 256 804 281 813 272 804 l 149 804 b 115 838 126 804 115 815 b 258 1015 115 956 163 1015 b 385 992 303 1015 344 1007 b 457 968 425 976 449 968 b 475 990 469 968 475 975 b 500 1015 475 1007 483 1015 m 103 689 b 410 743 193 725 296 743 b 735 432 628 743 735 632 l 735 56 b 679 0 735 15 722 0 l 485 0 b 429 56 442 0 429 15 l 429 418 b 379 469 429 457 417 469 b 353 468 367 469 358 469 b 349 463 350 467 349 465 l 349 56 b 293 0 349 15 336 0 l 99 0 b 43 56 56 0 43 15 l 43 603 b 103 689 43 653 54 671 "},"ò":{"ha":774,"x_min":0,"x_max":0,"o":"m 301 1019 b 393 1022 325 1043 356 1044 l 585 904 b 588 851 606 890 607 872 l 536 794 b 471 789 524 781 503 779 l 214 868 b 207 924 183 878 181 897 m 29 428 b 386 743 29 626 157 743 b 744 428 619 743 744 626 l 744 294 b 386 -21 744 96 619 -21 b 29 294 157 -21 29 96 m 440 440 b 386 486 440 471 422 486 b 333 440 351 486 333 471 l 333 282 b 386 238 333 253 351 238 b 440 282 422 238 440 253 "},"ó":{"ha":774,"x_min":0,"x_max":0,"o":"m 383 1022 b 475 1019 421 1044 451 1043 l 569 924 b 563 868 596 897 593 878 l 306 789 b 240 794 274 779 253 781 l 189 851 b 192 904 169 872 171 890 m 29 428 b 386 743 29 626 157 743 b 744 428 619 743 744 626 l 744 294 b 386 -21 744 96 619 -21 b 29 294 157 -21 29 96 m 440 440 b 386 486 440 471 422 486 b 333 440 351 486 333 471 l 333 282 b 386 238 333 253 351 238 b 440 282 422 238 440 253 "},"ô":{"ha":774,"x_min":0,"x_max":0,"o":"m 422 1024 b 526 985 478 1024 489 1018 l 674 839 b 654 788 700 815 699 788 l 513 788 b 413 817 447 788 431 793 l 386 856 l 356 818 b 258 788 335 792 318 788 l 135 788 b 115 839 92 788 89 815 l 263 985 b 374 1024 297 1018 311 1024 m 29 428 b 386 743 29 626 157 743 b 744 428 619 743 744 626 l 744 294 b 386 -21 744 96 619 -21 b 29 294 157 -21 29 96 m 440 440 b 386 486 440 471 422 486 b 333 440 351 486 333 471 l 333 282 b 386 238 333 253 351 238 b 440 282 422 238 440 253 "},"õ":{"ha":774,"x_min":0,"x_max":0,"o":"m 608 1015 b 642 982 631 1015 642 1004 b 496 804 642 853 592 804 b 372 828 453 804 411 813 b 301 851 332 843 308 851 b 283 829 289 851 283 844 b 258 804 283 813 275 804 l 151 804 b 118 838 129 804 118 815 b 261 1015 118 956 165 1015 b 388 992 306 1015 347 1007 b 460 968 428 976 451 968 b 478 990 472 968 478 975 b 503 1015 478 1007 486 1015 m 29 428 b 386 743 29 626 157 743 b 744 428 619 743 744 626 l 744 294 b 386 -21 744 96 619 -21 b 29 294 157 -21 29 96 m 440 440 b 386 486 440 471 422 486 b 333 440 351 486 333 471 l 333 282 b 386 238 333 253 351 238 b 440 282 422 238 440 253 "},"ö":{"ha":774,"x_min":0,"x_max":0,"o":"m 236 1032 b 350 922 324 1032 350 1006 l 350 901 b 236 792 350 819 321 792 l 225 792 b 114 901 140 792 114 819 l 114 922 b 225 1032 114 1006 140 1032 m 546 1032 b 658 922 631 1032 658 1006 l 658 901 b 546 792 658 819 631 792 l 536 792 b 422 901 451 792 422 819 l 422 922 b 536 1032 422 1006 449 1032 m 29 428 b 386 743 29 626 157 743 b 744 428 619 743 744 626 l 744 294 b 386 -21 744 96 619 -21 b 29 294 157 -21 29 96 m 440 440 b 386 486 440 471 422 486 b 333 440 351 486 333 471 l 333 282 b 386 238 333 253 351 238 b 440 282 422 238 440 253 "},"÷":{"ha":783,"x_min":0,"x_max":0,"o":"m 446 860 b 553 753 528 860 553 835 l 553 738 b 446 631 553 656 528 631 l 338 631 b 231 738 256 631 231 656 l 231 753 b 338 860 231 835 256 860 m 692 589 b 753 528 738 589 753 574 l 753 378 b 692 317 753 332 738 317 l 92 317 b 31 378 46 317 31 332 l 31 528 b 92 589 31 574 46 589 m 446 275 b 553 168 528 275 553 250 l 553 153 b 446 46 553 71 528 46 l 338 46 b 231 153 256 46 231 71 l 231 168 b 338 275 231 250 256 275 "},"ø":{"ha":774,"x_min":0,"x_max":0,"o":"m 694 767 b 708 736 717 767 721 757 l 657 656 b 744 428 715 601 744 526 l 744 294 b 386 -21 744 96 619 -21 b 242 -3 335 -21 288 -15 l 226 -26 b 174 -49 217 -42 200 -49 l 89 -49 b 75 -18 67 -49 63 -39 l 125 60 b 29 294 61 114 29 193 l 29 428 b 386 743 29 626 157 743 b 542 721 446 743 499 736 l 557 744 b 610 767 567 760 583 767 m 435 521 b 386 542 426 535 410 542 b 333 496 351 542 333 526 l 333 379 l 333 360 m 342 199 b 386 182 350 188 365 182 b 440 226 422 182 440 197 l 440 338 l 440 356 "},"ù":{"ha":774,"x_min":0,"x_max":0,"o":"m 300 1019 b 392 1022 324 1043 354 1044 l 583 904 b 586 851 604 890 606 872 l 535 794 b 469 789 522 781 501 779 l 213 868 b 206 924 182 878 179 897 m 675 722 b 731 667 715 722 731 707 l 731 119 b 671 33 731 69 719 51 b 364 -21 581 -3 479 -21 b 39 290 146 -21 39 90 l 39 667 b 94 722 39 707 54 722 l 289 722 b 344 667 329 722 344 707 l 344 304 b 394 253 344 265 357 253 b 417 254 401 253 410 253 b 425 265 422 256 425 258 l 425 667 b 481 722 425 707 440 722 "},"ú":{"ha":774,"x_min":0,"x_max":0,"o":"m 382 1022 b 474 1019 419 1044 450 1043 l 568 924 b 561 868 594 897 592 878 l 304 789 b 239 794 272 779 251 781 l 188 851 b 190 904 168 872 169 890 m 675 722 b 731 667 715 722 731 707 l 731 119 b 671 33 731 69 719 51 b 364 -21 581 -3 479 -21 b 39 290 146 -21 39 90 l 39 667 b 94 722 39 707 54 722 l 289 722 b 344 667 329 722 344 707 l 344 304 b 394 253 344 265 357 253 b 417 254 401 253 410 253 b 425 265 422 256 425 258 l 425 667 b 481 722 425 707 440 722 "},"û":{"ha":774,"x_min":0,"x_max":0,"o":"m 422 1031 b 528 990 478 1031 490 1025 l 679 842 b 660 789 706 818 704 789 l 514 789 b 413 819 447 789 431 793 l 385 858 l 354 821 b 254 789 332 793 315 789 l 128 789 b 108 842 83 789 82 818 l 258 990 b 306 1024 276 1008 293 1019 b 372 1031 318 1028 340 1031 m 675 722 b 731 667 715 722 731 707 l 731 119 b 671 33 731 69 719 51 b 364 -21 581 -3 479 -21 b 39 290 146 -21 39 90 l 39 667 b 94 722 39 707 54 722 l 289 722 b 344 667 329 722 344 707 l 344 304 b 394 253 344 265 357 253 b 417 254 401 253 410 253 b 425 265 422 256 425 258 l 425 667 b 481 722 425 707 440 722 "},"ü":{"ha":774,"x_min":0,"x_max":0,"o":"m 235 1032 b 349 922 322 1032 349 1006 l 349 901 b 235 792 349 819 319 792 l 224 792 b 113 901 139 792 113 819 l 113 922 b 224 1032 113 1006 139 1032 m 544 1032 b 657 922 629 1032 657 1006 l 657 901 b 544 792 657 819 629 792 l 535 792 b 421 901 450 792 421 819 l 421 922 b 535 1032 421 1006 447 1032 m 675 722 b 731 667 715 722 731 707 l 731 119 b 671 33 731 69 719 51 b 364 -21 581 -3 479 -21 b 39 290 146 -21 39 90 l 39 667 b 94 722 39 707 54 722 l 289 722 b 344 667 329 722 344 707 l 344 304 b 394 253 344 265 357 253 b 417 254 401 253 410 253 b 425 265 422 256 425 258 l 425 667 b 481 722 425 707 440 722 "},"ý":{"ha":776,"x_min":0,"x_max":0,"o":"m 393 1022 b 485 1019 431 1044 461 1043 l 579 924 b 572 868 606 897 603 878 l 315 789 b 250 794 283 779 263 781 l 199 851 b 201 904 179 872 181 890 m 686 722 b 742 667 726 722 742 707 l 742 14 b 392 -319 742 -190 632 -319 b 71 -175 231 -319 136 -275 b 101 -96 50 -142 60 -115 l 254 -22 b 328 -39 296 -1 311 -17 b 390 -81 347 -67 368 -81 b 436 -28 421 -81 436 -62 l 436 22 b 375 21 424 21 403 21 b 50 332 157 21 50 132 l 50 667 b 106 722 50 707 65 722 l 300 722 b 356 667 340 722 356 707 l 356 346 b 406 294 356 307 368 294 b 436 296 419 294 429 294 l 436 667 b 492 722 436 707 451 722 "},"þ":{"ha":768,"x_min":0,"x_max":0,"o":"m 47 972 b 103 1028 47 1013 63 1028 l 299 1028 b 354 972 342 1028 354 1013 l 354 742 b 404 743 365 743 382 743 b 739 432 628 743 739 632 l 739 304 b 413 -21 739 93 625 -21 b 353 -19 397 -21 365 -19 l 353 -249 b 297 -304 353 -292 338 -304 l 103 -304 b 47 -249 63 -304 47 -292 m 433 446 b 390 483 433 471 419 483 b 353 478 375 483 363 482 l 353 242 b 386 238 364 239 375 238 b 433 279 418 238 433 251 "},"ÿ":{"ha":776,"x_min":0,"x_max":0,"o":"m 246 1032 b 360 922 333 1032 360 1006 l 360 901 b 246 792 360 819 331 792 l 235 792 b 124 901 150 792 124 819 l 124 922 b 235 1032 124 1006 150 1032 m 556 1032 b 668 922 640 1032 668 1006 l 668 901 b 556 792 668 819 640 792 l 546 792 b 432 901 461 792 432 819 l 432 922 b 546 1032 432 1006 458 1032 m 686 722 b 742 667 726 722 742 707 l 742 14 b 392 -319 742 -190 632 -319 b 71 -175 231 -319 136 -275 b 101 -96 50 -142 60 -115 l 254 -22 b 328 -39 296 -1 311 -17 b 390 -81 347 -67 368 -81 b 436 -28 421 -81 436 -62 l 436 22 b 375 21 424 21 403 21 b 50 332 157 21 50 132 l 50 667 b 106 722 50 707 65 722 l 300 722 b 356 667 340 722 356 707 l 356 346 b 406 294 356 307 368 294 b 436 296 419 294 429 294 l 436 667 b 492 722 436 707 451 722 "},"Ā":{"ha":978,"x_min":0,"x_max":0,"o":"m 674 1251 b 726 1200 717 1251 726 1240 l 726 1129 b 674 1078 726 1089 717 1078 l 322 1078 b 271 1129 282 1078 271 1089 l 271 1200 b 322 1251 271 1240 285 1251 m 988 60 b 944 0 1001 19 988 0 l 750 0 b 644 64 679 0 654 18 l 625 135 l 364 135 l 344 64 b 244 0 332 18 310 0 l 50 0 b 11 60 7 0 -4 19 l 321 936 b 396 986 333 976 351 986 l 601 986 b 676 938 644 986 664 975 m 526 499 b 501 661 511 550 503 624 l 500 690 l 486 690 b 464 500 488 622 479 560 l 433 388 l 557 388 "},"ā":{"ha":740,"x_min":0,"x_max":0,"o":"m 546 990 b 599 939 589 990 599 979 l 599 868 b 546 817 599 828 589 817 l 194 817 b 143 868 154 817 143 828 l 143 939 b 194 990 143 979 157 990 m 50 599 b 371 743 101 694 208 743 b 706 436 611 743 706 635 l 706 107 b 651 19 706 53 696 38 b 367 -21 590 -7 496 -21 b 97 33 235 -21 146 -3 b 24 211 49 68 24 128 b 103 397 24 301 50 364 b 374 446 156 429 246 446 l 401 446 l 401 486 b 353 526 401 513 385 526 b 310 511 332 526 321 522 b 292 492 300 501 301 504 l 285 482 b 203 469 267 458 257 453 l 81 519 b 50 599 42 536 32 563 m 401 258 l 368 258 b 317 213 333 258 317 243 b 365 169 317 183 333 169 b 397 171 379 169 390 169 b 401 175 400 171 401 172 "},"Ă":{"ha":978,"x_min":0,"x_max":0,"o":"m 764 1196 b 499 1043 725 1094 636 1043 b 235 1196 361 1043 274 1094 b 260 1246 225 1224 231 1235 l 369 1288 b 425 1271 403 1299 407 1294 b 499 1233 443 1246 467 1233 b 571 1271 528 1233 553 1246 b 625 1288 588 1294 592 1297 l 739 1246 b 764 1196 765 1236 774 1219 m 988 60 b 944 0 1001 19 988 0 l 750 0 b 644 64 679 0 654 18 l 625 135 l 364 135 l 344 64 b 244 0 332 18 310 0 l 50 0 b 11 60 7 0 -4 19 l 321 936 b 396 986 333 976 351 986 l 601 986 b 676 938 644 986 664 975 m 526 499 b 501 661 511 550 503 624 l 500 690 l 486 690 b 464 500 488 622 479 560 l 433 388 l 557 388 "},"ă":{"ha":740,"x_min":0,"x_max":0,"o":"m 636 940 b 371 788 597 839 508 788 b 107 940 233 788 146 839 b 132 990 97 968 103 979 l 242 1032 b 297 1015 275 1043 279 1039 b 371 978 315 990 339 978 b 443 1015 400 978 425 990 b 497 1032 460 1039 464 1042 l 611 990 b 636 940 638 981 646 964 m 50 599 b 371 743 101 694 208 743 b 706 436 611 743 706 635 l 706 107 b 651 19 706 53 696 38 b 367 -21 590 -7 496 -21 b 97 33 235 -21 146 -3 b 24 211 49 68 24 128 b 103 397 24 301 50 364 b 374 446 156 429 246 446 l 401 446 l 401 486 b 353 526 401 513 385 526 b 310 511 332 526 321 522 b 292 492 300 501 301 504 l 285 482 b 203 469 267 458 257 453 l 81 519 b 50 599 42 536 32 563 m 401 258 l 368 258 b 317 213 333 258 317 243 b 365 169 317 183 333 169 b 397 171 379 169 390 169 b 401 175 400 171 401 172 "},"Ą":{"ha":978,"x_min":0,"x_max":0,"o":"m 601 986 b 676 938 644 986 664 975 l 988 60 b 981 8 996 36 993 18 b 881 -150 910 -49 876 -101 b 904 -175 882 -167 890 -175 b 931 -167 911 -175 921 -172 b 965 -175 946 -157 958 -160 l 997 -249 b 986 -294 1006 -269 1001 -285 b 818 -342 940 -326 885 -342 b 658 -246 725 -342 672 -310 b 760 0 642 -167 675 -85 b 644 64 678 0 657 14 l 625 135 l 364 135 l 344 64 b 244 0 332 18 310 0 l 50 0 b 11 60 7 0 -4 19 l 321 936 b 396 986 333 976 351 986 m 526 499 b 501 661 511 550 503 624 l 500 690 l 486 690 b 464 500 488 622 479 560 l 433 388 l 557 388 "},"ą":{"ha":742,"x_min":0,"x_max":0,"o":"m 50 599 b 371 743 101 694 208 743 b 706 436 611 743 706 635 l 706 107 b 688 40 706 75 700 53 b 588 -150 617 -31 583 -94 b 611 -175 589 -167 597 -175 b 638 -167 619 -175 628 -172 b 672 -175 653 -157 665 -160 l 704 -249 b 693 -294 713 -269 708 -285 b 525 -342 647 -326 592 -342 b 365 -246 432 -342 379 -310 b 453 -17 350 -175 379 -99 b 367 -21 403 -19 374 -21 b 97 33 235 -21 146 -3 b 24 211 49 68 24 128 b 103 397 24 301 50 364 b 374 446 156 429 246 446 l 401 446 l 401 486 b 353 526 401 513 385 526 b 310 511 332 526 321 522 b 292 492 300 501 301 504 l 285 482 b 203 469 267 458 257 453 l 81 519 b 50 599 42 536 32 563 m 401 258 l 368 258 b 317 213 333 258 317 243 b 365 169 317 183 333 169 b 397 171 379 169 390 169 b 401 175 400 171 401 172 "},"Ć":{"ha":914,"x_min":0,"x_max":0,"o":"m 478 1278 b 569 1272 515 1299 546 1296 l 660 1172 b 651 1117 686 1146 683 1126 l 392 1047 b 326 1056 360 1038 338 1040 l 278 1114 b 282 1167 256 1140 258 1151 m 35 604 b 478 1007 35 854 196 1007 b 899 754 696 1007 836 922 b 860 676 914 711 903 692 l 671 610 b 593 649 626 597 610 604 b 478 728 571 706 543 728 b 357 606 383 728 357 694 l 357 381 b 478 258 357 292 383 258 b 594 338 536 258 575 285 b 672 376 611 382 629 392 l 860 310 b 899 231 903 294 914 274 b 478 -21 836 63 696 -21 b 35 382 196 -21 35 132 "},"ć":{"ha":729,"x_min":0,"x_max":0,"o":"m 376 1022 b 468 1019 414 1044 444 1043 l 563 924 b 556 868 589 897 586 878 l 299 789 b 233 794 267 779 246 781 l 182 851 b 185 904 163 872 164 890 m 29 426 b 386 743 29 626 147 743 b 707 542 557 743 664 663 b 669 465 722 499 713 481 l 501 410 b 422 447 457 394 439 404 b 371 493 407 485 394 493 b 333 443 346 493 333 476 l 333 279 b 371 231 333 247 346 231 b 422 274 397 231 407 236 b 501 310 439 317 457 325 l 675 258 b 713 178 717 246 729 219 b 371 -21 657 46 543 -21 b 29 297 139 -21 29 93 "},"Ĉ":{"ha":914,"x_min":0,"x_max":0,"o":"m 514 1285 b 619 1244 569 1285 582 1279 l 771 1096 b 751 1043 797 1072 796 1043 l 606 1043 b 504 1074 539 1043 522 1047 l 476 1113 l 446 1075 b 346 1043 424 1047 407 1043 l 208 1043 b 189 1096 164 1043 163 1072 l 339 1244 b 386 1278 357 1263 374 1274 b 453 1285 399 1282 421 1285 m 35 604 b 478 1007 35 854 196 1007 b 899 754 696 1007 836 922 b 860 676 914 711 903 692 l 671 610 b 593 649 626 597 610 604 b 478 728 571 706 543 728 b 357 606 383 728 357 694 l 357 381 b 478 258 357 292 383 258 b 594 338 536 258 575 285 b 672 376 611 382 629 392 l 860 310 b 899 231 903 294 914 274 b 478 -21 836 63 696 -21 b 35 382 196 -21 35 132 "},"ĉ":{"ha":729,"x_min":0,"x_max":0,"o":"m 415 1024 b 519 985 471 1024 482 1018 l 667 839 b 647 788 693 815 692 788 l 506 788 b 406 817 440 788 424 793 l 379 856 l 349 818 b 251 788 328 792 311 788 l 128 788 b 108 839 85 788 82 815 l 256 985 b 367 1024 290 1018 304 1024 m 29 426 b 386 743 29 626 147 743 b 707 542 557 743 664 663 b 669 465 722 499 713 481 l 501 410 b 422 447 457 394 439 404 b 371 493 407 485 394 493 b 333 443 346 493 333 476 l 333 279 b 371 231 333 247 346 231 b 422 274 397 231 407 236 b 501 310 439 317 457 325 l 675 258 b 713 178 717 246 729 219 b 371 -21 657 46 543 -21 b 29 297 139 -21 29 93 "},"Ċ":{"ha":914,"x_min":0,"x_max":0,"o":"m 481 1288 b 596 1171 571 1288 596 1261 l 596 1160 b 481 1043 596 1069 571 1043 l 472 1043 b 356 1160 382 1043 356 1069 l 356 1171 b 472 1288 356 1261 382 1288 m 35 604 b 478 1007 35 854 196 1007 b 899 754 696 1007 836 922 b 860 676 914 711 903 692 l 671 610 b 593 649 626 597 610 604 b 478 728 571 706 543 728 b 357 606 383 728 357 694 l 357 381 b 478 258 357 292 383 258 b 594 338 536 258 575 285 b 672 376 611 382 629 392 l 860 310 b 899 231 903 294 914 274 b 478 -21 836 63 696 -21 b 35 382 196 -21 35 132 "},"ċ":{"ha":729,"x_min":0,"x_max":0,"o":"m 383 1036 b 499 919 474 1036 499 1010 l 499 908 b 383 792 499 818 474 792 l 375 792 b 258 908 285 792 258 818 l 258 919 b 375 1036 258 1010 285 1036 m 29 426 b 386 743 29 626 147 743 b 707 542 557 743 664 663 b 669 465 722 499 713 481 l 501 410 b 422 447 457 394 439 404 b 371 493 407 485 394 493 b 333 443 346 493 333 476 l 333 279 b 371 231 333 247 346 231 b 422 274 397 231 407 236 b 501 310 439 317 457 325 l 675 258 b 713 178 717 246 729 219 b 371 -21 657 46 543 -21 b 29 297 139 -21 29 93 "},"Č":{"ha":914,"x_min":0,"x_max":0,"o":"m 747 1286 b 761 1233 793 1286 785 1257 l 615 1085 b 569 1051 597 1067 582 1056 b 501 1044 557 1047 535 1044 l 451 1044 b 346 1085 394 1044 381 1050 l 199 1233 b 210 1286 175 1257 164 1286 l 360 1286 b 461 1256 425 1286 440 1282 l 490 1219 l 519 1254 b 619 1286 543 1282 558 1286 m 35 604 b 478 1007 35 854 196 1007 b 899 754 696 1007 836 922 b 860 676 914 711 903 692 l 671 610 b 593 649 626 597 610 604 b 478 728 571 706 543 728 b 357 606 383 728 357 694 l 357 381 b 478 258 357 292 383 258 b 594 338 536 258 575 285 b 672 376 611 382 629 392 l 860 310 b 899 231 903 294 914 274 b 478 -21 836 63 696 -21 b 35 382 196 -21 35 132 "},"č":{"ha":729,"x_min":0,"x_max":0,"o":"m 628 1006 b 640 957 669 1006 664 981 l 507 819 b 465 789 490 803 476 793 b 403 782 454 785 433 782 l 357 782 b 260 819 303 782 293 786 l 125 957 b 135 1006 101 981 93 1006 l 272 1006 b 365 978 332 1006 347 1001 l 392 944 l 419 976 b 511 1006 440 1003 454 1006 m 29 426 b 386 743 29 626 147 743 b 707 542 557 743 664 663 b 669 465 722 499 713 481 l 501 410 b 422 447 457 394 439 404 b 371 493 407 485 394 493 b 333 443 346 493 333 476 l 333 279 b 371 231 333 247 346 231 b 422 274 397 231 407 236 b 501 310 439 317 457 325 l 675 258 b 713 178 717 246 729 219 b 371 -21 657 46 543 -21 b 29 297 139 -21 29 93 "},"Ď":{"ha":944,"x_min":0,"x_max":0,"o":"m 710 1286 b 724 1233 756 1286 747 1257 l 578 1085 b 532 1051 560 1067 544 1056 b 464 1044 519 1047 497 1044 l 414 1044 b 308 1085 357 1044 343 1050 l 161 1233 b 172 1286 138 1257 126 1286 l 322 1286 b 424 1256 388 1286 403 1282 l 453 1219 l 482 1254 b 582 1286 506 1282 521 1286 m 468 986 b 911 583 750 986 911 835 l 911 404 b 468 0 911 153 750 0 l 117 0 b 56 61 71 0 56 15 l 56 925 b 117 986 56 971 71 986 m 589 575 b 451 708 589 665 551 708 l 378 708 l 378 279 l 451 279 b 589 413 553 279 589 319 "},"ď":{"ha":917,"x_min":0,"x_max":0,"o":"m 29 418 b 356 743 29 629 143 743 b 415 742 371 743 403 742 l 415 972 b 471 1028 415 1013 428 1028 l 665 1028 b 721 972 708 1028 721 1013 l 721 113 b 661 31 721 64 710 51 b 364 -21 576 -4 476 -21 b 29 290 140 -21 29 90 m 963 757 b 883 707 947 717 929 707 l 796 707 b 758 749 763 707 754 715 l 782 964 b 853 1028 788 1014 804 1028 l 988 1028 b 1035 964 1038 1028 1050 1008 m 415 481 b 382 485 404 483 393 485 b 335 443 350 485 335 471 l 335 276 b 378 239 335 251 349 239 l 411 242 b 415 249 414 243 415 244 "},"Đ":{"ha":997,"x_min":0,"x_max":0,"o":"m 521 986 b 964 583 803 986 964 835 l 964 404 b 521 0 964 153 803 0 l 169 0 b 108 61 124 0 108 15 l 108 388 l 51 388 b 15 425 24 388 15 396 l 15 558 b 51 596 15 586 25 596 l 108 596 l 108 925 b 169 986 108 971 124 986 m 642 575 b 504 708 642 665 604 708 l 431 708 l 431 596 l 511 596 b 547 558 539 596 547 588 l 547 425 b 511 388 547 396 539 388 l 431 388 l 431 279 l 504 279 b 642 413 606 279 642 319 "},"đ":{"ha":765,"x_min":0,"x_max":0,"o":"m 776 956 b 811 918 804 956 811 947 l 811 840 b 776 803 811 811 804 803 l 721 803 l 721 113 b 661 31 721 64 710 51 b 364 -21 576 -4 476 -21 b 29 290 140 -21 29 90 l 29 418 b 356 743 29 629 143 743 b 415 742 371 743 403 742 l 415 803 l 315 803 b 281 840 288 803 281 811 l 281 918 b 315 956 281 946 289 956 l 415 956 l 415 972 b 471 1028 415 1013 428 1028 l 665 1028 b 721 972 708 1028 721 1013 l 721 956 m 415 481 b 382 485 404 483 393 485 b 335 443 350 485 335 471 l 335 276 b 378 239 335 251 349 239 l 411 242 b 415 249 414 243 415 244 "},"Ē":{"ha":822,"x_min":0,"x_max":0,"o":"m 594 1251 b 647 1200 638 1251 647 1240 l 647 1129 b 594 1078 647 1089 638 1078 l 243 1078 b 192 1129 203 1078 192 1089 l 192 1200 b 243 1251 192 1240 206 1251 m 722 986 b 783 925 768 986 783 971 l 783 769 b 722 708 783 724 768 708 l 378 708 l 378 636 l 644 636 b 706 575 690 636 706 621 l 706 419 b 644 358 706 374 690 358 l 378 358 l 378 279 l 732 279 b 793 218 778 279 793 264 l 793 61 b 732 0 793 15 778 0 l 117 0 b 56 61 71 0 56 15 l 56 925 b 117 986 56 971 71 986 "},"ē":{"ha":771,"x_min":0,"x_max":0,"o":"m 550 979 b 599 931 588 979 599 969 l 599 863 b 550 813 599 824 588 813 l 228 813 b 181 863 190 813 181 822 l 181 931 b 228 979 181 968 193 979 m 28 411 b 389 743 28 626 156 743 b 658 654 507 743 597 714 b 750 428 719 594 750 519 l 750 360 b 671 285 750 310 724 285 l 333 285 l 333 267 b 392 196 333 219 353 196 b 481 242 426 196 457 211 b 557 253 499 265 506 269 l 678 203 b 708 124 717 186 726 160 b 388 -21 657 28 550 -21 b 28 313 142 -21 28 111 m 444 482 b 389 543 444 525 432 543 b 333 482 349 543 333 525 l 333 469 l 444 469 "},"Ĕ":{"ha":822,"x_min":0,"x_max":0,"o":"m 685 1196 b 419 1043 646 1094 557 1043 b 156 1196 282 1043 194 1094 b 181 1246 146 1224 151 1235 l 290 1288 b 346 1271 324 1299 328 1294 b 419 1233 364 1246 388 1233 b 492 1271 449 1233 474 1246 b 546 1288 508 1294 513 1297 l 660 1246 b 685 1196 686 1236 694 1219 m 722 986 b 783 925 768 986 783 971 l 783 769 b 722 708 783 724 768 708 l 378 708 l 378 636 l 644 636 b 706 575 690 636 706 621 l 706 419 b 644 358 706 374 690 358 l 378 358 l 378 279 l 732 279 b 793 218 778 279 793 264 l 793 61 b 732 0 793 15 778 0 l 117 0 b 56 61 71 0 56 15 l 56 925 b 117 986 56 971 71 986 "},"ĕ":{"ha":771,"x_min":0,"x_max":0,"o":"m 654 940 b 389 788 615 839 526 788 b 125 940 251 788 164 839 b 150 990 115 968 121 979 l 260 1032 b 315 1015 293 1043 297 1039 b 389 978 333 990 357 978 b 461 1015 418 978 443 990 b 515 1032 478 1039 482 1042 l 629 990 b 654 940 656 981 664 964 m 28 411 b 389 743 28 626 156 743 b 658 654 507 743 597 714 b 750 428 719 594 750 519 l 750 360 b 671 285 750 310 724 285 l 333 285 l 333 267 b 392 196 333 219 353 196 b 481 242 426 196 457 211 b 557 253 499 265 506 269 l 678 203 b 708 124 717 186 726 160 b 388 -21 657 28 550 -21 b 28 313 142 -21 28 111 m 444 482 b 389 543 444 525 432 543 b 333 482 349 543 333 525 l 333 469 l 444 469 "},"Ė":{"ha":822,"x_min":0,"x_max":0,"o":"m 424 1288 b 539 1171 514 1288 539 1261 l 539 1160 b 424 1043 539 1069 514 1043 l 415 1043 b 299 1160 325 1043 299 1069 l 299 1171 b 415 1288 299 1261 325 1288 m 722 986 b 783 925 768 986 783 971 l 783 769 b 722 708 783 724 768 708 l 378 708 l 378 636 l 644 636 b 706 575 690 636 706 621 l 706 419 b 644 358 706 374 690 358 l 378 358 l 378 279 l 732 279 b 793 218 778 279 793 264 l 793 61 b 732 0 793 15 778 0 l 117 0 b 56 61 71 0 56 15 l 56 925 b 117 986 56 971 71 986 "},"ė":{"ha":771,"x_min":0,"x_max":0,"o":"m 393 1036 b 508 919 483 1036 508 1010 l 508 908 b 393 792 508 818 483 792 l 385 792 b 268 908 294 792 268 818 l 268 919 b 385 1036 268 1010 294 1036 m 28 411 b 389 743 28 626 156 743 b 658 654 507 743 597 714 b 750 428 719 594 750 519 l 750 360 b 671 285 750 310 724 285 l 333 285 l 333 267 b 392 196 333 219 353 196 b 481 242 426 196 457 211 b 557 253 499 265 506 269 l 678 203 b 708 124 717 186 726 160 b 388 -21 657 28 550 -21 b 28 313 142 -21 28 111 m 444 482 b 389 543 444 525 432 543 b 333 482 349 543 333 525 l 333 469 l 444 469 "},"Ę":{"ha":822,"x_min":0,"x_max":0,"o":"m 722 986 b 783 925 768 986 783 971 l 783 769 b 722 708 783 724 768 708 l 378 708 l 378 636 l 644 636 b 706 575 690 636 706 621 l 706 419 b 644 358 706 374 690 358 l 378 358 l 378 279 l 732 279 b 793 218 778 279 793 264 l 793 61 b 783 17 793 40 790 26 b 744 -24 779 10 765 -3 b 694 -85 722 -44 706 -64 b 681 -150 682 -104 678 -126 b 704 -175 682 -167 690 -175 b 731 -167 713 -175 721 -172 b 765 -175 746 -157 758 -160 l 797 -249 b 786 -294 806 -269 801 -285 b 618 -342 740 -326 685 -342 b 458 -246 525 -342 472 -310 b 560 0 442 -167 475 -85 l 117 0 b 56 61 71 0 56 15 l 56 925 b 117 986 56 971 71 986 "},"ę":{"ha":772,"x_min":0,"x_max":0,"o":"m 28 411 b 389 743 28 626 156 743 b 658 654 507 743 597 714 b 750 428 719 594 750 519 l 750 360 b 671 285 750 310 724 285 l 333 285 l 333 267 b 392 196 333 219 353 196 b 481 242 426 196 457 211 b 557 253 499 265 506 269 l 678 203 b 708 124 717 186 726 160 b 660 60 696 100 681 79 b 561 -150 589 -17 556 -87 b 585 -175 563 -167 571 -175 b 611 -167 593 -175 601 -172 b 646 -175 626 -157 639 -160 l 678 -249 b 667 -294 686 -269 682 -285 b 499 -342 621 -326 565 -342 b 339 -246 406 -342 353 -310 b 421 -21 324 -175 350 -100 l 388 -21 b 28 313 142 -21 28 111 m 444 482 b 389 543 444 525 432 543 b 333 482 349 543 333 525 l 333 469 l 444 469 "},"Ě":{"ha":822,"x_min":0,"x_max":0,"o":"m 690 1286 b 704 1233 736 1286 728 1257 l 558 1085 b 513 1051 540 1067 525 1056 b 444 1044 500 1047 478 1044 l 394 1044 b 289 1085 338 1044 324 1050 l 142 1233 b 153 1286 118 1257 107 1286 l 303 1286 b 404 1256 368 1286 383 1282 l 433 1219 l 463 1254 b 563 1286 486 1282 501 1286 m 722 986 b 783 925 768 986 783 971 l 783 769 b 722 708 783 724 768 708 l 378 708 l 378 636 l 644 636 b 706 575 690 636 706 621 l 706 419 b 644 358 706 374 690 358 l 378 358 l 378 279 l 732 279 b 793 218 778 279 793 264 l 793 61 b 732 0 793 15 778 0 l 117 0 b 56 61 71 0 56 15 l 56 925 b 117 986 56 971 71 986 "},"ě":{"ha":771,"x_min":0,"x_max":0,"o":"m 638 1006 b 650 957 679 1006 674 981 l 517 819 b 475 789 500 803 486 793 b 413 782 464 785 443 782 l 367 782 b 269 819 313 782 303 786 l 135 957 b 144 1006 111 981 103 1006 l 282 1006 b 375 978 342 1006 357 1001 l 401 944 l 429 976 b 521 1006 450 1003 464 1006 m 28 411 b 389 743 28 626 156 743 b 658 654 507 743 597 714 b 750 428 719 594 750 519 l 750 360 b 671 285 750 310 724 285 l 333 285 l 333 267 b 392 196 333 219 353 196 b 481 242 426 196 457 211 b 557 253 499 265 506 269 l 678 203 b 708 124 717 186 726 160 b 388 -21 657 28 550 -21 b 28 313 142 -21 28 111 m 444 482 b 389 543 444 525 432 543 b 333 482 349 543 333 525 l 333 469 l 444 469 "},"Ĝ":{"ha":951,"x_min":0,"x_max":0,"o":"m 515 1299 b 621 1258 571 1299 583 1293 l 772 1110 b 753 1057 799 1086 797 1057 l 607 1057 b 506 1088 540 1057 524 1061 l 478 1126 l 447 1089 b 347 1057 425 1061 408 1057 l 210 1057 b 190 1110 165 1057 164 1086 l 340 1258 b 388 1292 358 1276 375 1288 b 454 1299 400 1296 422 1299 m 860 575 b 921 514 906 575 921 560 l 921 336 b 804 79 921 232 882 146 b 478 -21 725 13 617 -21 b 35 382 196 -21 35 132 l 35 604 b 478 1007 35 854 196 1007 b 899 754 696 1007 836 922 b 860 676 914 711 903 692 l 671 610 b 593 649 626 597 610 604 b 478 728 571 706 543 728 b 357 606 383 728 357 694 l 357 381 b 478 258 357 292 383 258 b 594 326 556 258 594 281 l 594 332 l 496 332 b 435 393 450 332 435 347 l 435 514 b 496 575 435 560 450 575 "},"ĝ":{"ha":764,"x_min":0,"x_max":0,"o":"m 436 1024 b 540 985 492 1024 503 1018 l 688 839 b 668 788 714 815 713 788 l 526 788 b 426 817 461 788 444 793 l 400 856 l 369 818 b 272 788 349 792 332 788 l 149 788 b 129 839 106 788 103 815 l 276 985 b 321 1017 294 1001 308 1013 b 388 1024 333 1021 356 1024 m 39 417 b 390 743 39 629 157 743 b 675 694 508 743 603 726 b 731 610 724 672 731 660 l 731 14 b 381 -319 731 -190 621 -319 b 60 -175 219 -319 125 -275 b 90 -96 39 -142 49 -115 l 243 -22 b 313 -33 272 -8 296 -12 b 339 -65 314 -37 332 -60 b 379 -81 344 -71 363 -81 b 425 -28 410 -81 425 -62 l 425 22 b 364 19 399 21 379 19 b 39 329 146 19 39 129 m 421 481 b 392 483 417 482 407 483 b 344 442 360 483 344 469 l 344 315 b 388 278 344 290 358 278 l 425 283 l 425 475 b 421 481 425 476 424 479 "},"Ğ":{"ha":951,"x_min":0,"x_max":0,"o":"m 743 1210 b 478 1057 704 1108 615 1057 b 214 1210 340 1057 253 1108 b 239 1260 204 1238 210 1249 l 349 1301 b 404 1285 382 1313 386 1308 b 478 1247 422 1260 446 1247 b 550 1285 507 1247 532 1260 b 604 1301 567 1308 571 1311 l 718 1260 b 743 1210 744 1250 753 1233 m 860 575 b 921 514 906 575 921 560 l 921 336 b 804 79 921 232 882 146 b 478 -21 725 13 617 -21 b 35 382 196 -21 35 132 l 35 604 b 478 1007 35 854 196 1007 b 899 754 696 1007 836 922 b 860 676 914 711 903 692 l 671 610 b 593 649 626 597 610 604 b 478 728 571 706 543 728 b 357 606 383 728 357 694 l 357 381 b 478 258 357 292 383 258 b 594 326 556 258 594 281 l 594 332 l 496 332 b 435 393 450 332 435 347 l 435 514 b 496 575 435 560 450 575 "},"ğ":{"ha":764,"x_min":0,"x_max":0,"o":"m 665 940 b 400 788 626 839 538 788 b 136 940 263 788 175 839 b 161 990 126 968 132 979 l 271 1032 b 326 1015 304 1043 308 1039 b 400 978 344 990 368 978 b 472 1015 429 978 454 990 b 526 1032 489 1039 493 1042 l 640 990 b 665 940 667 981 675 964 m 39 417 b 390 743 39 629 157 743 b 675 694 508 743 603 726 b 731 610 724 672 731 660 l 731 14 b 381 -319 731 -190 621 -319 b 60 -175 219 -319 125 -275 b 90 -96 39 -142 49 -115 l 243 -22 b 313 -33 272 -8 296 -12 b 339 -65 314 -37 332 -60 b 379 -81 344 -71 363 -81 b 425 -28 410 -81 425 -62 l 425 22 b 364 19 399 21 379 19 b 39 329 146 19 39 129 m 421 481 b 392 483 417 482 407 483 b 344 442 360 483 344 469 l 344 315 b 388 278 344 290 358 278 l 425 283 l 425 475 b 421 481 425 476 424 479 "},"Ġ":{"ha":951,"x_min":0,"x_max":0,"o":"m 482 1301 b 597 1185 572 1301 597 1275 l 597 1174 b 482 1057 597 1083 572 1057 l 474 1057 b 357 1174 383 1057 357 1083 l 357 1185 b 474 1301 357 1275 383 1301 m 860 575 b 921 514 906 575 921 560 l 921 336 b 804 79 921 232 882 146 b 478 -21 725 13 617 -21 b 35 382 196 -21 35 132 l 35 604 b 478 1007 35 854 196 1007 b 899 754 696 1007 836 922 b 860 676 914 711 903 692 l 671 610 b 593 649 626 597 610 604 b 478 728 571 706 543 728 b 357 606 383 728 357 694 l 357 381 b 478 258 357 292 383 258 b 594 326 556 258 594 281 l 594 332 l 496 332 b 435 393 450 332 435 347 l 435 514 b 496 575 435 560 450 575 "},"ġ":{"ha":764,"x_min":0,"x_max":0,"o":"m 404 1036 b 519 919 494 1036 519 1010 l 519 908 b 404 792 519 818 494 792 l 396 792 b 279 908 306 792 279 818 l 279 919 b 396 1036 279 1010 306 1036 m 39 417 b 390 743 39 629 157 743 b 675 694 508 743 603 726 b 731 610 724 672 731 660 l 731 14 b 381 -319 731 -190 621 -319 b 60 -175 219 -319 125 -275 b 90 -96 39 -142 49 -115 l 243 -22 b 313 -33 272 -8 296 -12 b 339 -65 314 -37 332 -60 b 379 -81 344 -71 363 -81 b 425 -28 410 -81 425 -62 l 425 22 b 364 19 399 21 379 19 b 39 329 146 19 39 129 m 421 481 b 392 483 417 482 407 483 b 344 442 360 483 344 469 l 344 315 b 388 278 344 290 358 278 l 425 283 l 425 475 b 421 481 425 476 424 479 "},"Ģ":{"ha":951,"x_min":0,"x_max":0,"o":"m 860 575 b 921 514 906 575 921 560 l 921 336 b 804 79 921 232 882 146 b 478 -21 725 13 617 -21 b 35 382 196 -21 35 132 l 35 604 b 478 1007 35 854 196 1007 b 899 754 696 1007 836 922 b 860 676 914 711 903 692 l 671 610 b 593 649 626 597 610 604 b 478 728 571 706 543 728 b 357 606 383 728 357 694 l 357 381 b 478 258 357 292 383 258 b 594 326 556 258 594 281 l 594 332 l 496 332 b 435 393 450 332 435 347 l 435 514 b 496 575 435 560 450 575 m 556 -315 b 489 -361 546 -346 524 -361 l 382 -361 b 342 -315 351 -361 338 -346 l 365 -122 b 428 -60 371 -78 388 -60 l 578 -58 b 625 -122 625 -58 640 -79 "},"ģ":{"ha":764,"x_min":0,"x_max":0,"o":"m 318 978 b 397 1028 335 1018 353 1028 l 499 1028 b 536 986 532 1028 540 1019 l 525 849 b 454 785 521 799 504 785 l 306 785 b 258 849 254 785 239 806 m 39 417 b 390 743 39 629 157 743 b 675 694 508 743 603 726 b 731 610 724 672 731 660 l 731 14 b 381 -319 731 -190 621 -319 b 60 -175 219 -319 125 -275 b 90 -96 39 -142 49 -115 l 243 -22 b 313 -33 272 -8 296 -12 b 339 -65 314 -37 332 -60 b 379 -81 344 -71 363 -81 b 425 -28 410 -81 425 -62 l 425 22 b 364 19 399 21 379 19 b 39 329 146 19 39 129 m 421 481 b 392 483 417 482 407 483 b 344 442 360 483 344 469 l 344 315 b 388 278 344 290 358 278 l 425 283 l 425 475 b 421 481 425 476 424 479 "},"Ĥ":{"ha":961,"x_min":0,"x_max":0,"o":"m 518 1285 b 624 1244 574 1285 586 1279 l 775 1096 b 756 1043 801 1072 800 1043 l 610 1043 b 508 1074 543 1043 526 1047 l 481 1113 l 450 1075 b 350 1043 428 1047 411 1043 l 213 1043 b 193 1096 168 1043 167 1072 l 343 1244 b 390 1278 361 1263 378 1274 b 457 1285 403 1282 425 1285 m 844 988 b 906 926 890 988 906 972 l 906 61 b 844 0 906 15 890 0 l 644 0 b 583 61 599 0 583 15 l 583 361 l 378 361 l 378 61 b 317 0 378 15 363 0 l 117 0 b 56 61 71 0 56 15 l 56 926 b 117 988 56 972 71 988 l 317 988 b 378 926 363 988 378 972 l 378 639 l 583 639 l 583 926 b 644 988 583 972 599 988 "},"ĥ":{"ha":776,"x_min":0,"x_max":0,"o":"m 239 1311 b 340 1272 293 1311 306 1306 l 486 1129 b 467 1079 513 1107 510 1079 l 328 1079 b 231 1108 263 1079 247 1082 l 203 1146 l 174 1110 b 78 1079 153 1083 138 1079 l -43 1079 b -62 1129 -86 1079 -89 1107 l 82 1272 b 126 1304 100 1289 114 1300 b 192 1311 139 1308 160 1311 m 300 1028 b 356 972 343 1028 356 1013 l 356 742 b 417 743 368 743 389 743 b 742 432 635 743 742 632 l 742 56 b 686 0 742 15 729 0 l 492 0 b 436 56 449 0 436 15 l 436 418 b 386 469 436 457 424 469 b 356 468 372 469 363 469 l 356 56 b 300 0 356 15 343 0 l 106 0 b 50 56 63 0 50 15 l 50 972 b 106 1028 50 1013 63 1028 "},"Ħ":{"ha":1022,"x_min":0,"x_max":0,"o":"m 983 886 b 1018 849 1011 886 1018 878 l 1018 757 b 983 719 1018 728 1011 719 l 935 719 l 935 61 b 874 0 935 15 919 0 l 674 0 b 613 61 628 0 613 15 l 613 361 l 407 361 l 407 61 b 346 0 407 15 392 0 l 146 0 b 85 61 100 0 85 15 l 85 719 l 38 719 b 3 757 10 719 3 728 l 3 849 b 38 886 3 874 14 886 l 85 886 l 85 926 b 146 988 85 972 100 988 l 346 988 b 407 926 392 988 407 972 l 407 886 l 613 886 l 613 926 b 674 988 613 972 628 988 l 874 988 b 935 926 919 988 935 972 l 935 886 m 407 719 l 407 639 l 613 639 l 613 719 "},"ħ":{"ha":778,"x_min":0,"x_max":0,"o":"m 353 742 b 414 743 365 743 386 743 b 739 432 632 743 739 632 l 739 56 b 683 0 739 15 724 0 l 489 0 b 433 56 449 0 433 15 l 433 418 b 383 469 433 457 421 469 b 353 468 369 469 360 469 l 353 56 b 297 0 353 15 338 0 l 103 0 b 47 56 63 0 47 15 l 47 799 l 6 799 b -31 836 -22 799 -31 807 l -31 914 b 6 951 -31 942 -21 951 l 47 951 l 47 972 b 103 1028 47 1013 63 1028 l 297 1028 b 353 972 338 1028 353 1013 l 353 951 l 447 951 b 483 914 475 951 483 943 l 483 836 b 447 799 483 807 475 799 l 353 799 "},"Ĩ":{"ha":433,"x_min":0,"x_max":0,"o":"m 439 1271 b 472 1238 461 1271 472 1260 b 326 1060 472 1108 422 1060 b 203 1083 283 1060 242 1068 b 132 1107 164 1099 140 1107 b 114 1085 119 1107 114 1100 b 89 1060 114 1068 106 1060 l -18 1060 b -51 1093 -40 1060 -51 1071 b 92 1271 -51 1211 -4 1271 b 218 1247 136 1271 178 1263 b 290 1224 258 1232 282 1224 b 308 1246 303 1224 308 1231 b 333 1271 308 1263 317 1271 m 56 931 b 111 986 56 971 71 986 l 322 986 b 378 931 363 986 378 971 l 378 56 b 322 0 378 15 363 0 l 111 0 b 56 56 71 0 56 15 "},"ĩ":{"ha":397,"x_min":0,"x_max":0,"o":"m 369 1025 b 397 990 388 1025 397 1014 b 279 807 397 857 357 807 b 178 832 243 807 210 815 b 121 856 146 847 128 856 b 107 832 111 856 107 847 b 86 807 107 815 100 807 l 0 807 b -28 842 -18 807 -28 818 b 89 1025 -28 964 11 1025 b 190 1001 124 1025 158 1017 b 249 976 222 985 242 976 b 264 1000 258 976 264 985 b 285 1025 264 1017 271 1025 m 296 722 b 351 667 339 722 351 707 l 351 56 b 296 0 351 15 339 0 l 101 0 b 46 56 58 0 46 15 l 46 667 b 101 722 46 707 58 722 "},"Ī":{"ha":433,"x_min":0,"x_max":0,"o":"m 392 1251 b 444 1200 435 1251 444 1240 l 444 1129 b 392 1078 444 1089 435 1078 l 40 1078 b -11 1129 0 1078 -11 1089 l -11 1200 b 40 1251 -11 1240 3 1251 m 56 931 b 111 986 56 971 71 986 l 322 986 b 378 931 363 986 378 971 l 378 56 b 322 0 378 15 363 0 l 111 0 b 56 56 71 0 56 15 "},"ī":{"ha":397,"x_min":0,"x_max":0,"o":"m 336 990 b 378 939 369 990 378 979 l 378 868 b 336 817 378 828 369 817 l 60 817 b 19 868 28 817 19 828 l 19 939 b 60 990 19 979 31 990 m 296 722 b 351 667 339 722 351 707 l 351 56 b 296 0 351 15 339 0 l 101 0 b 46 56 58 0 46 15 l 46 667 b 101 722 46 707 58 722 "},"Ĭ":{"ha":433,"x_min":0,"x_max":0,"o":"m 488 1196 b 222 1043 449 1094 360 1043 b -42 1196 85 1043 -3 1094 b -17 1246 -51 1224 -46 1235 l 93 1288 b 149 1271 126 1299 131 1294 b 222 1233 167 1246 190 1233 b 294 1271 251 1233 276 1246 b 349 1288 311 1294 315 1297 l 463 1246 b 488 1196 489 1236 497 1219 m 61 931 b 117 986 61 971 76 986 l 328 986 b 383 931 368 986 383 971 l 383 56 b 328 0 383 15 368 0 l 117 0 b 61 56 76 0 61 15 "},"ĭ":{"ha":397,"x_min":0,"x_max":0,"o":"m 444 990 b 469 940 471 981 479 964 b 204 788 431 839 342 788 b -60 940 67 788 -21 839 b -35 990 -69 968 -64 979 l 75 1032 b 131 1015 108 1043 113 1039 b 204 978 149 990 172 978 b 276 1015 233 978 258 990 b 331 1032 293 1039 297 1042 m 301 722 b 357 667 344 722 357 707 l 357 56 b 301 0 357 15 344 0 l 107 0 b 51 56 64 0 51 15 l 51 667 b 107 722 51 707 64 722 "},"Į":{"ha":433,"x_min":0,"x_max":0,"o":"m 417 -249 b 406 -294 425 -269 421 -285 b 238 -342 360 -326 304 -342 b 78 -246 144 -342 92 -310 b 172 0 60 -164 92 -82 b 82 68 99 0 82 17 l 82 931 b 138 986 82 971 97 986 l 349 986 b 404 931 389 986 404 971 l 404 56 b 383 6 404 29 397 13 b 300 -150 324 -50 296 -101 b 324 -175 301 -167 310 -175 b 350 -167 331 -175 340 -172 b 385 -175 365 -157 378 -160 "},"į":{"ha":397,"x_min":0,"x_max":0,"o":"m 171 778 b 64 885 89 778 64 803 l 64 900 b 171 1007 64 982 89 1007 l 279 1007 b 386 900 361 1007 386 982 l 386 885 b 279 778 386 803 361 778 m 393 -249 b 382 -294 401 -269 397 -285 b 214 -342 336 -326 281 -342 b 54 -246 121 -342 68 -310 b 151 0 36 -167 69 -85 b 72 65 86 0 72 15 l 72 667 b 128 722 72 707 85 722 l 322 722 b 378 667 365 722 378 707 l 378 56 b 361 8 378 32 372 15 b 276 -150 301 -49 272 -101 b 300 -175 278 -167 286 -175 b 326 -167 308 -175 317 -172 b 361 -175 342 -157 354 -160 "},"İ":{"ha":433,"x_min":0,"x_max":0,"o":"m 221 1288 b 336 1171 311 1288 336 1261 l 336 1160 b 221 1043 336 1069 311 1043 l 213 1043 b 96 1160 122 1043 96 1069 l 96 1171 b 213 1288 96 1261 122 1288 m 56 931 b 111 986 56 971 71 986 l 322 986 b 378 931 363 986 378 971 l 378 56 b 322 0 378 15 363 0 l 111 0 b 56 56 71 0 56 15 "},"ı":{"ha":397,"x_min":0,"x_max":0,"o":"m 296 722 b 351 667 339 722 351 707 l 351 56 b 296 0 351 15 339 0 l 101 0 b 46 56 58 0 46 15 l 46 667 b 101 722 46 707 58 722 "},"Ĳ":{"ha":1250,"x_min":0,"x_max":0,"o":"m 1142 988 b 1201 928 1186 988 1201 972 l 1201 350 b 804 -21 1201 115 1064 -21 b 429 222 614 -21 489 60 b 468 300 414 265 425 285 l 649 365 b 732 332 693 382 714 375 b 814 257 754 281 775 257 b 879 349 857 257 879 288 l 879 928 b 939 988 879 972 893 988 m 56 931 b 111 986 56 971 71 986 l 322 986 b 378 931 363 986 378 971 l 378 56 b 322 0 378 15 363 0 l 111 0 b 56 56 71 0 56 15 "},"ĳ":{"ha":800,"x_min":0,"x_max":0,"o":"m 253 1007 b 360 900 335 1007 360 982 l 360 885 b 253 778 360 803 335 778 l 144 778 b 38 885 63 778 38 803 l 38 900 b 144 1007 38 982 63 1007 m 654 1007 b 761 900 736 1007 761 982 l 761 885 b 654 778 761 803 736 778 l 546 778 b 439 885 464 778 439 803 l 439 900 b 546 1007 439 982 464 1007 m 296 722 b 351 667 339 722 351 707 l 351 56 b 296 0 351 15 339 0 l 101 0 b 46 56 58 0 46 15 l 46 667 b 101 722 46 707 58 722 m 696 722 b 753 667 739 722 753 710 l 753 -17 b 383 -319 753 -235 633 -319 b 326 -262 340 -319 326 -306 l 326 -114 b 383 -57 326 -71 340 -57 b 447 8 426 -57 447 -35 l 447 667 b 504 722 447 710 461 722 "},"Ĵ":{"ha":821,"x_min":0,"x_max":0,"o":"m 658 1285 b 764 1244 714 1285 726 1279 l 915 1096 b 896 1043 942 1072 940 1043 l 750 1043 b 649 1074 683 1043 667 1047 l 621 1113 l 590 1075 b 490 1043 568 1047 551 1043 l 353 1043 b 333 1096 308 1043 307 1072 l 483 1244 b 531 1278 501 1263 518 1274 b 597 1285 543 1282 565 1285 m 722 988 b 782 928 767 988 782 972 l 782 350 b 385 -21 782 115 644 -21 b 10 222 194 -21 69 60 b 49 300 -6 265 6 285 l 229 365 b 313 332 274 382 294 375 b 394 257 335 281 356 257 b 460 349 438 257 460 288 l 460 928 b 519 988 460 972 474 988 "},"ĵ":{"ha":397,"x_min":0,"x_max":0,"o":"m 239 1024 b 343 985 294 1024 306 1018 l 490 839 b 471 788 517 815 515 788 l 329 788 b 229 817 264 788 247 793 l 201 856 l 172 818 b 75 788 151 792 135 788 l -49 788 b -68 839 -92 788 -94 815 l 79 985 b 190 1024 114 1018 128 1024 m 299 722 b 356 667 342 722 356 710 l 356 -17 b -14 -319 356 -235 236 -319 b -71 -262 -57 -319 -71 -306 l -71 -114 b -14 -57 -71 -71 -57 -57 b 50 8 29 -57 50 -35 l 50 667 b 107 722 50 710 64 722 "},"Ķ":{"ha":928,"x_min":0,"x_max":0,"o":"m 919 76 b 878 0 943 33 926 0 l 690 0 b 560 65 613 0 586 11 l 447 299 b 390 357 428 338 408 357 l 378 357 l 378 61 b 317 0 378 15 363 0 l 117 0 b 56 61 71 0 56 15 l 56 925 b 117 986 56 971 71 986 l 317 986 b 378 925 363 986 378 971 l 378 638 l 393 636 l 403 636 l 558 931 b 596 976 571 954 583 969 b 669 986 608 983 632 986 l 868 986 b 906 919 913 986 928 960 l 686 503 b 732 432 703 482 718 458 m 540 -315 b 474 -361 531 -346 508 -361 l 367 -361 b 326 -315 336 -361 322 -346 l 350 -122 b 413 -60 356 -78 372 -60 l 563 -58 b 610 -122 610 -58 625 -79 "},"ķ":{"ha":790,"x_min":0,"x_max":0,"o":"m 765 78 b 714 0 792 26 775 0 l 556 0 b 446 57 485 0 461 11 l 393 221 b 354 250 386 240 374 250 l 350 250 l 350 56 b 296 0 350 15 336 0 l 100 0 b 46 56 60 0 46 13 l 46 972 b 100 1028 46 1015 60 1028 l 296 1028 b 350 972 336 1028 350 1013 l 350 485 l 365 485 l 372 485 l 450 664 b 551 722 471 710 490 722 l 704 722 b 756 647 761 722 779 697 l 626 364 l 640 338 m 494 -269 b 415 -319 478 -310 460 -319 l 314 -319 b 276 -278 281 -319 272 -311 l 288 -118 b 358 -54 292 -68 308 -54 l 507 -54 b 554 -118 557 -54 571 -75 "},"ĸ":{"ha":793,"x_min":0,"x_max":0,"o":"m 771 74 b 721 0 792 24 778 0 l 563 0 b 453 56 490 0 471 11 l 392 210 l 351 157 l 351 58 b 293 0 351 14 338 0 l 104 0 b 46 58 60 0 46 14 l 46 665 b 104 722 46 708 60 722 l 293 722 b 351 665 338 722 351 708 l 351 571 l 422 668 b 521 722 454 713 467 722 l 731 722 b 765 658 782 722 793 690 l 617 464 "},"Ĺ":{"ha":763,"x_min":0,"x_max":0,"o":"m 219 1278 b 311 1272 257 1299 288 1296 l 401 1172 b 393 1117 428 1146 425 1126 l 133 1047 b 68 1056 101 1038 79 1040 l 19 1114 b 24 1167 -3 1140 0 1151 m 318 986 b 379 925 364 986 379 971 l 379 279 l 689 279 b 750 218 735 279 750 264 l 750 61 b 689 0 750 15 735 0 l 118 0 b 57 61 72 0 57 15 l 57 925 b 118 986 57 971 72 986 "},"ĺ":{"ha":397,"x_min":0,"x_max":0,"o":"m 186 1313 b 278 1310 226 1336 257 1336 l 363 1208 b 356 1153 388 1179 385 1161 l 86 1074 b 21 1079 53 1063 36 1063 l -26 1136 b -24 1189 -47 1163 -47 1176 m 328 56 b 272 0 328 15 315 0 l 78 0 b 22 56 35 0 22 15 l 22 972 b 78 1028 22 1013 35 1028 l 272 1028 b 328 972 315 1028 328 1013 "},"Ļ":{"ha":763,"x_min":0,"x_max":0,"o":"m 317 986 b 378 925 363 986 378 971 l 378 279 l 688 279 b 749 218 733 279 749 264 l 749 61 b 688 0 749 15 733 0 l 117 0 b 56 61 71 0 56 15 l 56 925 b 117 986 56 971 71 986 m 453 -315 b 386 -361 443 -346 421 -361 l 279 -361 b 239 -315 249 -361 235 -346 l 263 -122 b 325 -60 268 -78 285 -60 l 475 -58 b 522 -122 522 -58 538 -79 "},"ļ":{"ha":397,"x_min":0,"x_max":0,"o":"m 354 56 b 299 0 354 15 342 0 l 104 0 b 49 56 61 0 49 15 l 49 972 b 104 1028 49 1013 61 1028 l 299 1028 b 354 972 342 1028 354 1013 m 272 -260 b 193 -310 256 -300 238 -310 l 83 -310 b 46 -268 50 -310 42 -301 l 57 -114 b 128 -50 61 -64 78 -50 l 285 -50 b 332 -114 335 -50 349 -71 "},"Ľ":{"ha":768,"x_min":0,"x_max":0,"o":"m 315 986 b 376 925 361 986 376 971 l 376 279 l 686 279 b 747 218 732 279 747 264 l 747 61 b 686 0 747 15 732 0 l 115 0 b 54 61 69 0 54 15 l 54 925 b 115 986 54 971 69 986 m 647 715 b 576 665 632 675 621 665 l 471 665 b 438 703 442 665 433 674 l 463 929 b 526 986 468 974 482 986 l 682 986 b 731 929 732 986 746 967 "},"ľ":{"ha":544,"x_min":0,"x_max":0,"o":"m 351 56 b 296 0 351 15 339 0 l 101 0 b 46 56 58 0 46 15 l 46 972 b 101 1028 46 1013 58 1028 l 296 1028 b 351 972 339 1028 351 1013 m 597 767 b 526 717 582 726 571 717 l 421 717 b 388 754 392 717 383 725 l 408 971 b 472 1028 413 1015 428 1028 l 628 1028 b 676 971 675 1028 692 1008 "},"Ŀ":{"ha":768,"x_min":0,"x_max":0,"o":"m 317 986 b 378 925 363 986 378 971 l 378 279 l 688 279 b 749 218 733 279 749 264 l 749 61 b 688 0 749 15 733 0 l 117 0 b 56 61 71 0 56 15 l 56 925 b 117 986 56 971 71 986 m 614 721 b 718 618 693 721 718 696 l 718 540 b 614 439 718 464 693 439 l 542 439 b 438 540 464 439 438 464 l 438 618 b 542 721 438 696 464 721 "},"ŀ":{"ha":731,"x_min":0,"x_max":0,"o":"m 351 56 b 296 0 351 15 339 0 l 101 0 b 46 56 58 0 46 15 l 46 972 b 101 1028 46 1013 58 1028 l 296 1028 b 351 972 339 1028 351 1013 m 604 681 b 718 567 692 681 718 651 l 718 482 b 604 369 718 397 689 369 l 524 369 b 410 482 439 369 410 397 l 410 567 b 524 681 410 651 436 681 "},"Ł":{"ha":842,"x_min":0,"x_max":0,"o":"m 782 279 b 843 218 828 279 843 264 l 843 61 b 782 0 843 15 828 0 l 211 0 b 150 61 165 0 150 15 l 150 344 l 100 322 b 40 340 72 310 53 315 l 3 418 b 21 469 -8 442 -3 460 l 150 528 l 150 925 b 211 986 150 971 165 986 l 411 986 b 472 925 457 986 472 971 l 472 671 l 611 733 b 671 715 639 746 658 740 l 708 638 b 690 586 719 614 714 596 l 472 489 l 472 279 "},"ł":{"ha":546,"x_min":0,"x_max":0,"o":"m 574 613 b 558 560 586 590 582 572 l 444 500 l 444 56 b 389 0 444 15 429 0 l 194 0 b 139 56 154 0 139 15 l 139 338 l 110 322 b 50 336 83 307 64 313 l 13 399 b 28 451 0 421 4 439 l 139 510 l 139 972 b 194 1028 139 1013 154 1028 l 389 1028 b 444 972 429 1028 444 1013 l 444 672 l 476 689 b 536 675 503 704 522 699 "},"Ń":{"ha":975,"x_min":0,"x_max":0,"o":"m 494 1278 b 586 1272 532 1299 563 1296 l 676 1172 b 668 1117 703 1146 700 1126 l 408 1047 b 343 1056 376 1038 354 1040 l 294 1114 b 299 1167 272 1140 275 1151 m 858 986 b 919 925 904 986 919 971 l 919 61 b 858 0 919 15 904 0 l 660 0 b 600 29 633 0 613 10 l 443 279 b 381 396 414 326 393 365 b 315 589 368 425 346 490 l 304 589 b 349 365 328 479 343 404 b 356 185 353 326 356 267 l 356 61 b 294 0 356 15 340 0 l 117 0 b 56 61 71 0 56 15 l 56 925 b 117 986 56 971 71 986 l 329 986 b 389 958 357 986 376 976 l 569 664 b 619 572 596 621 611 590 b 647 504 624 563 632 540 b 688 404 663 467 675 433 l 700 404 b 632 646 663 528 639 608 b 619 799 624 682 619 733 l 619 925 b 681 986 619 971 635 986 "},"ń":{"ha":774,"x_min":0,"x_max":0,"o":"m 381 1022 b 472 1019 418 1044 449 1043 l 567 924 b 560 868 593 897 590 878 l 303 789 b 238 794 271 779 250 781 l 186 851 b 189 904 167 872 168 890 m 103 689 b 410 743 193 725 296 743 b 735 432 628 743 735 632 l 735 56 b 679 0 735 15 722 0 l 485 0 b 429 56 442 0 429 15 l 429 418 b 379 469 429 457 417 469 b 353 468 367 469 358 469 b 349 463 350 467 349 465 l 349 56 b 293 0 349 15 336 0 l 99 0 b 43 56 56 0 43 15 l 43 603 b 103 689 43 653 54 671 "},"Ņ":{"ha":975,"x_min":0,"x_max":0,"o":"m 858 986 b 919 925 904 986 919 971 l 919 61 b 858 0 919 15 904 0 l 660 0 b 600 29 633 0 613 10 l 443 279 b 381 396 414 326 393 365 b 315 589 368 425 346 490 l 304 589 b 349 365 328 479 343 404 b 356 185 353 326 356 267 l 356 61 b 294 0 356 15 340 0 l 117 0 b 56 61 71 0 56 15 l 56 925 b 117 986 56 971 71 986 l 329 986 b 389 958 357 986 376 976 l 569 664 b 619 572 596 621 611 590 b 647 504 624 563 632 540 b 688 404 663 467 675 433 l 700 404 b 632 646 663 528 639 608 b 619 799 624 682 619 733 l 619 925 b 681 986 619 971 635 986 m 553 -315 b 486 -361 543 -346 521 -361 l 379 -361 b 339 -315 349 -361 335 -346 l 363 -122 b 425 -60 368 -78 385 -60 l 575 -58 b 622 -122 622 -58 638 -79 "},"ņ":{"ha":774,"x_min":0,"x_max":0,"o":"m 103 689 b 410 743 193 725 296 743 b 735 432 628 743 735 632 l 735 56 b 679 0 735 15 722 0 l 485 0 b 429 56 442 0 429 15 l 429 418 b 379 469 429 457 417 469 b 353 468 367 469 358 469 b 349 463 350 467 349 465 l 349 56 b 293 0 349 15 336 0 l 99 0 b 43 56 56 0 43 15 l 43 603 b 103 689 43 653 54 671 m 471 -256 b 392 -306 454 -296 436 -306 l 290 -306 b 253 -264 257 -306 249 -297 l 264 -104 b 335 -40 268 -54 285 -40 l 483 -40 b 531 -104 533 -40 547 -61 "},"Ň":{"ha":975,"x_min":0,"x_max":0,"o":"m 764 1286 b 778 1233 810 1286 801 1257 l 632 1085 b 586 1051 614 1067 599 1056 b 518 1044 574 1047 551 1044 l 468 1044 b 363 1085 411 1044 397 1050 l 215 1233 b 226 1286 192 1257 181 1286 l 376 1286 b 478 1256 442 1286 457 1282 l 507 1219 l 536 1254 b 636 1286 560 1282 575 1286 m 858 986 b 919 925 904 986 919 971 l 919 61 b 858 0 919 15 904 0 l 660 0 b 600 29 633 0 613 10 l 443 279 b 381 396 414 326 393 365 b 315 589 368 425 346 490 l 304 589 b 349 365 328 479 343 404 b 356 185 353 326 356 267 l 356 61 b 294 0 356 15 340 0 l 117 0 b 56 61 71 0 56 15 l 56 925 b 117 986 56 971 71 986 l 329 986 b 389 958 357 986 376 976 l 569 664 b 619 572 596 621 611 590 b 647 504 624 563 632 540 b 688 404 663 467 675 433 l 700 404 b 632 646 663 528 639 608 b 619 799 624 682 619 733 l 619 925 b 681 986 619 971 635 986 "},"ň":{"ha":774,"x_min":0,"x_max":0,"o":"m 632 1006 b 644 957 674 1006 668 981 l 511 819 b 469 789 494 803 481 793 b 407 782 458 785 438 782 l 361 782 b 264 819 307 782 297 786 l 129 957 b 139 1006 106 981 97 1006 l 276 1006 b 369 978 336 1006 351 1001 l 396 944 l 424 976 b 515 1006 444 1003 458 1006 m 103 689 b 410 743 193 725 296 743 b 735 432 628 743 735 632 l 735 56 b 679 0 735 15 722 0 l 485 0 b 429 56 442 0 429 15 l 429 418 b 379 469 429 457 417 469 b 353 468 367 469 358 469 b 349 463 350 467 349 465 l 349 56 b 293 0 349 15 336 0 l 99 0 b 43 56 56 0 43 15 l 43 603 b 103 689 43 653 54 671 "},"ŉ":{"ha":774,"x_min":0,"x_max":0,"o":"m 264 785 b 186 749 242 753 229 749 l 53 749 b 26 785 24 749 17 758 l 101 979 b 174 1028 117 1018 129 1028 l 361 1028 b 397 971 410 1028 421 1004 m 108 689 b 415 743 199 725 301 743 b 740 432 633 743 740 632 l 740 56 b 685 0 740 15 728 0 l 490 0 b 435 56 447 0 435 15 l 435 418 b 385 469 435 457 422 469 b 358 468 372 469 364 469 b 354 463 356 467 354 465 l 354 56 b 299 0 354 15 342 0 l 104 0 b 49 56 61 0 49 15 l 49 603 b 108 689 49 653 60 671 "},"Ŋ":{"ha":975,"x_min":0,"x_max":0,"o":"m 858 986 b 919 925 904 986 919 971 l 919 -17 b 550 -319 919 -235 800 -319 b 493 -262 507 -319 493 -306 l 493 -114 b 550 -57 493 -71 507 -57 b 614 7 593 -57 614 -36 l 614 13 l 443 279 b 381 396 414 326 393 365 b 315 589 368 425 346 490 l 304 589 b 349 365 328 479 343 404 b 356 185 353 326 356 267 l 356 61 b 294 0 356 15 340 0 l 117 0 b 56 61 71 0 56 15 l 56 925 b 117 986 56 971 71 986 l 329 986 b 389 958 357 986 376 976 l 569 664 b 619 572 596 621 611 590 b 647 504 624 563 632 540 b 688 404 663 467 675 433 l 700 404 b 632 646 663 528 639 608 b 619 799 624 682 619 733 l 619 925 b 681 986 619 971 635 986 "},"ŋ":{"ha":775,"x_min":0,"x_max":0,"o":"m 103 689 b 410 743 193 725 296 743 b 735 432 628 743 735 632 l 735 -17 b 365 -319 735 -235 615 -319 b 308 -262 322 -319 308 -306 l 308 -114 b 365 -57 308 -71 322 -57 b 429 8 408 -57 429 -35 l 429 418 b 379 469 429 457 417 469 b 353 468 367 469 358 469 b 349 463 350 467 349 465 l 349 56 b 293 0 349 15 336 0 l 99 0 b 43 56 56 0 43 15 l 43 603 b 103 689 43 653 54 671 "},"Ō":{"ha":956,"x_min":0,"x_max":0,"o":"m 653 1265 b 706 1214 696 1265 706 1254 l 706 1143 b 653 1092 706 1103 696 1092 l 301 1092 b 250 1143 261 1092 250 1103 l 250 1214 b 301 1265 250 1254 264 1265 m 35 604 b 478 1007 35 856 196 1007 b 921 604 760 1007 921 856 l 921 382 b 478 -21 921 131 760 -21 b 35 382 196 -21 35 131 m 599 622 b 478 728 599 693 558 728 b 357 622 397 728 357 693 l 357 364 b 478 258 357 293 397 258 b 599 364 558 258 599 293 "},"ō":{"ha":774,"x_min":0,"x_max":0,"o":"m 547 979 b 596 931 585 979 596 969 l 596 863 b 547 813 596 824 585 813 l 225 813 b 178 863 188 813 178 822 l 178 931 b 225 979 178 968 190 979 m 29 428 b 386 743 29 626 157 743 b 744 428 619 743 744 626 l 744 294 b 386 -21 744 96 619 -21 b 29 294 157 -21 29 96 m 440 440 b 386 486 440 471 422 486 b 333 440 351 486 333 471 l 333 282 b 386 238 333 253 351 238 b 440 282 422 238 440 253 "},"Ŏ":{"ha":956,"x_min":0,"x_max":0,"o":"m 743 1210 b 478 1057 704 1108 615 1057 b 214 1210 340 1057 253 1108 b 239 1260 204 1238 210 1249 l 349 1301 b 404 1285 382 1313 386 1308 b 478 1247 422 1260 446 1247 b 550 1285 507 1247 532 1260 b 604 1301 567 1308 571 1311 l 718 1260 b 743 1210 744 1250 753 1233 m 35 604 b 478 1007 35 856 196 1007 b 921 604 760 1007 921 856 l 921 382 b 478 -21 921 131 760 -21 b 35 382 196 -21 35 131 m 599 622 b 478 728 599 693 558 728 b 357 622 397 728 357 693 l 357 364 b 478 258 357 293 397 258 b 599 364 558 258 599 293 "},"ŏ":{"ha":774,"x_min":0,"x_max":0,"o":"m 651 940 b 386 788 613 839 524 788 b 122 940 249 788 161 839 b 147 990 113 968 118 979 l 257 1032 b 313 1015 290 1043 294 1039 b 386 978 331 990 354 978 b 458 1015 415 978 440 990 b 513 1032 475 1039 479 1042 l 626 990 b 651 940 653 981 661 964 m 29 428 b 386 743 29 626 157 743 b 744 428 619 743 744 626 l 744 294 b 386 -21 744 96 619 -21 b 29 294 157 -21 29 96 m 440 440 b 386 486 440 471 422 486 b 333 440 351 486 333 471 l 333 282 b 386 238 333 253 351 238 b 440 282 422 238 440 253 "},"Ő":{"ha":956,"x_min":0,"x_max":0,"o":"m 301 1264 b 396 1301 325 1296 357 1308 l 514 1281 b 529 1219 553 1274 558 1243 l 360 1079 b 296 1058 338 1061 317 1054 l 211 1071 b 193 1126 178 1076 172 1103 m 606 1264 b 701 1297 632 1294 664 1306 l 822 1268 b 836 1206 861 1258 868 1228 l 657 1078 b 593 1057 629 1056 619 1051 l 508 1074 b 493 1129 475 1079 472 1106 m 35 604 b 478 1007 35 856 196 1007 b 921 604 760 1007 921 856 l 921 382 b 478 -21 921 131 760 -21 b 35 382 196 -21 35 131 m 599 622 b 478 728 599 693 558 728 b 357 622 397 728 357 693 l 357 364 b 478 258 357 293 397 258 b 599 364 558 258 599 293 "},"ő":{"ha":774,"x_min":0,"x_max":0,"o":"m 224 971 b 311 1006 247 1000 276 1013 l 419 986 b 435 931 454 981 463 953 l 278 801 b 219 783 257 785 238 779 l 142 794 b 125 844 110 799 107 824 m 504 971 b 593 1001 529 1000 558 1010 l 704 975 b 717 918 739 968 744 939 l 551 800 b 493 782 531 785 511 778 l 415 797 b 401 847 386 801 381 826 m 29 428 b 386 743 29 626 157 743 b 744 428 619 743 744 626 l 744 294 b 386 -21 744 96 619 -21 b 29 294 157 -21 29 96 m 440 440 b 386 486 440 471 422 486 b 333 440 351 486 333 471 l 333 282 b 386 238 333 253 351 238 b 440 282 422 238 440 253 "},"Œ":{"ha":1246,"x_min":0,"x_max":0,"o":"m 1156 279 b 1217 218 1201 279 1217 264 l 1217 61 b 1156 0 1217 15 1201 0 l 660 0 b 478 -21 617 -14 556 -21 b 35 382 196 -21 35 131 l 35 604 b 478 1007 35 856 196 1007 b 643 986 538 1007 593 1000 l 1146 986 b 1207 925 1192 986 1207 971 l 1207 769 b 1146 708 1207 724 1192 708 l 871 708 l 871 636 l 1068 636 b 1129 575 1114 636 1129 621 l 1129 419 b 1068 358 1129 374 1114 358 l 871 358 l 871 279 m 357 364 b 478 258 357 293 397 258 b 549 274 504 258 528 264 l 549 713 b 478 728 528 722 504 728 b 357 622 397 728 357 693 "},"œ":{"ha":1088,"x_min":0,"x_max":0,"o":"m 542 690 b 718 743 596 725 654 743 b 1065 428 953 743 1065 615 l 1065 360 b 986 285 1065 310 1039 285 l 672 285 l 672 267 b 721 196 672 215 688 196 b 790 239 749 196 772 210 b 874 258 806 263 818 285 l 992 201 b 1022 122 1032 183 1040 165 b 717 -21 968 22 878 -21 b 540 35 654 -21 596 -3 b 365 -21 489 -3 431 -21 b 29 294 143 -21 29 94 l 29 428 b 365 743 29 628 143 743 b 542 690 429 743 488 725 m 760 482 b 718 543 760 526 751 543 b 674 482 685 543 674 525 l 674 469 l 760 469 m 401 446 b 365 486 401 472 389 486 b 333 446 344 486 333 472 l 333 276 b 365 238 333 250 344 238 b 401 276 389 238 401 250 "},"Ŕ":{"ha":925,"x_min":0,"x_max":0,"o":"m 435 1278 b 526 1272 472 1299 503 1296 l 617 1172 b 608 1117 643 1146 640 1126 l 349 1047 b 283 1056 317 1038 294 1040 l 235 1114 b 239 1167 213 1140 215 1151 m 524 986 b 886 638 746 986 886 860 b 747 350 886 506 840 410 b 793 279 764 329 779 306 l 900 76 b 858 0 924 33 907 0 l 671 0 b 532 79 597 0 558 24 l 456 246 b 385 306 436 286 413 306 l 378 306 l 378 61 b 317 0 378 15 363 0 l 117 0 b 56 61 71 0 56 15 l 56 925 b 117 986 56 971 71 986 m 554 640 b 485 708 554 681 529 708 l 378 708 l 378 567 l 485 567 b 554 640 528 567 554 597 "},"ŕ":{"ha":508,"x_min":0,"x_max":0,"o":"m 268 1022 b 360 1019 306 1044 336 1043 l 454 924 b 447 868 481 897 478 878 l 190 789 b 125 794 158 779 138 781 l 74 851 b 76 904 54 872 56 890 m 407 743 l 449 743 b 504 688 489 743 504 731 l 504 539 b 449 483 504 499 489 483 l 394 483 b 364 482 381 483 371 483 b 357 474 360 482 357 479 l 357 56 b 301 0 357 15 342 0 l 107 0 b 51 56 67 0 51 15 l 51 610 b 111 697 51 660 63 679 b 407 743 179 724 278 739 "},"Ŗ":{"ha":925,"x_min":0,"x_max":0,"o":"m 524 986 b 886 638 746 986 886 860 b 747 350 886 506 840 410 b 793 279 764 329 779 306 l 900 76 b 858 0 924 33 907 0 l 671 0 b 532 79 597 0 558 24 l 456 246 b 385 306 436 286 413 306 l 378 306 l 378 61 b 317 0 378 15 363 0 l 117 0 b 56 61 71 0 56 15 l 56 925 b 117 986 56 971 71 986 m 554 640 b 485 708 554 681 529 708 l 378 708 l 378 567 l 485 567 b 554 640 528 567 554 597 m 540 -315 b 474 -361 531 -346 508 -361 l 367 -361 b 326 -315 336 -361 322 -346 l 350 -122 b 413 -60 356 -78 372 -60 l 563 -58 b 610 -122 610 -58 625 -79 "},"ŗ":{"ha":508,"x_min":0,"x_max":0,"o":"m 400 743 l 442 743 b 497 688 482 743 497 731 l 497 539 b 442 483 497 499 482 483 l 388 483 b 357 482 374 483 364 483 b 350 474 353 482 350 479 l 350 56 b 294 0 350 15 335 0 l 100 0 b 44 56 60 0 44 15 l 44 610 b 104 697 44 660 56 679 b 400 743 172 724 271 739 m 267 -265 b 188 -315 250 -306 232 -315 l 86 -315 b 49 -274 53 -315 44 -307 l 60 -118 b 131 -54 64 -68 81 -54 l 279 -54 b 326 -118 329 -54 343 -75 "},"Ř":{"ha":925,"x_min":0,"x_max":0,"o":"m 704 1286 b 718 1233 750 1286 742 1257 l 572 1085 b 526 1051 554 1067 539 1056 b 458 1044 514 1047 492 1044 l 408 1044 b 303 1085 351 1044 338 1050 l 156 1233 b 167 1286 132 1257 121 1286 l 317 1286 b 418 1256 382 1286 397 1282 l 447 1219 l 476 1254 b 576 1286 500 1282 515 1286 m 524 986 b 886 638 746 986 886 860 b 747 350 886 506 840 410 b 793 279 764 329 779 306 l 900 76 b 858 0 924 33 907 0 l 671 0 b 532 79 597 0 558 24 l 456 246 b 385 306 436 286 413 306 l 378 306 l 378 61 b 317 0 378 15 363 0 l 117 0 b 56 61 71 0 56 15 l 56 925 b 117 986 56 971 71 986 m 554 640 b 485 708 554 681 529 708 l 378 708 l 378 567 l 485 567 b 554 640 528 567 554 597 "},"ř":{"ha":508,"x_min":0,"x_max":0,"o":"m 518 1006 b 531 957 560 1006 554 981 l 397 819 b 356 789 381 803 367 793 b 293 782 344 785 324 782 l 247 782 b 150 819 193 782 183 786 l 15 957 b 25 1006 -8 981 -17 1006 l 163 1006 b 256 978 222 1006 238 1001 l 282 944 l 310 976 b 401 1006 331 1003 344 1006 m 406 743 l 447 743 b 503 688 488 743 503 731 l 503 539 b 447 483 503 499 488 483 l 393 483 b 363 482 379 483 369 483 b 356 474 358 482 356 479 l 356 56 b 300 0 356 15 340 0 l 106 0 b 50 56 65 0 50 15 l 50 610 b 110 697 50 660 61 679 b 406 743 178 724 276 739 "},"Ś":{"ha":908,"x_min":0,"x_max":0,"o":"m 463 1292 b 554 1286 500 1313 531 1310 l 644 1186 b 636 1131 671 1160 668 1140 l 376 1061 b 311 1069 344 1051 322 1054 l 263 1128 b 267 1181 240 1154 243 1165 m 36 696 b 150 922 36 790 74 865 b 464 1007 226 979 331 1007 b 867 821 675 1007 801 953 b 832 740 888 778 876 758 l 661 668 b 583 699 621 651 606 658 b 464 751 565 733 525 751 b 364 703 397 751 364 735 b 521 635 364 663 410 650 b 665 607 581 625 604 622 b 800 539 725 590 754 574 b 900 294 863 490 896 415 b 451 -21 899 82 690 -25 b 33 186 244 -21 83 49 b 72 265 18 229 29 250 l 232 322 b 321 294 275 339 297 335 b 456 244 340 261 385 244 b 572 293 533 244 572 256 b 433 357 572 331 529 342 b 208 414 326 375 251 393 b 36 696 93 465 36 560 "},"ś":{"ha":731,"x_min":0,"x_max":0,"o":"m 371 1022 b 463 1019 408 1044 439 1043 l 557 924 b 550 868 583 897 581 878 l 293 789 b 228 794 261 779 240 781 l 176 851 b 179 904 157 872 158 890 m 50 501 b 372 743 50 653 161 743 b 706 594 556 743 649 694 b 675 515 725 560 715 533 l 547 460 b 472 476 497 435 494 461 b 392 503 451 494 424 503 b 319 476 331 503 319 497 b 414 446 319 458 335 451 b 664 383 535 438 618 417 b 732 228 710 349 732 297 b 394 -21 732 72 611 -21 b 50 144 208 -21 93 35 b 85 219 35 182 47 207 l 219 268 b 297 254 275 281 279 276 b 381 219 315 231 343 219 b 463 250 446 219 463 228 b 344 286 463 276 449 282 b 50 501 143 296 50 357 "},"Ŝ":{"ha":908,"x_min":0,"x_max":0,"o":"m 499 1299 b 604 1258 554 1299 567 1293 l 756 1110 b 736 1057 782 1086 781 1057 l 590 1057 b 489 1088 524 1057 507 1061 l 461 1126 l 431 1089 b 331 1057 408 1061 392 1057 l 193 1057 b 174 1110 149 1057 147 1086 l 324 1258 b 371 1292 342 1276 358 1288 b 438 1299 383 1296 406 1299 m 36 696 b 150 922 36 790 74 865 b 464 1007 226 979 331 1007 b 867 821 675 1007 801 953 b 832 740 888 778 876 758 l 661 668 b 583 699 621 651 606 658 b 464 751 565 733 525 751 b 364 703 397 751 364 735 b 521 635 364 663 410 650 b 665 607 581 625 604 622 b 800 539 725 590 754 574 b 900 294 863 490 896 415 b 451 -21 899 82 690 -25 b 33 186 244 -21 83 49 b 72 265 18 229 29 250 l 232 322 b 321 294 275 339 297 335 b 456 244 340 261 385 244 b 572 293 533 244 572 256 b 433 357 572 331 529 342 b 208 414 326 375 251 393 b 36 696 93 465 36 560 "},"ŝ":{"ha":731,"x_min":0,"x_max":0,"o":"m 410 1024 b 514 985 465 1024 476 1018 l 661 839 b 642 788 688 815 686 788 l 500 788 b 400 817 435 788 418 793 l 374 856 l 343 818 b 246 788 322 792 306 788 l 122 788 b 103 839 79 788 76 815 l 250 985 b 361 1024 285 1018 299 1024 m 50 501 b 372 743 50 653 161 743 b 706 594 556 743 649 694 b 675 515 725 560 715 533 l 547 460 b 472 476 497 435 494 461 b 392 503 451 494 424 503 b 319 476 331 503 319 497 b 414 446 319 458 335 451 b 664 383 535 438 618 417 b 732 228 710 349 732 297 b 394 -21 732 72 611 -21 b 50 144 208 -21 93 35 b 85 219 35 182 47 207 l 219 268 b 297 254 275 281 279 276 b 381 219 315 231 343 219 b 463 250 446 219 463 228 b 344 286 463 276 449 282 b 50 501 143 296 50 357 "},"Ş":{"ha":908,"x_min":0,"x_max":0,"o":"m 521 635 b 665 607 581 625 604 622 b 800 539 725 590 754 574 b 900 294 863 490 896 415 b 551 -15 900 117 758 11 l 535 -60 l 549 -60 b 663 -200 631 -61 672 -121 b 444 -340 651 -293 579 -340 b 336 -325 404 -340 368 -335 b 293 -282 307 -315 293 -301 l 293 -218 b 349 -193 293 -182 311 -174 b 428 -215 375 -208 401 -215 b 468 -187 454 -215 468 -206 b 404 -160 468 -167 454 -160 l 376 -160 b 358 -115 350 -160 344 -144 l 401 -19 b 33 186 218 -10 79 60 b 72 265 18 229 29 250 l 232 322 b 321 294 275 339 297 335 b 456 244 340 261 385 244 b 572 293 533 244 572 256 b 433 357 572 331 529 342 b 208 414 326 375 251 393 b 36 696 93 465 36 560 b 150 922 36 790 74 865 b 464 1007 226 979 331 1007 b 867 821 675 1007 801 953 b 832 740 888 778 876 758 l 661 668 b 583 699 621 651 606 658 b 464 751 565 733 525 751 b 364 703 397 751 364 735 b 521 635 364 663 410 650 "},"ş":{"ha":731,"x_min":0,"x_max":0,"o":"m 50 501 b 372 743 50 653 161 743 b 706 594 556 743 649 694 b 675 515 725 560 715 533 l 547 460 b 472 476 497 435 494 461 b 392 503 451 494 424 503 b 319 476 331 503 319 497 b 414 446 319 458 335 451 b 664 383 535 438 618 417 b 732 228 710 349 732 297 b 479 -15 732 94 644 7 l 458 -69 l 472 -69 b 583 -204 550 -71 593 -128 b 371 -339 574 -294 503 -339 b 264 -325 333 -339 297 -335 b 222 -283 236 -315 222 -301 l 222 -222 b 276 -197 222 -187 240 -179 b 354 -219 303 -212 329 -219 b 393 -193 381 -219 393 -211 b 331 -165 393 -172 379 -165 l 304 -165 b 286 -124 279 -165 274 -151 l 333 -18 b 50 144 182 -8 88 46 b 85 219 35 182 47 207 l 219 268 b 297 254 275 281 279 276 b 381 219 315 231 343 219 b 463 250 446 219 463 228 b 344 286 463 276 449 282 b 50 501 143 296 50 357 "},"Š":{"ha":908,"x_min":0,"x_max":0,"o":"m 732 1300 b 746 1247 778 1300 769 1271 l 600 1099 b 554 1065 582 1081 567 1069 b 486 1058 542 1061 519 1058 l 436 1058 b 331 1099 379 1058 365 1064 l 183 1247 b 194 1300 160 1271 149 1300 l 344 1300 b 446 1269 410 1300 425 1296 l 475 1233 l 504 1268 b 604 1300 528 1296 543 1300 m 36 696 b 150 922 36 790 74 865 b 464 1007 226 979 331 1007 b 867 821 675 1007 801 953 b 832 740 888 778 876 758 l 661 668 b 583 699 621 651 606 658 b 464 751 565 733 525 751 b 364 703 397 751 364 735 b 521 635 364 663 410 650 b 665 607 581 625 604 622 b 800 539 725 590 754 574 b 900 294 863 490 896 415 b 451 -21 899 82 690 -25 b 33 186 244 -21 83 49 b 72 265 18 229 29 250 l 232 322 b 321 294 275 339 297 335 b 456 244 340 261 385 244 b 572 293 533 244 572 256 b 433 357 572 331 529 342 b 208 414 326 375 251 393 b 36 696 93 465 36 560 "},"š":{"ha":731,"x_min":0,"x_max":0,"o":"m 619 1000 b 632 953 658 1000 656 974 l 500 818 b 460 788 483 801 469 792 b 397 782 449 783 428 782 l 351 782 b 256 818 300 782 289 785 l 124 953 b 133 1000 100 974 92 1000 l 268 1000 b 360 972 328 1000 343 996 l 386 940 l 413 972 b 503 1000 435 996 447 1000 m 50 501 b 372 743 50 653 161 743 b 706 594 556 743 649 694 b 675 515 725 560 715 533 l 547 460 b 472 476 497 435 494 461 b 392 503 451 494 424 503 b 319 476 331 503 319 497 b 414 446 319 458 335 451 b 664 383 535 438 618 417 b 732 228 710 349 732 297 b 394 -21 732 72 611 -21 b 50 144 208 -21 93 35 b 85 219 35 182 47 207 l 219 268 b 297 254 275 281 279 276 b 381 219 315 231 343 219 b 463 250 446 219 463 228 b 344 286 463 276 449 282 b 50 501 143 296 50 357 "},"Ť":{"ha":864,"x_min":0,"x_max":0,"o":"m 703 1286 b 717 1233 749 1286 740 1257 l 571 1085 b 525 1051 553 1067 538 1056 b 457 1044 513 1047 490 1044 l 407 1044 b 301 1085 350 1044 336 1050 l 154 1233 b 165 1286 131 1257 119 1286 l 315 1286 b 417 1256 381 1286 396 1282 l 446 1219 l 475 1254 b 575 1286 499 1282 514 1286 m 789 986 b 850 925 835 986 850 971 l 850 769 b 789 708 850 724 835 708 l 593 708 l 593 61 b 532 0 593 15 578 0 l 332 0 b 271 61 286 0 271 15 l 271 708 l 75 708 b 14 769 29 708 14 724 l 14 925 b 75 986 14 971 29 986 "},"ť":{"ha":557,"x_min":0,"x_max":0,"o":"m 683 821 b 604 771 668 781 650 771 l 503 771 b 465 813 469 771 461 779 l 478 964 b 549 1028 482 1014 499 1028 l 697 1028 b 744 964 747 1028 763 1007 m 358 889 b 414 833 399 889 414 874 l 414 722 l 481 722 b 535 667 521 722 535 707 l 535 543 b 481 488 535 503 521 488 l 414 488 l 414 310 b 478 244 414 267 435 244 b 535 188 521 244 535 231 l 535 39 b 478 -18 535 -4 521 -18 b 108 285 228 -18 108 67 l 108 488 l 61 488 b 7 543 21 488 7 500 l 7 667 b 61 722 7 710 21 722 l 108 722 l 108 833 b 164 889 108 874 124 889 "},"Ŧ":{"ha":875,"x_min":0,"x_max":0,"o":"m 794 986 b 856 925 840 986 856 971 l 856 769 b 794 708 856 724 840 708 l 599 708 l 599 511 l 718 511 b 754 474 746 511 754 503 l 754 368 b 718 331 754 339 746 331 l 599 331 l 599 61 b 538 0 599 15 583 0 l 338 0 b 276 61 292 0 276 15 l 276 331 l 158 331 b 122 368 131 331 122 339 l 122 474 b 158 511 122 501 132 511 l 276 511 l 276 708 l 81 708 b 19 769 35 708 19 724 l 19 925 b 81 986 19 971 35 986 "},"ŧ":{"ha":558,"x_min":0,"x_max":0,"o":"m 358 889 b 414 833 399 889 414 874 l 414 722 l 481 722 b 535 667 521 722 535 707 l 535 543 b 481 488 535 503 521 488 l 414 488 l 414 440 l 500 440 b 535 403 528 440 535 432 l 535 336 b 500 299 535 307 528 299 l 414 299 l 414 292 b 478 244 414 253 438 244 b 535 188 521 244 535 231 l 535 39 b 478 -18 535 -4 521 -18 b 108 285 228 -18 108 67 l 108 299 l 56 299 b 21 336 28 299 21 307 l 21 403 b 56 440 21 431 29 440 l 108 440 l 108 488 l 61 488 b 7 543 21 488 7 500 l 7 667 b 61 722 7 710 21 722 l 108 722 l 108 833 b 164 889 108 874 124 889 "},"Ũ":{"ha":964,"x_min":0,"x_max":0,"o":"m 704 1271 b 738 1238 726 1271 738 1260 b 592 1060 738 1108 688 1060 b 467 1083 547 1060 506 1068 b 397 1107 428 1099 404 1107 b 379 1085 385 1107 379 1100 b 354 1060 379 1068 371 1060 l 247 1060 b 214 1093 225 1060 214 1071 b 357 1271 214 1211 261 1271 b 483 1247 400 1271 443 1263 b 556 1224 524 1232 549 1224 b 574 1246 568 1224 574 1231 b 599 1271 574 1263 582 1271 m 369 357 b 482 257 369 290 407 257 b 594 357 557 257 594 290 l 594 925 b 656 986 594 971 610 986 l 856 986 b 917 925 901 986 917 971 l 917 376 b 482 -21 917 131 761 -21 b 47 376 203 -21 47 131 l 47 925 b 108 986 47 971 63 986 l 308 986 b 369 925 354 986 369 971 "},"ũ":{"ha":774,"x_min":0,"x_max":0,"o":"m 607 1015 b 640 982 629 1015 640 1004 b 494 804 640 853 590 804 b 369 828 450 804 408 813 b 300 851 331 843 307 851 b 282 829 288 851 282 844 b 257 804 282 813 274 804 l 150 804 b 117 838 128 804 117 815 b 260 1015 117 956 164 1015 b 386 992 303 1015 346 1007 b 458 968 426 976 451 968 b 476 990 471 968 476 975 b 501 1015 476 1007 485 1015 m 675 722 b 731 667 715 722 731 707 l 731 119 b 671 33 731 69 719 51 b 364 -21 581 -3 479 -21 b 39 290 146 -21 39 90 l 39 667 b 94 722 39 707 54 722 l 289 722 b 344 667 329 722 344 707 l 344 304 b 394 253 344 265 357 253 b 417 254 401 253 410 253 b 425 265 422 256 425 258 l 425 667 b 481 722 425 707 440 722 "},"Ū":{"ha":964,"x_min":0,"x_max":0,"o":"m 657 1251 b 710 1200 700 1251 710 1240 l 710 1129 b 657 1078 710 1089 700 1078 l 306 1078 b 254 1129 265 1078 254 1089 l 254 1200 b 306 1251 254 1240 268 1251 m 369 357 b 482 257 369 290 407 257 b 594 357 557 257 594 290 l 594 925 b 656 986 594 971 610 986 l 856 986 b 917 925 901 986 917 971 l 917 376 b 482 -21 917 131 761 -21 b 47 376 203 -21 47 131 l 47 925 b 108 986 47 971 63 986 l 308 986 b 369 925 354 986 369 971 "},"ū":{"ha":774,"x_min":0,"x_max":0,"o":"m 560 990 b 613 939 603 990 613 979 l 613 868 b 560 817 613 828 603 817 l 208 817 b 157 868 168 817 157 828 l 157 939 b 208 990 157 979 171 990 m 675 722 b 731 667 715 722 731 707 l 731 119 b 671 33 731 69 719 51 b 364 -21 581 -3 479 -21 b 39 290 146 -21 39 90 l 39 667 b 94 722 39 707 54 722 l 289 722 b 344 667 329 722 344 707 l 344 304 b 394 253 344 265 357 253 b 417 254 401 253 410 253 b 425 265 422 256 425 258 l 425 667 b 481 722 425 707 440 722 "},"Ŭ":{"ha":964,"x_min":0,"x_max":0,"o":"m 747 1196 b 482 1043 708 1094 619 1043 b 218 1196 344 1043 257 1094 b 243 1246 208 1224 214 1235 l 353 1288 b 408 1271 386 1299 390 1294 b 482 1233 426 1246 450 1233 b 554 1271 511 1233 536 1246 b 608 1288 571 1294 575 1297 l 722 1246 b 747 1196 749 1236 757 1219 m 369 357 b 482 257 369 290 407 257 b 594 357 557 257 594 290 l 594 925 b 656 986 594 971 610 986 l 856 986 b 917 925 901 986 917 971 l 917 376 b 482 -21 917 131 761 -21 b 47 376 203 -21 47 131 l 47 925 b 108 986 47 971 63 986 l 308 986 b 369 925 354 986 369 971 "},"ŭ":{"ha":774,"x_min":0,"x_max":0,"o":"m 650 940 b 385 788 611 839 522 788 b 121 940 247 788 160 839 b 146 990 111 968 117 979 l 256 1032 b 311 1015 289 1043 293 1039 b 385 978 329 990 353 978 b 457 1015 414 978 439 990 b 511 1032 474 1039 478 1042 l 625 990 b 650 940 651 981 660 964 m 675 722 b 731 667 715 722 731 707 l 731 119 b 671 33 731 69 719 51 b 364 -21 581 -3 479 -21 b 39 290 146 -21 39 90 l 39 667 b 94 722 39 707 54 722 l 289 722 b 344 667 329 722 344 707 l 344 304 b 394 253 344 265 357 253 b 417 254 401 253 410 253 b 425 265 422 256 425 258 l 425 667 b 481 722 425 707 440 722 "},"Ů":{"ha":964,"x_min":0,"x_max":0,"o":"m 282 1192 b 479 1361 282 1301 361 1361 b 672 1192 596 1361 672 1297 b 479 1024 672 1086 594 1024 b 282 1192 361 1024 282 1085 m 519 1192 b 479 1233 519 1219 506 1233 b 433 1192 449 1233 433 1219 b 479 1151 433 1165 449 1151 b 519 1192 506 1151 519 1165 m 369 357 b 482 257 369 290 407 257 b 594 357 557 257 594 290 l 594 925 b 656 986 594 971 610 986 l 856 986 b 917 925 901 986 917 971 l 917 376 b 482 -21 917 131 761 -21 b 47 376 203 -21 47 131 l 47 925 b 108 986 47 971 63 986 l 308 986 b 369 925 354 986 369 971 "},"ů":{"ha":774,"x_min":0,"x_max":0,"o":"m 185 906 b 382 1075 185 1015 264 1075 b 575 906 499 1075 575 1011 b 382 738 575 800 497 738 b 185 906 264 738 185 799 m 422 906 b 382 947 422 933 408 947 b 336 906 351 947 336 933 b 382 865 336 879 351 865 b 422 906 408 865 422 879 m 675 722 b 731 667 715 722 731 707 l 731 119 b 671 33 731 69 719 51 b 364 -21 581 -3 479 -21 b 39 290 146 -21 39 90 l 39 667 b 94 722 39 707 54 722 l 289 722 b 344 667 329 722 344 707 l 344 304 b 394 253 344 265 357 253 b 417 254 401 253 410 253 b 425 265 422 256 425 258 l 425 667 b 481 722 425 707 440 722 "},"Ű":{"ha":964,"x_min":0,"x_max":0,"o":"m 306 1250 b 400 1288 329 1282 361 1294 l 518 1267 b 533 1206 557 1260 563 1229 l 364 1065 b 300 1044 342 1047 321 1040 l 215 1057 b 197 1113 182 1063 176 1089 m 610 1250 b 706 1283 636 1281 668 1292 l 826 1254 b 840 1192 865 1244 872 1214 l 661 1064 b 597 1043 633 1042 624 1038 l 513 1060 b 497 1115 479 1065 476 1092 m 369 357 b 482 257 369 290 407 257 b 594 357 557 257 594 290 l 594 925 b 656 986 594 971 610 986 l 856 986 b 917 925 901 986 917 971 l 917 376 b 482 -21 917 131 761 -21 b 47 376 203 -21 47 131 l 47 925 b 108 986 47 971 63 986 l 308 986 b 369 925 354 986 369 971 "},"ű":{"ha":774,"x_min":0,"x_max":0,"o":"m 208 993 b 303 1031 232 1025 264 1038 l 421 1010 b 436 949 460 1003 465 972 l 267 808 b 203 788 244 790 224 783 l 118 800 b 100 856 85 806 79 832 m 513 993 b 608 1026 539 1024 571 1035 l 729 997 b 743 935 768 988 775 957 l 564 807 b 500 786 536 785 526 781 l 415 803 b 400 858 382 808 379 835 m 675 722 b 731 667 715 722 731 707 l 731 119 b 671 33 731 69 719 51 b 364 -21 581 -3 479 -21 b 39 290 146 -21 39 90 l 39 667 b 94 722 39 707 54 722 l 289 722 b 344 667 329 722 344 707 l 344 304 b 394 253 344 265 357 253 b 417 254 401 253 410 253 b 425 265 422 256 425 258 l 425 667 b 481 722 425 707 440 722 "},"Ų":{"ha":964,"x_min":0,"x_max":0,"o":"m 856 986 b 917 925 901 986 917 971 l 917 376 b 794 76 917 247 876 147 b 694 -53 751 36 718 -7 b 660 -150 669 -97 658 -129 b 683 -175 661 -167 669 -175 b 710 -167 690 -175 700 -172 b 744 -175 725 -157 738 -160 l 776 -249 b 765 -294 785 -269 781 -285 b 597 -342 719 -326 663 -342 b 451 -253 513 -342 464 -312 b 532 -19 435 -182 472 -90 b 482 -21 521 -21 504 -21 b 47 376 203 -21 47 131 l 47 925 b 108 986 47 971 63 986 l 308 986 b 369 925 354 986 369 971 l 369 357 b 482 257 369 290 407 257 b 594 357 557 257 594 290 l 594 925 b 656 986 594 971 610 986 "},"ų":{"ha":775,"x_min":0,"x_max":0,"o":"m 675 722 b 731 667 715 722 731 707 l 731 119 b 714 60 731 92 725 72 b 614 -143 643 -28 610 -96 b 638 -168 615 -160 624 -168 b 664 -160 644 -168 654 -165 b 699 -168 681 -149 692 -151 l 731 -249 b 719 -294 739 -269 735 -285 b 551 -342 674 -326 618 -342 b 392 -246 458 -342 406 -310 b 479 -14 376 -172 406 -96 b 364 -21 440 -18 401 -21 b 39 290 146 -21 39 90 l 39 667 b 94 722 39 707 54 722 l 289 722 b 344 667 329 722 344 707 l 344 304 b 394 253 344 265 357 253 b 417 254 401 253 410 253 b 425 265 422 256 425 258 l 425 667 b 481 722 425 707 440 722 "},"Ŵ":{"ha":1332,"x_min":0,"x_max":0,"o":"m 718 1285 b 824 1244 774 1285 786 1279 l 975 1096 b 956 1043 1001 1072 1000 1043 l 810 1043 b 708 1074 743 1043 726 1047 l 681 1113 l 650 1075 b 550 1043 628 1047 611 1043 l 413 1043 b 393 1096 368 1043 367 1072 l 543 1244 b 590 1278 561 1263 578 1274 b 657 1285 603 1282 625 1285 m 1289 986 b 1328 928 1332 986 1339 968 l 1107 51 b 1033 0 1096 11 1076 0 l 822 0 b 747 49 778 0 757 11 l 708 251 b 679 558 690 344 681 447 l 667 558 b 632 250 663 451 650 349 l 594 51 b 519 0 583 11 564 0 l 313 0 b 238 49 269 0 244 17 l 19 928 b 58 986 8 968 15 986 l 267 986 b 349 933 321 986 339 976 l 390 631 b 407 354 401 553 407 461 l 418 354 b 443 631 418 458 426 550 l 504 933 b 585 986 514 976 535 986 l 776 986 b 857 933 826 986 850 976 l 919 631 b 946 354 931 578 939 486 l 957 354 b 975 631 960 465 965 557 l 1015 933 b 1097 986 1022 976 1043 986 "},"ŵ":{"ha":1113,"x_min":0,"x_max":0,"o":"m 604 1024 b 708 985 660 1024 671 1018 l 856 839 b 836 788 882 815 881 788 l 694 788 b 594 817 629 788 613 793 l 568 856 l 538 818 b 440 788 517 792 500 788 l 317 788 b 297 839 274 788 271 815 l 444 985 b 556 1024 479 1018 493 1024 m 1063 722 b 1108 658 1114 722 1124 708 l 954 49 b 879 0 944 17 919 0 l 689 0 b 613 49 643 0 618 17 l 594 147 b 572 339 585 201 576 289 l 569 375 l 557 375 b 526 147 550 283 539 207 l 506 49 b 431 0 499 17 474 0 l 256 0 b 179 49 214 0 189 17 l 21 658 b 67 722 6 708 15 722 l 244 722 b 331 667 310 722 324 713 l 349 535 b 358 442 353 513 356 482 b 361 336 360 401 361 365 l 363 293 l 375 293 b 393 535 379 403 385 483 l 414 665 b 506 722 419 714 438 722 l 629 722 b 719 667 696 722 713 713 l 742 535 b 751 442 746 513 749 482 b 757 336 754 401 756 365 l 758 293 l 772 293 b 786 535 775 403 779 483 l 803 665 b 890 722 808 714 822 722 "},"Ŷ":{"ha":961,"x_min":0,"x_max":0,"o":"m 529 1285 b 635 1244 585 1285 597 1279 l 786 1096 b 767 1043 813 1072 811 1043 l 621 1043 b 519 1074 554 1043 538 1047 l 492 1113 l 461 1075 b 361 1043 439 1047 422 1043 l 224 1043 b 204 1096 179 1043 178 1072 l 354 1244 b 401 1278 372 1263 389 1274 b 468 1285 414 1282 436 1285 m 932 986 b 963 925 975 986 983 960 l 649 381 l 649 61 b 588 0 649 15 633 0 l 388 0 b 326 61 342 0 326 15 l 326 378 l 13 925 b 43 986 -8 960 0 986 l 244 986 b 324 978 282 986 308 983 b 364 933 338 972 351 957 l 489 688 l 619 933 b 660 978 632 957 646 972 b 738 986 674 983 700 986 "},"ŷ":{"ha":776,"x_min":0,"x_max":0,"o":"m 432 1024 b 536 985 488 1024 499 1018 l 683 839 b 664 788 710 815 708 788 l 522 788 b 422 817 457 788 440 793 l 396 856 l 365 818 b 268 788 344 792 328 788 l 144 788 b 125 839 101 788 99 815 l 272 985 b 383 1024 307 1018 321 1024 m 686 722 b 742 667 726 722 742 707 l 742 14 b 392 -319 742 -190 632 -319 b 71 -175 231 -319 136 -275 b 101 -96 50 -142 60 -115 l 254 -22 b 328 -39 296 -1 311 -17 b 390 -81 347 -67 368 -81 b 436 -28 421 -81 436 -62 l 436 22 b 375 21 424 21 403 21 b 50 332 157 21 50 132 l 50 667 b 106 722 50 707 65 722 l 300 722 b 356 667 340 722 356 707 l 356 346 b 406 294 356 307 368 294 b 436 296 419 294 429 294 l 436 667 b 492 722 436 707 451 722 "},"Ÿ":{"ha":961,"x_min":0,"x_max":0,"o":"m 342 1286 b 456 1176 429 1286 456 1260 l 456 1156 b 342 1046 456 1074 426 1046 l 331 1046 b 219 1156 246 1046 219 1074 l 219 1176 b 331 1286 219 1260 246 1286 m 651 1286 b 764 1176 736 1286 764 1260 l 764 1156 b 651 1046 764 1074 736 1046 l 642 1046 b 528 1156 557 1046 528 1074 l 528 1176 b 642 1286 528 1260 554 1286 m 932 986 b 963 925 975 986 983 960 l 649 381 l 649 61 b 588 0 649 15 633 0 l 388 0 b 326 61 342 0 326 15 l 326 378 l 13 925 b 43 986 -8 960 0 986 l 244 986 b 324 978 282 986 308 983 b 364 933 338 972 351 957 l 489 688 l 619 933 b 660 978 632 957 646 972 b 738 986 674 983 700 986 "},"Ź":{"ha":861,"x_min":0,"x_max":0,"o":"m 439 1278 b 531 1272 476 1299 507 1296 l 621 1172 b 613 1117 647 1146 644 1126 l 353 1047 b 288 1056 321 1038 299 1040 l 239 1114 b 243 1167 217 1140 219 1151 m 764 986 b 825 925 810 986 825 971 l 825 839 b 806 776 825 815 818 794 l 467 279 l 771 279 b 832 218 817 279 832 264 l 832 61 b 771 0 832 15 817 0 l 89 0 b 28 61 43 0 28 15 l 28 149 b 47 210 28 171 35 192 l 388 708 l 96 708 b 35 769 50 708 35 724 l 35 925 b 96 986 35 971 50 986 "},"ź":{"ha":699,"x_min":0,"x_max":0,"o":"m 347 1022 b 439 1019 385 1044 415 1043 l 533 924 b 526 868 560 897 557 878 l 269 789 b 204 794 238 779 217 781 l 153 851 b 156 904 133 872 135 890 m 614 253 b 669 199 654 253 669 239 l 669 56 b 614 0 669 15 654 0 l 86 0 b 31 56 46 0 31 15 l 31 189 b 54 247 31 221 33 226 l 275 469 l 93 469 b 39 524 53 469 39 483 l 39 667 b 93 722 39 710 53 722 l 607 722 b 661 667 647 722 661 707 l 661 533 b 626 464 661 500 654 490 l 397 253 "},"Ż":{"ha":861,"x_min":0,"x_max":0,"o":"m 442 1288 b 557 1171 532 1288 557 1261 l 557 1160 b 442 1043 557 1069 532 1043 l 433 1043 b 317 1160 343 1043 317 1069 l 317 1171 b 433 1288 317 1261 343 1288 m 764 986 b 825 925 810 986 825 971 l 825 839 b 806 776 825 815 818 794 l 467 279 l 771 279 b 832 218 817 279 832 264 l 832 61 b 771 0 832 15 817 0 l 89 0 b 28 61 43 0 28 15 l 28 149 b 47 210 28 171 35 192 l 388 708 l 96 708 b 35 769 50 708 35 724 l 35 925 b 96 986 35 971 50 986 "},"ż":{"ha":699,"x_min":0,"x_max":0,"o":"m 354 1036 b 469 919 444 1036 469 1010 l 469 908 b 354 792 469 818 444 792 l 346 792 b 229 908 256 792 229 818 l 229 919 b 346 1036 229 1010 256 1036 m 614 253 b 669 199 654 253 669 239 l 669 56 b 614 0 669 15 654 0 l 86 0 b 31 56 46 0 31 15 l 31 189 b 54 247 31 221 33 226 l 275 469 l 93 469 b 39 524 53 469 39 483 l 39 667 b 93 722 39 710 53 722 l 607 722 b 661 667 647 722 661 707 l 661 533 b 626 464 661 500 654 490 l 397 253 "},"Ž":{"ha":861,"x_min":0,"x_max":0,"o":"m 708 1286 b 722 1233 754 1286 746 1257 l 576 1085 b 531 1051 558 1067 543 1056 b 463 1044 518 1047 496 1044 l 413 1044 b 307 1085 356 1044 342 1050 l 160 1233 b 171 1286 136 1257 125 1286 l 321 1286 b 422 1256 386 1286 401 1282 l 451 1219 l 481 1254 b 581 1286 504 1282 519 1286 m 764 986 b 825 925 810 986 825 971 l 825 839 b 806 776 825 815 818 794 l 467 279 l 771 279 b 832 218 817 279 832 264 l 832 61 b 771 0 832 15 817 0 l 89 0 b 28 61 43 0 28 15 l 28 149 b 47 210 28 171 35 192 l 388 708 l 96 708 b 35 769 50 708 35 724 l 35 925 b 96 986 35 971 50 986 "},"ž":{"ha":699,"x_min":0,"x_max":0,"o":"m 593 1000 b 606 953 635 1000 629 974 l 475 818 b 372 781 442 785 432 781 l 326 781 b 232 818 275 781 264 785 l 99 953 b 110 1000 78 974 67 1000 l 244 1000 b 336 972 301 1000 318 994 l 363 940 l 389 971 b 478 1000 410 994 424 1000 m 614 253 b 669 199 654 253 669 239 l 669 56 b 614 0 669 15 654 0 l 86 0 b 31 56 46 0 31 15 l 31 189 b 54 247 31 221 33 226 l 275 469 l 93 469 b 39 524 53 469 39 483 l 39 667 b 93 722 39 710 53 722 l 607 722 b 661 667 647 722 661 707 l 661 533 b 626 464 661 500 654 490 l 397 253 "},"ſ":{"ha":486,"x_min":0,"x_max":0,"o":"m 107 725 b 476 1028 107 943 226 1028 b 533 971 519 1028 533 1014 l 533 850 b 476 793 533 807 519 793 b 413 728 433 793 413 771 l 413 56 b 356 0 413 13 399 0 l 164 0 b 107 56 121 0 107 13 l 107 488 l 76 488 b 21 543 33 488 21 500 l 21 667 b 76 722 21 707 33 722 l 107 722 "},"ƒ":{"ha":683,"x_min":0,"x_max":0,"o":"m 197 688 b 608 1028 219 903 364 1028 b 664 971 651 1028 664 1014 l 664 822 b 608 765 664 779 651 765 b 501 681 535 765 508 747 l 492 592 l 582 592 b 638 536 625 592 638 576 l 638 385 b 582 329 638 342 625 329 l 465 329 l 435 35 b 24 -306 413 -181 268 -306 b -32 -249 -19 -306 -32 -292 l -32 -100 b 24 -43 -32 -57 -19 -43 b 131 42 96 -43 124 -19 l 160 329 l 88 329 b 32 385 44 329 32 342 l 32 536 b 88 592 32 576 44 592 l 188 592 "},"Ǻ":{"ha":975,"x_min":0,"x_max":0,"o":"m 524 1379 b 610 1379 560 1396 589 1396 l 690 1300 b 682 1260 713 1279 710 1267 l 440 1208 b 379 1214 410 1203 389 1204 l 332 1260 b 347 1303 314 1275 318 1290 m 285 994 b 513 1190 285 1121 378 1190 b 736 994 646 1190 736 1117 b 689 889 736 950 721 915 l 999 60 b 956 0 1014 19 999 0 l 761 0 b 656 64 690 0 665 18 l 636 135 l 375 135 l 356 64 b 256 0 343 18 321 0 l 61 0 b 22 60 21 0 7 19 l 333 889 b 285 994 301 917 285 951 m 551 954 b 514 1047 582 988 560 1054 b 456 994 475 1047 456 1029 b 514 939 456 963 476 939 b 551 954 529 939 542 944 m 538 499 b 513 661 522 550 514 624 l 511 690 l 497 690 b 475 500 499 622 490 560 l 444 388 l 568 388 "},"ǻ":{"ha":740,"x_min":0,"x_max":0,"o":"m 368 1285 b 454 1283 403 1300 432 1300 l 543 1211 b 536 1171 565 1192 563 1178 l 296 1111 b 235 1115 265 1104 244 1106 l 186 1158 b 189 1197 168 1174 168 1188 m 176 933 b 364 1094 176 1038 251 1094 b 549 933 475 1094 549 1033 b 364 774 549 832 475 774 b 176 933 251 774 176 832 m 364 894 b 403 933 390 894 403 907 b 364 972 403 960 390 972 b 321 933 335 972 321 960 b 364 894 321 907 335 894 m 50 599 b 371 743 101 694 208 743 b 706 436 611 743 706 635 l 706 107 b 651 19 706 53 696 38 b 367 -21 590 -7 496 -21 b 97 33 235 -21 146 -3 b 24 211 49 68 24 128 b 103 397 24 301 50 364 b 374 446 156 429 246 446 l 401 446 l 401 486 b 353 526 401 513 385 526 b 310 511 332 526 321 522 b 292 492 300 501 301 504 l 285 482 b 203 469 267 458 257 453 l 81 519 b 50 599 42 536 32 563 m 401 258 l 368 258 b 317 213 333 258 317 243 b 365 169 317 183 333 169 b 397 171 379 169 390 169 b 401 175 400 171 401 172 "},"Ǽ":{"ha":1290,"x_min":0,"x_max":0,"o":"m 922 1278 b 1014 1272 960 1299 990 1296 l 1104 1172 b 1096 1117 1131 1146 1128 1126 l 836 1047 b 771 1056 804 1038 782 1040 l 722 1114 b 726 1167 700 1140 703 1151 m 1211 279 b 1272 218 1257 279 1272 264 l 1272 61 b 1211 0 1272 15 1257 0 l 726 0 b 665 61 681 0 665 15 l 665 114 l 381 114 l 340 54 b 226 0 313 11 297 0 l 47 0 b 8 60 3 0 -14 25 l 592 936 b 667 986 618 976 628 986 l 1201 986 b 1263 925 1247 986 1263 971 l 1263 769 b 1201 708 1263 724 1247 708 l 960 708 l 960 636 l 1124 636 b 1185 575 1169 636 1185 621 l 1185 419 b 1124 358 1185 374 1169 358 l 960 358 l 960 279 m 665 543 l 539 353 l 665 353 "},"ǽ":{"ha":1063,"x_min":0,"x_max":0,"o":"m 518 1022 b 610 1019 556 1044 586 1043 l 704 924 b 697 868 731 897 728 878 l 440 789 b 375 794 408 779 388 781 l 324 851 b 326 904 304 872 306 890 m 53 599 b 353 743 107 700 193 743 b 524 696 418 743 475 728 b 694 743 574 728 631 743 b 1042 428 929 743 1042 615 l 1042 360 b 963 285 1042 310 1015 285 l 649 285 l 649 256 b 697 196 649 215 665 196 b 747 213 719 196 735 200 b 774 246 760 224 761 225 b 850 258 789 271 815 275 l 968 201 b 999 122 1008 183 1017 165 b 693 -21 944 22 854 -21 b 546 14 639 -21 590 -10 b 349 -21 492 -10 425 -21 b 26 211 76 -14 28 43 b 97 399 26 304 50 367 b 356 446 143 431 229 446 l 379 446 l 379 486 b 338 526 379 514 371 526 b 303 510 321 526 310 519 b 283 478 297 503 283 485 b 213 468 271 457 263 451 l 83 519 b 53 599 44 536 35 563 m 736 482 b 694 543 736 526 728 543 b 650 482 661 543 650 525 l 650 469 l 736 469 m 381 258 l 357 258 b 319 213 332 258 319 243 b 354 169 319 181 326 169 l 381 172 l 381 207 "},"Ǿ":{"ha":956,"x_min":0,"x_max":0,"o":"m 485 1292 b 576 1286 522 1313 553 1310 l 667 1186 b 658 1131 693 1160 690 1140 l 399 1061 b 333 1069 367 1051 344 1054 l 285 1128 b 289 1181 263 1154 265 1165 m 932 1044 b 947 1015 953 1044 958 1035 l 844 863 b 925 604 899 794 925 708 l 925 382 b 482 -21 925 131 764 -21 b 276 13 403 -21 335 -10 l 244 -35 b 185 -62 228 -61 224 -62 l 40 -62 b 26 -31 19 -62 14 -46 l 124 118 b 39 382 67 188 39 275 l 39 604 b 482 1007 39 856 200 1007 b 694 971 563 1007 633 994 l 726 1018 b 783 1044 743 1042 750 1044 m 540 718 b 482 728 525 725 506 728 b 361 622 401 728 361 693 l 361 483 l 361 451 m 428 265 b 482 258 446 261 464 258 b 603 364 563 258 603 293 l 603 494 l 603 525 "},"ǿ":{"ha":774,"x_min":0,"x_max":0,"o":"m 383 1022 b 475 1019 421 1044 451 1043 l 569 924 b 563 868 596 897 593 878 l 306 789 b 240 794 274 779 253 781 l 189 851 b 192 904 169 872 171 890 m 694 767 b 708 736 717 767 721 757 l 657 656 b 744 428 715 601 744 526 l 744 294 b 386 -21 744 96 619 -21 b 242 -3 335 -21 288 -15 l 226 -26 b 174 -49 217 -42 200 -49 l 89 -49 b 75 -18 67 -49 63 -39 l 125 60 b 29 294 61 114 29 193 l 29 428 b 386 743 29 626 157 743 b 542 721 446 743 499 736 l 557 744 b 610 767 567 760 583 767 m 435 521 b 386 542 426 535 410 542 b 333 496 351 542 333 526 l 333 379 l 333 360 m 342 199 b 386 182 350 188 365 182 b 440 226 422 182 440 197 l 440 338 l 440 356 "},"Ș":{"ha":908,"x_min":0,"x_max":0,"o":"m 36 696 b 150 922 36 790 74 865 b 464 1007 226 979 331 1007 b 867 821 675 1007 801 953 b 832 740 888 778 876 758 l 661 668 b 583 699 621 651 606 658 b 464 751 565 733 525 751 b 364 703 397 751 364 735 b 521 635 364 663 410 650 b 665 607 581 625 604 622 b 800 539 725 590 754 574 b 900 294 863 490 896 415 b 451 -21 899 82 690 -25 b 33 186 244 -21 83 49 b 72 265 18 229 29 250 l 232 322 b 321 294 275 339 297 335 b 456 244 340 261 385 244 b 572 293 533 244 572 256 b 433 357 572 331 529 342 b 208 414 326 375 251 393 b 36 696 93 465 36 560 m 543 -315 b 476 -361 533 -346 511 -361 l 369 -361 b 329 -315 339 -361 325 -346 l 353 -122 b 415 -60 358 -78 375 -60 l 565 -58 b 613 -122 613 -58 628 -79 "},"ș":{"ha":731,"x_min":0,"x_max":0,"o":"m 50 501 b 372 743 50 653 161 743 b 706 594 556 743 649 694 b 675 515 725 560 715 533 l 547 460 b 472 476 497 435 494 461 b 392 503 451 494 424 503 b 319 476 331 503 319 497 b 414 446 319 458 335 451 b 664 383 535 438 618 417 b 732 228 710 349 732 297 b 394 -21 732 72 611 -21 b 50 144 208 -21 93 35 b 85 219 35 182 47 207 l 219 268 b 297 254 275 281 279 276 b 381 219 315 231 343 219 b 463 250 446 219 463 228 b 344 286 463 276 449 282 b 50 501 143 296 50 357 m 467 -256 b 388 -306 450 -296 432 -306 l 286 -306 b 249 -264 253 -306 244 -297 l 260 -118 b 331 -54 264 -68 281 -54 l 479 -54 b 526 -118 529 -54 543 -75 "},"Ț":{"ha":864,"x_min":0,"x_max":0,"o":"m 789 986 b 850 925 835 986 850 971 l 850 769 b 789 708 850 724 835 708 l 593 708 l 593 61 b 532 0 593 15 578 0 l 332 0 b 271 61 286 0 271 15 l 271 708 l 75 708 b 14 769 29 708 14 724 l 14 925 b 75 986 14 971 29 986 m 490 -315 b 417 -361 478 -346 454 -361 l 299 -361 b 254 -315 265 -361 250 -346 l 281 -122 b 349 -60 286 -78 303 -60 l 514 -58 b 567 -122 567 -58 585 -79 "},"ț":{"ha":558,"x_min":0,"x_max":0,"o":"m 358 889 b 414 833 399 889 414 874 l 414 722 l 481 722 b 535 667 521 722 535 707 l 535 543 b 481 488 535 503 521 488 l 414 488 l 414 310 b 478 244 414 267 435 244 b 535 188 521 244 535 231 l 535 39 b 478 -18 535 -4 521 -18 b 108 285 228 -18 108 67 l 108 488 l 61 488 b 7 543 21 488 7 500 l 7 667 b 61 722 7 710 21 722 l 108 722 l 108 833 b 164 889 108 874 124 889 m 367 -315 b 300 -361 357 -346 335 -361 l 193 -361 b 153 -315 163 -361 149 -346 l 176 -122 b 239 -60 182 -78 199 -60 l 389 -58 b 436 -122 436 -58 451 -79 "},"ȷ":{"ha":399,"x_min":0,"x_max":0,"o":"m 296 722 b 353 667 339 722 353 710 l 353 -17 b -17 -319 353 -235 233 -319 b -74 -262 -60 -319 -74 -306 l -74 -114 b -17 -57 -74 -71 -60 -57 b 47 8 26 -57 47 -35 l 47 667 b 104 722 47 710 61 722 "},"ˆ":{"ha":557,"x_min":0,"x_max":0,"o":"m 306 1029 b 411 989 361 1029 374 1024 l 563 840 b 543 788 589 817 588 788 l 397 788 b 296 818 331 788 314 792 l 268 857 l 238 819 b 138 788 215 792 199 788 l 11 788 b -8 840 -33 788 -35 817 l 142 989 b 189 1022 160 1007 176 1018 b 256 1029 201 1026 224 1029 "},"ˇ":{"ha":663,"x_min":0,"x_max":0,"o":"m 604 1029 b 618 976 650 1029 642 1000 l 472 828 b 426 794 454 810 439 799 b 358 788 414 790 392 788 l 308 788 b 203 828 251 788 238 793 l 56 976 b 67 1029 32 1000 21 1029 l 217 1029 b 318 999 282 1029 297 1025 l 347 963 l 376 997 b 476 1029 400 1025 415 1029 "},"˘":{"ha":399,"x_min":0,"x_max":0,"o":"m 463 940 b 197 788 424 839 335 788 b -67 940 60 788 -28 839 b -42 990 -76 968 -71 979 l 68 1032 b 124 1015 101 1043 106 1039 b 197 978 142 990 165 978 b 269 1015 226 978 251 990 b 324 1032 286 1039 290 1042 l 438 990 b 463 940 464 981 472 964 "},"˙":{"ha":310,"x_min":0,"x_max":0,"o":"m 160 1036 b 275 919 250 1036 275 1010 l 275 908 b 160 792 275 818 250 792 l 151 792 b 35 908 61 792 35 818 l 35 919 b 151 1036 35 1010 61 1036 "},"˚":{"ha":333,"x_min":0,"x_max":0,"o":"m -29 906 b 168 1075 -29 1015 50 1075 b 361 906 285 1075 361 1011 b 168 738 361 800 283 738 b -29 906 50 738 -29 799 m 208 906 b 168 947 208 933 194 947 b 122 906 138 947 122 933 b 168 865 122 879 138 865 b 208 906 194 865 208 879 "},"˛":{"ha":350,"x_min":0,"x_max":0,"o":"m 339 8 b 253 -150 278 -49 249 -101 b 276 -175 254 -167 263 -175 b 303 -167 285 -175 293 -172 b 338 -175 318 -157 331 -160 l 369 -249 b 358 -294 378 -269 374 -285 b 190 -342 313 -326 257 -342 b 31 -246 97 -342 44 -310 b 133 1 14 -167 49 -83 "},"˜":{"ha":424,"x_min":0,"x_max":0,"o":"m 438 1015 b 471 982 460 1015 471 1004 b 325 804 471 853 421 804 b 200 828 281 804 239 813 b 131 851 161 843 138 851 b 113 829 118 851 113 844 b 88 804 113 813 104 804 l -19 804 b -53 838 -42 804 -53 815 b 90 1015 -53 956 -6 1015 b 218 992 135 1015 178 1007 b 289 968 258 976 282 968 b 307 990 301 968 307 975 b 332 1015 307 1007 315 1015 "},"˝":{"ha":549,"x_min":0,"x_max":0,"o":"m 101 993 b 196 1031 125 1025 157 1038 l 314 1010 b 329 949 353 1003 358 972 l 160 808 b 96 788 138 790 117 783 l 11 800 b -7 856 -22 806 -28 832 m 406 993 b 501 1026 432 1024 464 1035 l 622 997 b 636 935 661 988 668 957 l 457 807 b 393 786 429 785 419 781 l 308 803 b 293 858 275 808 272 835 "},"̦":{"ha":0,"x_min":0,"x_max":0,"o":"m 275 -315 b 208 -361 265 -346 243 -361 l 101 -361 b 61 -315 71 -361 57 -346 l 85 -122 b 147 -60 90 -78 107 -60 l 297 -58 b 344 -122 344 -58 360 -79 "},"π":{"ha":968,"x_min":0,"x_max":0,"o":"m 896 722 b 950 668 939 722 950 711 l 950 519 b 896 463 950 476 936 463 l 865 463 l 865 269 b 888 153 865 221 872 182 b 857 72 906 115 896 89 l 679 -1 b 601 26 639 -19 619 -14 b 560 238 574 89 560 160 l 560 463 l 490 463 l 490 56 b 435 0 490 15 478 0 l 240 0 b 185 56 197 0 185 15 l 185 463 b 132 449 175 463 157 458 b 60 472 97 432 76 438 l -1 606 b 25 678 -18 643 -12 661 b 251 722 96 707 171 722 "},"Ё":{"ha":822,"x_min":0,"x_max":0,"o":"m 258 1272 b 372 1163 346 1272 372 1246 l 372 1142 b 258 1032 372 1060 343 1032 l 247 1032 b 136 1142 163 1032 136 1060 l 136 1163 b 247 1272 136 1246 163 1272 m 568 1272 b 681 1163 653 1272 681 1246 l 681 1142 b 568 1032 681 1060 653 1032 l 558 1032 b 444 1142 474 1032 444 1060 l 444 1163 b 558 1272 444 1246 471 1272 m 722 986 b 783 925 768 986 783 971 l 783 769 b 722 708 783 724 768 708 l 378 708 l 378 636 l 644 636 b 706 575 690 636 706 621 l 706 419 b 644 358 706 374 690 358 l 378 358 l 378 279 l 732 279 b 793 218 778 279 793 264 l 793 61 b 732 0 793 15 778 0 l 117 0 b 56 61 71 0 56 15 l 56 925 b 117 986 56 971 71 986 "},"А":{"ha":978,"x_min":0,"x_max":0,"o":"m 988 60 b 944 0 1001 19 988 0 l 750 0 b 644 64 679 0 654 18 l 625 135 l 364 135 l 344 64 b 244 0 332 18 310 0 l 50 0 b 11 60 7 0 -4 19 l 321 936 b 396 986 333 976 351 986 l 601 986 b 676 938 644 986 664 975 m 526 499 b 501 661 511 550 503 624 l 500 690 l 486 690 b 464 500 488 622 479 560 l 433 388 l 557 388 "},"Б":{"ha":894,"x_min":0,"x_max":0,"o":"m 753 988 b 814 926 799 988 814 972 l 814 799 b 753 738 814 753 799 738 l 378 738 l 378 651 l 549 651 b 881 325 750 651 881 526 b 549 0 881 125 750 0 l 115 0 b 56 58 71 0 56 14 l 56 926 b 117 988 56 972 71 988 m 533 269 b 554 326 547 281 554 300 b 533 383 554 353 547 372 b 467 400 518 394 496 400 l 378 400 l 378 251 l 467 251 b 533 269 496 251 518 257 "},"В":{"ha":919,"x_min":0,"x_max":0,"o":"m 539 988 b 858 724 740 988 858 894 b 754 521 858 636 824 568 l 754 514 b 900 276 851 471 900 392 b 801 72 900 189 867 121 b 544 0 736 24 650 0 l 117 0 b 56 61 71 0 56 15 l 56 926 b 117 988 56 972 71 988 m 532 682 b 461 742 532 722 508 742 l 378 742 l 378 624 l 461 624 b 532 682 510 624 532 639 m 564 313 b 489 375 564 354 539 375 l 378 375 l 378 247 l 489 247 b 564 313 540 247 564 264 "},"Г":{"ha":746,"x_min":0,"x_max":0,"o":"m 671 986 b 732 925 717 986 732 971 l 732 769 b 671 708 732 724 717 708 l 378 708 l 378 61 b 317 0 378 15 363 0 l 117 0 b 56 61 71 0 56 15 l 56 925 b 117 986 56 971 71 986 "},"Д":{"ha":1132,"x_min":0,"x_max":0,"o":"m 922 986 b 983 925 968 986 983 971 l 983 279 l 1050 279 b 1111 219 1096 279 1111 264 l 1111 -151 b 1050 -212 1111 -197 1096 -212 l 854 -212 b 793 -151 808 -212 793 -197 l 793 0 l 339 0 l 339 -151 b 278 -212 339 -197 324 -212 l 82 -212 b 21 -151 36 -212 21 -197 l 21 219 b 82 279 21 264 36 279 l 115 279 b 221 590 193 351 221 436 l 221 925 b 282 986 221 971 236 986 m 538 707 l 538 592 b 483 279 538 471 519 367 l 661 279 l 661 707 "},"Е":{"ha":822,"x_min":0,"x_max":0,"o":"m 722 986 b 783 925 768 986 783 971 l 783 769 b 722 708 783 724 768 708 l 378 708 l 378 636 l 644 636 b 706 575 690 636 706 621 l 706 419 b 644 358 706 374 690 358 l 378 358 l 378 279 l 732 279 b 793 218 778 279 793 264 l 793 61 b 732 0 793 15 778 0 l 117 0 b 56 61 71 0 56 15 l 56 925 b 117 986 56 971 71 986 "},"Ж":{"ha":1383,"x_min":0,"x_max":0,"o":"m 1332 986 b 1369 919 1375 986 1388 964 l 1176 492 b 1210 432 1189 471 1200 451 l 1383 76 b 1342 0 1406 33 1390 0 l 1154 0 b 1024 65 1075 0 1046 11 l 922 310 b 874 358 911 340 904 358 l 864 358 l 864 61 b 803 0 864 15 849 0 l 603 0 b 542 61 557 0 542 15 l 542 358 l 533 358 b 483 310 513 358 496 342 l 382 65 b 251 0 360 11 331 0 l 64 0 b 22 76 15 0 0 33 l 196 432 b 229 492 206 451 217 471 l 36 919 b 74 986 18 964 31 986 l 272 986 b 383 931 349 986 363 979 l 511 636 b 533 638 517 638 524 638 l 542 638 l 542 925 b 603 986 542 971 557 986 l 803 986 b 864 925 849 986 864 971 l 864 638 l 872 638 b 894 636 882 638 889 638 l 1022 931 b 1133 986 1043 979 1057 986 "},"З":{"ha":910,"x_min":0,"x_max":0,"o":"m 858 717 b 750 517 858 621 822 554 b 893 282 860 468 893 394 b 485 -21 893 81 757 -21 b 28 231 242 -21 90 63 b 67 310 13 274 24 294 l 235 369 b 313 331 278 385 296 375 b 449 250 332 276 378 250 b 557 308 533 250 557 264 b 490 365 557 353 540 365 l 388 365 b 326 426 342 365 326 381 l 326 569 b 388 631 326 615 342 631 l 471 631 b 532 683 517 631 532 640 b 449 736 532 718 504 736 b 313 656 379 736 333 710 b 235 617 296 611 278 601 l 67 676 b 28 754 24 692 13 711 b 483 1007 90 922 242 1007 b 858 717 733 1007 858 910 "},"И":{"ha":982,"x_min":0,"x_max":0,"o":"m 865 988 b 926 926 911 988 926 972 l 926 61 b 865 0 926 15 911 0 l 667 0 b 606 63 621 0 606 17 l 606 224 b 615 367 606 283 606 317 b 626 421 619 392 624 410 b 644 493 628 431 635 456 b 665 575 654 531 661 557 l 653 575 b 525 279 607 451 564 353 l 393 28 b 333 0 383 10 363 0 l 117 0 b 56 61 71 0 56 15 l 56 925 b 117 986 56 971 71 986 l 317 986 b 378 925 363 986 378 971 l 378 764 b 368 593 378 690 375 633 b 318 413 361 553 344 492 l 331 413 b 458 708 396 572 438 671 l 590 960 b 650 988 600 978 621 988 "},"Й":{"ha":982,"x_min":0,"x_max":0,"o":"m 801 1189 b 500 1028 757 1082 657 1028 b 200 1189 344 1028 244 1082 b 228 1242 189 1218 196 1231 l 353 1286 b 417 1268 390 1297 396 1294 b 500 1229 435 1242 463 1229 b 582 1268 533 1229 561 1242 b 643 1286 600 1294 606 1297 l 772 1242 b 801 1189 803 1232 813 1215 m 865 988 b 926 926 911 988 926 972 l 926 61 b 865 0 926 15 911 0 l 667 0 b 606 63 621 0 606 17 l 606 224 b 615 367 606 283 606 317 b 626 421 619 392 624 410 b 644 493 628 431 635 456 b 665 575 654 531 661 557 l 653 575 b 525 279 607 451 564 353 l 393 28 b 333 0 383 10 363 0 l 117 0 b 56 61 71 0 56 15 l 56 925 b 117 986 56 971 71 986 l 317 986 b 378 925 363 986 378 971 l 378 764 b 368 593 378 690 375 633 b 318 413 361 553 344 492 l 331 413 b 458 708 396 572 438 671 l 590 960 b 650 988 600 978 621 988 "},"К":{"ha":928,"x_min":0,"x_max":0,"o":"m 919 76 b 878 0 943 33 926 0 l 690 0 b 560 65 613 0 586 11 l 447 299 b 390 357 428 338 408 357 l 378 357 l 378 61 b 317 0 378 15 363 0 l 117 0 b 56 61 71 0 56 15 l 56 925 b 117 986 56 971 71 986 l 317 986 b 378 925 363 986 378 971 l 378 638 l 393 636 l 403 636 l 558 931 b 596 976 571 954 583 969 b 669 986 608 983 632 986 l 868 986 b 906 919 913 986 928 960 l 686 503 b 732 432 703 482 718 458 "},"Л":{"ha":983,"x_min":0,"x_max":0,"o":"m 874 986 b 935 925 919 986 935 971 l 935 61 b 874 0 935 15 919 0 l 674 0 b 613 61 628 0 613 15 l 613 707 l 503 707 l 503 592 b 428 204 503 424 478 294 b 201 -10 376 113 301 42 b 119 19 161 -28 142 -21 l 14 203 b 43 286 -7 243 0 260 b 154 399 94 318 132 356 b 186 590 175 440 186 504 l 186 925 b 247 986 186 971 201 986 "},"М":{"ha":1156,"x_min":0,"x_max":0,"o":"m 1039 988 b 1100 929 1085 988 1100 974 l 1100 58 b 1039 0 1100 14 1085 0 l 842 0 b 781 58 796 0 781 14 l 781 144 b 794 317 781 203 785 260 b 856 560 804 372 824 453 l 839 560 b 761 357 799 450 772 383 l 701 219 b 633 179 689 193 667 179 l 511 179 b 442 219 472 179 457 190 l 379 357 l 308 560 l 292 560 b 351 304 324 440 343 356 b 363 143 358 253 363 200 l 363 58 b 301 0 363 14 347 0 l 117 0 b 56 58 71 0 56 14 l 56 929 b 117 988 56 974 71 988 l 286 988 b 372 944 336 988 351 979 l 575 513 l 779 943 b 860 988 800 981 814 988 "},"Н":{"ha":961,"x_min":0,"x_max":0,"o":"m 844 988 b 906 926 890 988 906 972 l 906 61 b 844 0 906 15 890 0 l 644 0 b 583 61 599 0 583 15 l 583 361 l 378 361 l 378 61 b 317 0 378 15 363 0 l 117 0 b 56 61 71 0 56 15 l 56 926 b 117 988 56 972 71 988 l 317 988 b 378 926 363 988 378 972 l 378 639 l 583 639 l 583 926 b 644 988 583 972 599 988 "},"О":{"ha":956,"x_min":0,"x_max":0,"o":"m 35 604 b 478 1007 35 856 196 1007 b 921 604 760 1007 921 856 l 921 382 b 478 -21 921 131 760 -21 b 35 382 196 -21 35 131 m 599 622 b 478 728 599 693 558 728 b 357 622 397 728 357 693 l 357 364 b 478 258 357 293 397 258 b 599 364 558 258 599 293 "},"П":{"ha":954,"x_min":0,"x_max":0,"o":"m 838 986 b 899 925 883 986 899 971 l 899 61 b 838 0 899 15 883 0 l 638 0 b 576 61 592 0 576 15 l 576 708 l 378 708 l 378 61 b 317 0 378 15 363 0 l 117 0 b 56 61 71 0 56 15 l 56 925 b 117 986 56 971 71 986 "},"Р":{"ha":908,"x_min":0,"x_max":0,"o":"m 513 986 b 886 626 740 986 886 854 b 515 272 886 400 743 272 l 378 272 l 378 61 b 317 0 378 15 363 0 l 117 0 b 56 61 71 0 56 15 l 56 925 b 117 986 56 971 71 986 m 474 550 b 474 708 579 542 579 717 l 378 708 l 378 550 "},"С":{"ha":914,"x_min":0,"x_max":0,"o":"m 35 604 b 478 1007 35 854 196 1007 b 899 754 696 1007 836 922 b 860 676 914 711 903 692 l 671 610 b 593 649 626 597 610 604 b 478 728 571 706 543 728 b 357 606 383 728 357 694 l 357 381 b 478 258 357 292 383 258 b 594 338 536 258 575 285 b 672 376 611 382 629 392 l 860 310 b 899 231 903 294 914 274 b 478 -21 836 63 696 -21 b 35 382 196 -21 35 132 "},"Т":{"ha":864,"x_min":0,"x_max":0,"o":"m 789 986 b 850 925 835 986 850 971 l 850 769 b 789 708 850 724 835 708 l 593 708 l 593 61 b 532 0 593 15 578 0 l 332 0 b 271 61 286 0 271 15 l 271 708 l 75 708 b 14 769 29 708 14 724 l 14 925 b 75 986 14 971 29 986 "},"У":{"ha":878,"x_min":0,"x_max":0,"o":"m 849 986 b 879 925 889 986 897 969 l 532 54 b 432 0 514 10 497 0 l 213 0 b 182 61 175 0 165 21 l 278 292 l 6 925 b 42 986 -12 969 -3 986 l 253 986 b 358 933 321 986 342 978 l 447 699 l 539 933 b 635 986 557 978 574 986 "},"Ф":{"ha":1218,"x_min":0,"x_max":0,"o":"m 708 1021 b 769 960 754 1021 769 1006 l 769 903 l 794 903 b 1207 522 1063 903 1207 765 l 1207 469 b 794 90 1207 226 1063 90 l 769 90 l 769 32 b 708 -29 769 -14 754 -29 l 510 -29 b 449 32 464 -29 449 -14 l 449 90 l 424 90 b 11 469 156 90 11 226 l 11 522 b 424 903 11 765 156 903 l 449 903 l 449 960 b 510 1021 449 1006 464 1021 m 444 632 b 342 535 376 632 342 600 l 342 458 b 444 361 342 393 376 361 l 449 361 l 449 632 m 876 535 b 774 632 876 600 842 632 l 769 632 l 769 361 l 774 361 b 876 458 842 361 876 393 "},"Х":{"ha":938,"x_min":0,"x_max":0,"o":"m 943 61 b 913 0 965 28 956 0 l 690 0 b 571 54 614 0 597 6 l 474 236 l 375 54 b 256 0 351 10 335 0 l 42 0 b 11 61 -1 0 -11 24 l 292 503 l 25 929 b 54 986 4 961 15 986 l 258 986 b 378 936 336 986 356 979 l 474 763 l 567 936 b 678 986 590 982 607 986 l 900 986 b 928 929 939 986 949 961 l 658 503 "},"Ц":{"ha":1031,"x_min":0,"x_max":0,"o":"m 950 279 b 1011 219 996 279 1011 264 l 1011 -153 b 950 -214 1011 -199 996 -214 l 768 -214 b 707 -153 722 -214 707 -199 l 707 0 l 117 0 b 56 61 71 0 56 15 l 56 925 b 117 986 56 971 71 986 l 317 986 b 378 925 363 986 378 971 l 378 279 l 575 279 l 575 925 b 636 986 575 971 590 986 l 836 986 b 897 925 882 986 897 971 l 897 279 "},"Ч":{"ha":924,"x_min":0,"x_max":0,"o":"m 807 986 b 868 925 853 986 868 971 l 868 61 b 807 0 868 15 853 0 l 607 0 b 546 61 561 0 546 15 l 546 301 b 435 297 515 299 478 297 b 32 714 153 297 32 432 l 32 925 b 93 986 32 971 47 986 l 293 986 b 354 925 339 986 354 971 l 354 714 b 496 600 354 635 401 600 b 546 603 508 600 525 601 l 546 925 b 607 986 546 971 561 986 "},"Ш":{"ha":1336,"x_min":0,"x_max":0,"o":"m 1219 986 b 1281 925 1265 986 1281 971 l 1281 61 b 1219 0 1281 15 1265 0 l 117 0 b 56 61 71 0 56 15 l 56 925 b 117 986 56 971 71 986 l 317 986 b 378 925 363 986 378 971 l 378 279 l 507 279 l 507 925 b 568 986 507 971 522 986 l 768 986 b 829 925 814 986 829 971 l 829 279 l 958 279 l 958 925 b 1019 986 958 971 974 986 "},"Щ":{"ha":1414,"x_min":0,"x_max":0,"o":"m 1333 279 b 1394 219 1379 279 1394 264 l 1394 -154 b 1333 -215 1394 -200 1379 -215 l 1151 -215 b 1090 -154 1106 -215 1090 -200 l 1090 0 l 117 0 b 56 61 71 0 56 15 l 56 925 b 117 986 56 971 71 986 l 317 986 b 378 925 363 986 378 971 l 378 279 l 507 279 l 507 925 b 568 986 507 971 522 986 l 768 986 b 829 925 814 986 829 971 l 829 279 l 958 279 l 958 925 b 1019 986 958 971 974 986 l 1219 986 b 1281 925 1265 986 1281 971 l 1281 279 "},"Ъ":{"ha":1114,"x_min":0,"x_max":0,"o":"m 721 714 b 1092 360 949 714 1092 586 b 718 0 1092 132 946 0 l 322 0 b 261 61 276 0 261 15 l 261 707 l 75 707 b 14 768 29 707 14 722 l 14 925 b 75 986 14 971 29 986 l 522 986 b 583 925 568 986 583 971 l 583 714 m 679 278 b 679 436 785 269 785 444 l 583 436 l 583 278 "},"Ы":{"ha":1318,"x_min":0,"x_max":0,"o":"m 117 0 b 56 61 71 0 56 15 l 56 925 b 117 986 56 971 71 986 l 317 986 b 378 925 363 986 378 971 l 378 714 l 515 714 b 886 360 743 714 886 586 b 513 0 886 132 740 0 m 940 931 b 996 986 940 971 953 986 l 1207 986 b 1263 931 1250 986 1263 971 l 1263 56 b 1207 0 1263 15 1250 0 l 996 0 b 940 56 953 0 940 15 m 378 436 l 378 278 l 474 278 b 474 436 579 269 579 444 "},"Ь":{"ha":908,"x_min":0,"x_max":0,"o":"m 117 0 b 56 61 71 0 56 15 l 56 925 b 117 986 56 971 71 986 l 317 986 b 378 925 363 986 378 971 l 378 714 l 515 714 b 886 360 743 714 886 586 b 513 0 886 132 740 0 m 378 436 l 378 278 l 474 278 b 474 436 579 269 579 444 "},"Э":{"ha":918,"x_min":0,"x_max":0,"o":"m 28 754 b 449 1007 90 922 231 1007 b 892 604 731 1007 892 854 l 892 382 b 449 -21 892 132 731 -21 b 28 231 231 -21 90 63 b 67 310 13 274 24 294 l 235 369 b 313 331 278 385 296 375 b 449 250 332 276 378 250 b 569 356 529 250 569 285 l 569 365 l 388 365 b 326 426 342 365 326 381 l 326 569 b 388 631 326 615 342 631 l 569 631 l 569 640 b 449 736 569 704 529 736 b 313 656 379 736 333 710 b 235 617 296 611 278 601 l 67 676 b 28 754 24 692 13 711 "},"Ю":{"ha":1367,"x_min":0,"x_max":0,"o":"m 471 654 b 586 914 471 764 510 851 b 899 1007 663 976 767 1007 b 1331 604 1175 1007 1331 856 l 1331 382 b 899 -21 1331 131 1175 -21 b 586 79 767 -21 663 13 b 469 347 508 144 469 235 l 469 361 l 378 361 l 378 61 b 317 0 378 15 363 0 l 117 0 b 56 61 71 0 56 15 l 56 925 b 117 986 56 971 71 986 l 317 986 b 378 925 363 986 378 971 l 378 639 l 471 639 m 1008 626 b 899 728 1008 694 972 728 b 790 626 826 728 790 694 l 790 360 b 899 258 790 292 826 258 b 1008 360 972 258 1008 292 "},"Я":{"ha":925,"x_min":0,"x_max":0,"o":"m 49 638 b 411 986 49 860 189 986 l 818 986 b 879 925 864 986 879 971 l 879 61 b 818 0 879 15 864 0 l 618 0 b 557 61 572 0 557 15 l 557 307 l 544 307 b 465 246 500 307 482 290 l 394 65 b 264 0 372 11 343 0 l 76 0 b 35 76 26 0 13 31 l 131 279 b 178 356 144 308 160 335 b 49 638 92 415 49 510 m 450 708 b 381 640 406 708 381 681 b 450 572 381 597 406 572 l 557 572 l 557 708 "},"а":{"ha":740,"x_min":0,"x_max":0,"o":"m 50 599 b 371 743 101 694 208 743 b 706 436 611 743 706 635 l 706 107 b 651 19 706 53 696 38 b 367 -21 590 -7 496 -21 b 97 33 235 -21 146 -3 b 24 211 49 68 24 128 b 103 397 24 301 50 364 b 374 446 156 429 246 446 l 401 446 l 401 486 b 353 526 401 513 385 526 b 310 511 332 526 321 522 b 292 492 300 501 301 504 l 285 482 b 203 469 267 458 257 453 l 81 519 b 50 599 42 536 32 563 m 401 258 l 368 258 b 317 213 333 258 317 243 b 365 169 317 183 333 169 b 397 171 379 169 390 169 b 401 175 400 171 401 172 "},"б":{"ha":781,"x_min":0,"x_max":0,"o":"m 506 1013 b 610 1031 551 1013 586 1018 b 688 993 653 1049 672 1039 l 733 865 b 699 786 744 821 738 808 b 531 763 667 771 610 763 l 465 763 b 342 694 394 763 342 739 l 342 688 b 429 701 371 697 400 701 b 753 386 625 701 753 581 l 753 294 b 394 -21 753 96 628 -21 b 38 294 165 -21 38 96 l 38 525 b 133 903 38 703 69 829 b 460 1013 197 976 306 1013 m 449 399 b 394 444 449 429 431 444 b 342 399 360 444 342 429 l 342 282 b 394 238 342 253 360 238 b 449 282 431 238 449 253 "},"в":{"ha":757,"x_min":0,"x_max":0,"o":"m 706 515 b 651 378 706 457 688 411 b 736 210 708 342 736 286 b 486 0 736 76 642 0 l 101 0 b 46 56 58 0 46 15 l 46 667 b 101 722 46 707 58 722 l 465 722 b 706 515 619 722 706 647 m 369 453 b 415 497 400 453 415 468 b 369 542 415 526 400 542 l 340 542 l 340 453 m 379 179 b 432 231 414 179 432 196 b 379 279 432 263 414 279 l 340 279 l 340 179 "},"г":{"ha":615,"x_min":0,"x_max":0,"o":"m 547 722 b 601 667 588 722 601 707 l 601 515 b 547 460 601 475 588 460 l 350 460 l 350 56 b 296 0 350 15 336 0 l 100 0 b 46 56 60 0 46 15 l 46 667 b 100 722 46 707 60 722 "},"д":{"ha":917,"x_min":0,"x_max":0,"o":"m 843 236 b 897 179 883 236 897 222 l 897 -137 b 843 -193 897 -181 883 -193 l 656 -193 b 599 -137 613 -193 599 -178 l 599 -26 l 324 -26 l 324 -137 b 267 -193 324 -178 310 -193 l 79 -193 b 24 -137 36 -193 24 -181 l 24 179 b 79 236 24 222 36 236 l 97 236 b 149 411 132 272 149 331 l 149 667 b 203 722 149 707 163 722 l 746 722 b 801 667 789 722 801 707 l 801 236 m 433 418 b 408 236 433 351 425 290 l 496 236 l 496 460 l 433 460 "},"е":{"ha":771,"x_min":0,"x_max":0,"o":"m 28 411 b 389 743 28 626 156 743 b 658 654 507 743 597 714 b 750 428 719 594 750 519 l 750 360 b 671 285 750 310 724 285 l 333 285 l 333 267 b 392 196 333 219 353 196 b 481 242 426 196 457 211 b 557 253 499 265 506 269 l 678 203 b 708 124 717 186 726 160 b 388 -21 657 28 550 -21 b 28 313 142 -21 28 111 m 444 482 b 389 543 444 525 432 543 b 333 482 349 543 333 525 l 333 469 l 444 469 "},"ж":{"ha":1135,"x_min":0,"x_max":0,"o":"m 678 722 b 732 667 718 722 732 707 l 732 485 l 742 485 l 746 485 l 804 664 b 906 722 819 710 843 722 l 1058 722 b 1110 647 1113 722 1129 697 l 1001 354 b 1008 338 1003 349 1006 343 l 1119 78 b 1068 0 1143 26 1131 0 l 910 0 b 800 57 839 0 813 11 l 761 221 b 742 247 758 233 751 243 b 732 249 740 249 736 249 l 732 56 b 678 0 732 15 718 0 l 482 0 b 428 56 442 0 428 13 l 428 249 b 419 247 424 249 421 249 b 399 221 408 244 401 236 l 360 57 b 250 0 347 11 321 0 l 92 0 b 40 78 29 0 17 26 l 151 338 l 158 354 l 50 647 b 101 722 31 697 47 722 l 254 722 b 356 664 317 722 340 710 l 414 485 l 419 485 l 428 485 l 428 667 b 482 722 428 710 442 722 "},"з":{"ha":733,"x_min":0,"x_max":0,"o":"m 51 544 b 403 743 97 676 214 743 b 718 519 613 743 718 668 b 643 376 718 446 693 399 l 643 368 b 735 201 704 339 735 283 b 415 -21 735 63 650 -21 b 38 178 219 -21 93 46 b 76 258 21 219 33 246 l 197 294 b 268 267 249 304 256 299 b 383 203 281 233 296 208 b 451 236 438 203 451 213 b 404 265 451 258 443 265 l 339 265 b 293 311 306 265 293 276 l 293 417 b 339 461 293 450 306 461 l 407 461 b 451 492 436 461 451 471 b 404 521 451 511 436 521 b 275 457 306 517 288 490 b 251 424 267 438 258 426 b 211 428 242 421 229 422 l 90 465 b 51 544 50 478 38 504 "},"и":{"ha":786,"x_min":0,"x_max":0,"o":"m 296 722 b 351 667 339 722 351 707 l 351 618 b 313 369 351 569 339 488 l 322 369 l 386 553 l 429 679 b 490 722 439 708 460 722 l 685 722 b 740 667 728 722 740 707 l 740 56 b 685 0 740 15 728 0 l 490 0 b 435 56 447 0 435 15 l 435 104 b 474 353 435 157 447 240 l 464 353 l 392 147 l 357 43 b 296 0 347 14 326 0 l 101 0 b 46 56 58 0 46 15 l 46 667 b 101 722 46 707 58 722 "},"й":{"ha":786,"x_min":0,"x_max":0,"o":"m 668 942 b 403 789 629 840 540 789 b 139 942 265 789 178 840 b 164 992 129 969 135 981 l 274 1033 b 329 1017 307 1044 311 1040 b 403 979 347 992 371 979 b 475 1017 432 979 457 992 b 529 1033 492 1040 496 1043 l 643 992 b 668 942 669 982 678 965 m 296 722 b 351 667 339 722 351 707 l 351 618 b 313 369 351 569 339 488 l 322 369 l 386 553 l 429 679 b 490 722 439 708 460 722 l 685 722 b 740 667 728 722 740 707 l 740 56 b 685 0 740 15 728 0 l 490 0 b 435 56 447 0 435 15 l 435 104 b 474 353 435 157 447 240 l 464 353 l 392 147 l 357 43 b 296 0 347 14 326 0 l 101 0 b 46 56 58 0 46 15 l 46 667 b 101 722 46 707 58 722 "},"к":{"ha":790,"x_min":0,"x_max":0,"o":"m 765 78 b 714 0 792 26 775 0 l 556 0 b 446 57 485 0 461 11 l 393 221 b 360 250 386 240 375 250 l 350 250 l 350 56 b 296 0 350 15 336 0 l 100 0 b 46 56 60 0 46 13 l 46 667 b 100 722 46 710 60 722 l 296 722 b 350 667 336 722 350 707 l 350 485 l 364 485 l 372 485 l 450 664 b 551 722 471 710 490 722 l 704 722 b 756 647 761 722 779 697 l 626 364 l 640 338 "},"л":{"ha":799,"x_min":0,"x_max":0,"o":"m 719 722 b 775 667 760 722 775 707 l 775 56 b 719 0 775 15 760 0 l 525 0 b 469 56 485 0 469 15 l 469 460 l 415 460 l 415 432 b 313 68 410 232 376 129 b 185 -15 267 22 240 8 b 115 14 156 -28 133 -18 l 25 169 b 47 233 10 193 18 215 b 96 274 68 247 85 261 b 126 350 107 286 117 313 b 140 501 136 388 140 439 l 140 667 b 194 722 140 707 154 722 "},"м":{"ha":939,"x_min":0,"x_max":0,"o":"m 833 722 b 893 663 882 722 893 708 l 893 56 b 838 0 893 13 881 0 l 681 0 b 622 57 642 0 622 19 l 622 106 b 625 175 622 135 624 158 b 638 249 626 190 631 215 b 672 381 644 282 657 326 l 661 381 b 618 261 644 326 631 286 l 576 174 b 506 131 561 140 544 131 l 429 131 b 360 174 390 131 375 140 l 318 261 b 283 358 308 282 293 329 l 278 381 l 267 381 b 308 204 290 290 304 231 b 315 104 313 176 315 143 l 315 57 b 256 0 315 19 296 0 l 101 0 b 46 56 57 0 46 11 l 46 663 b 107 722 46 707 58 722 l 263 722 b 342 678 307 722 324 713 l 468 433 l 594 676 b 671 722 613 711 628 722 "},"н":{"ha":776,"x_min":0,"x_max":0,"o":"m 676 722 b 731 667 717 722 731 710 l 731 56 b 676 0 731 13 717 0 l 481 0 b 426 56 440 0 426 15 l 426 236 l 350 236 l 350 56 b 296 0 350 15 336 0 l 100 0 b 46 56 60 0 46 13 l 46 667 b 100 722 46 710 60 722 l 296 722 b 350 667 336 722 350 707 l 350 499 l 426 499 l 426 667 b 481 722 426 707 440 722 "},"о":{"ha":774,"x_min":0,"x_max":0,"o":"m 29 428 b 386 743 29 626 157 743 b 744 428 619 743 744 626 l 744 294 b 386 -21 744 96 619 -21 b 29 294 157 -21 29 96 m 440 440 b 386 486 440 471 422 486 b 333 440 351 486 333 471 l 333 282 b 386 238 333 253 351 238 b 440 282 422 238 440 253 "},"п":{"ha":771,"x_min":0,"x_max":0,"o":"m 671 722 b 725 667 711 722 725 707 l 725 56 b 671 0 725 15 711 0 l 475 0 b 421 56 435 0 421 15 l 421 460 l 350 460 l 350 56 b 296 0 350 15 336 0 l 100 0 b 46 56 60 0 46 15 l 46 667 b 100 722 46 707 60 722 "},"р":{"ha":765,"x_min":0,"x_max":0,"o":"m 104 692 b 401 743 190 726 289 743 b 653 663 514 743 597 717 b 736 432 708 608 736 532 l 736 304 b 410 -21 736 93 622 -21 b 350 -19 394 -21 363 -19 l 350 -249 b 294 -304 350 -292 335 -304 l 100 -304 b 44 -249 60 -304 44 -292 l 44 610 b 104 692 44 658 56 671 m 431 446 b 388 483 431 471 417 483 l 356 479 b 350 472 351 478 350 476 l 350 242 b 383 238 361 239 372 238 b 431 279 415 238 431 251 "},"с":{"ha":729,"x_min":0,"x_max":0,"o":"m 29 426 b 386 743 29 626 147 743 b 707 542 557 743 664 663 b 669 465 722 499 713 481 l 501 410 b 422 447 457 394 439 404 b 371 493 407 485 394 493 b 333 443 346 493 333 476 l 333 279 b 371 231 333 247 346 231 b 422 274 397 231 407 236 b 501 310 439 317 457 325 l 675 258 b 713 178 717 246 729 219 b 371 -21 657 46 543 -21 b 29 297 139 -21 29 93 "},"т":{"ha":711,"x_min":0,"x_max":0,"o":"m 642 722 b 696 667 682 722 696 707 l 696 515 b 642 460 696 475 682 460 l 508 460 l 508 56 b 453 0 508 15 493 0 l 258 0 b 203 56 218 0 203 15 l 203 460 l 69 460 b 15 515 29 460 15 475 l 15 667 b 69 722 15 707 29 722 "},"у":{"ha":776,"x_min":0,"x_max":0,"o":"m 686 722 b 742 667 726 722 742 707 l 742 14 b 392 -319 742 -190 632 -319 b 71 -175 231 -319 136 -275 b 101 -96 50 -142 60 -115 l 254 -22 b 328 -39 296 -1 311 -17 b 390 -81 347 -67 368 -81 b 436 -28 421 -81 436 -62 l 436 22 b 375 21 424 21 403 21 b 50 332 157 21 50 132 l 50 667 b 106 722 50 707 65 722 l 300 722 b 356 667 340 722 356 707 l 356 346 b 406 294 356 307 368 294 b 436 296 419 294 429 294 l 436 667 b 492 722 436 707 451 722 "},"ф":{"ha":1075,"x_min":0,"x_max":0,"o":"m 690 743 l 708 743 b 1047 399 936 743 1047 622 l 1047 322 b 708 -21 1047 93 935 -21 l 690 -21 l 690 -250 b 635 -306 690 -290 678 -306 l 440 -306 b 385 -250 397 -306 385 -290 l 385 -21 l 367 -21 b 28 322 140 -21 28 93 l 28 399 b 367 743 28 622 139 743 l 385 743 l 385 972 b 440 1028 385 1013 397 1028 l 635 1028 b 690 972 678 1028 690 1013 m 332 294 b 376 238 332 257 347 238 l 392 238 l 392 483 l 376 483 b 332 428 347 483 332 465 m 743 428 b 699 483 743 465 728 483 l 683 483 l 683 238 l 699 238 b 743 294 731 238 743 251 "},"х":{"ha":803,"x_min":0,"x_max":0,"o":"m 757 722 b 794 657 811 722 824 700 l 610 372 l 807 65 b 767 0 836 19 828 0 l 585 0 b 485 47 519 0 506 4 l 419 183 l 356 47 b 256 0 335 4 318 0 l 75 0 b 33 65 10 0 1 21 l 233 371 l 43 657 b 86 722 14 700 29 722 l 264 722 b 367 675 326 722 346 715 l 422 564 l 476 675 b 572 722 499 718 511 722 "},"ц":{"ha":835,"x_min":0,"x_max":0,"o":"m 756 263 b 811 206 799 263 811 249 l 811 -137 b 756 -193 811 -181 796 -193 l 568 -193 b 513 -137 528 -193 513 -178 l 513 0 l 101 0 b 46 56 58 0 46 15 l 46 667 b 101 722 46 707 58 722 l 296 722 b 351 667 339 722 351 707 l 351 263 l 415 263 l 415 667 b 469 722 415 710 429 722 l 665 722 b 719 667 706 722 719 707 l 719 263 "},"ч":{"ha":747,"x_min":0,"x_max":0,"o":"m 29 667 b 85 722 29 707 42 722 l 279 722 b 335 667 322 722 335 707 l 335 479 b 368 444 335 456 346 444 b 396 453 382 444 392 447 l 396 667 b 451 722 396 707 408 722 l 646 722 b 701 667 689 722 701 707 l 701 56 b 646 0 701 15 689 0 l 451 0 b 396 56 408 0 396 15 l 396 186 b 299 181 361 182 329 181 b 29 446 119 181 29 269 "},"ш":{"ha":1108,"x_min":0,"x_max":0,"o":"m 1008 722 b 1063 667 1049 722 1063 707 l 1063 56 b 1008 0 1063 15 1049 0 l 100 0 b 46 56 60 0 46 15 l 46 667 b 100 722 46 707 60 722 l 296 722 b 350 667 336 722 350 707 l 350 263 l 401 263 l 401 667 b 457 722 401 707 414 722 l 651 722 b 707 667 694 722 707 707 l 707 263 l 758 263 l 758 667 b 813 722 758 707 772 722 "},"щ":{"ha":1178,"x_min":0,"x_max":0,"o":"m 1099 263 b 1154 206 1142 263 1154 249 l 1154 -137 b 1099 -193 1154 -181 1142 -193 l 911 -193 b 856 -137 871 -193 856 -178 l 856 0 l 100 0 b 46 56 60 0 46 15 l 46 667 b 100 722 46 707 60 722 l 296 722 b 350 667 336 722 350 707 l 350 263 l 401 263 l 401 667 b 457 722 401 707 414 722 l 651 722 b 707 667 694 722 707 707 l 707 263 l 758 263 l 758 667 b 813 722 758 707 772 722 l 1008 722 b 1063 667 1049 722 1063 707 l 1063 263 "},"ъ":{"ha":885,"x_min":0,"x_max":0,"o":"m 579 542 b 867 269 761 542 867 446 b 579 0 867 92 763 0 l 242 0 b 188 56 201 0 188 15 l 188 474 l 69 474 b 14 529 29 474 14 486 l 14 667 b 69 722 14 707 29 722 l 438 722 b 492 667 478 722 492 707 l 492 542 m 521 228 b 567 269 556 228 567 238 b 521 311 567 297 551 311 l 492 311 l 492 228 "},"ы":{"ha":1096,"x_min":0,"x_max":0,"o":"m 438 542 b 725 269 619 542 725 446 b 438 0 725 92 621 0 l 100 0 b 46 56 60 0 46 15 l 46 667 b 100 722 46 707 60 722 l 296 722 b 350 667 336 722 350 707 l 350 542 m 994 722 b 1050 667 1035 722 1050 707 l 1050 56 b 994 0 1050 15 1035 0 l 800 0 b 744 56 760 0 744 15 l 744 667 b 800 722 744 707 760 722 m 379 228 b 425 269 414 228 425 238 b 379 311 425 297 410 311 l 350 311 l 350 228 "},"ь":{"ha":743,"x_min":0,"x_max":0,"o":"m 438 542 b 725 269 619 542 725 446 b 438 0 725 92 621 0 l 100 0 b 46 56 60 0 46 15 l 46 667 b 100 722 46 707 60 722 l 296 722 b 350 667 336 722 350 707 l 350 542 m 379 228 b 425 269 414 228 425 238 b 379 311 425 297 410 311 l 350 311 l 350 228 "},"э":{"ha":735,"x_min":0,"x_max":0,"o":"m 43 544 b 374 743 83 663 201 743 b 731 426 613 743 731 626 l 731 297 b 389 -21 731 93 621 -21 b 43 178 214 -21 99 46 b 82 258 26 219 39 246 l 203 294 b 275 274 238 304 263 297 b 303 226 275 272 296 233 b 369 203 310 219 336 203 b 438 258 421 203 438 219 l 438 265 l 331 265 b 285 311 297 265 285 276 l 285 417 b 331 461 285 450 297 461 l 438 461 l 438 467 b 368 521 438 506 418 521 b 313 504 344 521 326 518 b 286 469 299 490 297 492 l 276 451 b 203 428 260 425 249 418 l 82 465 b 43 544 42 478 29 504 "},"ю":{"ha":1122,"x_min":0,"x_max":0,"o":"m 388 508 b 735 743 419 665 536 743 b 1093 428 968 743 1093 626 l 1093 294 b 735 -21 1093 96 968 -21 b 386 226 529 -21 413 61 l 385 236 l 350 236 l 350 56 b 296 0 350 15 336 0 l 100 0 b 46 56 60 0 46 13 l 46 667 b 100 722 46 710 60 722 l 296 722 b 350 667 336 722 350 707 l 350 499 l 386 499 m 789 440 b 735 486 789 471 771 486 b 682 440 700 486 682 471 l 682 282 b 735 238 682 253 700 238 b 789 282 771 238 789 253 "},"я":{"ha":776,"x_min":0,"x_max":0,"o":"m 683 722 b 739 667 726 722 739 707 l 739 56 b 683 0 739 15 726 0 l 489 0 b 433 56 446 0 433 15 l 433 208 l 408 208 l 354 57 b 244 0 338 13 313 0 l 78 0 b 32 78 17 0 4 26 l 133 265 b 50 465 78 308 50 375 b 319 722 50 632 151 722 m 386 503 b 353 465 364 503 353 490 b 386 429 353 442 364 429 l 433 429 l 433 503 "},"ё":{"ha":771,"x_min":0,"x_max":0,"o":"m 239 1032 b 353 922 326 1032 353 1006 l 353 901 b 239 792 353 819 324 792 l 228 792 b 117 901 143 792 117 819 l 117 922 b 228 1032 117 1006 143 1032 m 549 1032 b 661 922 633 1032 661 1006 l 661 901 b 549 792 661 819 633 792 l 539 792 b 425 901 454 792 425 819 l 425 922 b 539 1032 425 1006 451 1032 m 28 411 b 389 743 28 626 156 743 b 658 654 507 743 597 714 b 750 428 719 594 750 519 l 750 360 b 671 285 750 310 724 285 l 333 285 l 333 267 b 392 196 333 219 353 196 b 481 242 426 196 457 211 b 557 253 499 265 506 269 l 678 203 b 708 124 717 186 726 160 b 388 -21 657 28 550 -21 b 28 313 142 -21 28 111 m 444 482 b 389 543 444 525 432 543 b 333 482 349 543 333 525 l 333 469 l 444 469 "},"Ẁ":{"ha":1332,"x_min":0,"x_max":0,"o":"m 590 1278 b 682 1283 613 1304 643 1306 l 878 1168 b 882 1115 901 1156 903 1138 l 833 1057 b 768 1049 822 1042 800 1039 l 508 1118 b 500 1174 475 1129 476 1144 m 1289 986 b 1328 928 1332 986 1339 968 l 1107 51 b 1033 0 1096 11 1076 0 l 822 0 b 747 49 778 0 757 11 l 708 251 b 679 558 690 344 681 447 l 667 558 b 632 250 663 451 650 349 l 594 51 b 519 0 583 11 564 0 l 313 0 b 238 49 269 0 244 17 l 19 928 b 58 986 8 968 15 986 l 267 986 b 349 933 321 986 339 976 l 390 631 b 407 354 401 553 407 461 l 418 354 b 443 631 418 458 426 550 l 504 933 b 585 986 514 976 535 986 l 776 986 b 857 933 826 986 850 976 l 919 631 b 946 354 931 578 939 486 l 957 354 b 975 631 960 465 965 557 l 1015 933 b 1097 986 1022 976 1043 986 "},"ẁ":{"ha":1113,"x_min":0,"x_max":0,"o":"m 483 1019 b 575 1022 507 1043 538 1044 l 767 904 b 769 851 788 890 789 872 l 718 794 b 653 789 706 781 685 779 l 396 868 b 389 924 365 878 363 897 m 1063 722 b 1108 658 1114 722 1124 708 l 954 49 b 879 0 944 17 919 0 l 689 0 b 613 49 643 0 618 17 l 594 147 b 572 339 585 201 576 289 l 569 375 l 557 375 b 526 147 550 283 539 207 l 506 49 b 431 0 499 17 474 0 l 256 0 b 179 49 214 0 189 17 l 21 658 b 67 722 6 708 15 722 l 244 722 b 331 667 310 722 324 713 l 349 535 b 358 442 353 513 356 482 b 361 336 360 401 361 365 l 363 293 l 375 293 b 393 535 379 403 385 483 l 414 665 b 506 722 419 714 438 722 l 629 722 b 719 667 696 722 713 713 l 742 535 b 751 442 746 513 749 482 b 757 336 754 401 756 365 l 758 293 l 772 293 b 786 535 775 403 779 483 l 803 665 b 890 722 808 714 822 722 "}}}
